  0
SECTION
  2
HEADER
  9
$ACADVER
  1
AC1009
  9
$DWGCODEPAGE
  3
ansi_932
  9
$INSBASE
 10
0.0
 20
0.0
 30
0.0
  9
$EXTMIN
 10
1.000000000000000E+20
 20
1.000000000000000E+20
 30
1.000000000000000E+20
  9
$EXTMAX
 10
-1.000000000000000E+20
 20
-1.000000000000000E+20
 30
-1.000000000000000E+20
  9
$LIMMIN
 10
0.0
 20
0.0
  9
$LIMMAX
 10
12.0
 20
9.0
  9
$ORTHOMODE
 70
     0
  9
$REGENMODE
 70
     1
  9
$FILLMODE
 70
     1
  9
$QTEXTMODE
 70
     0
  9
$MIRRTEXT
 70
     1
  9
$DRAGMODE
 70
     2
  9
$LTSCALE
 40
1.0
  9
$OSMODE
 70
   511
  9
$ATTMODE
 70
     1
  9
$TEXTSIZE
 40
0.2
  9
$TRACEWID
 40
0.05
  9
$TEXTSTYLE
  7
STANDARD
  9
$CLAYER
  8
R_PLATE
  9
$CELTYPE
  6
BYLAYER
  9
$CECOLOR
 62
   256
  9
$DIMSCALE
 40
1.0
  9
$DIMASZ
 40
0.18
  9
$DIMEXO
 40
0.0625
  9
$DIMDLI
 40
0.38
  9
$DIMRND
 40
0.0
  9
$DIMDLE
 40
0.0
  9
$DIMEXE
 40
0.18
  9
$DIMTP
 40
0.0
  9
$DIMTM
 40
0.0
  9
$DIMTXT
 40
0.18
  9
$DIMCEN
 40
0.09
  9
$DIMTSZ
 40
0.0
  9
$DIMTOL
 70
     0
  9
$DIMLIM
 70
     0
  9
$DIMTIH
 70
     1
  9
$DIMTOH
 70
     1
  9
$DIMSE1
 70
     0
  9
$DIMSE2
 70
     0
  9
$DIMTAD
 70
     0
  9
$DIMZIN
 70
     0
  9
$DIMBLK
  1

  9
$DIMASO
 70
     1
  9
$DIMSHO
 70
     1
  9
$DIMPOST
  1

  9
$DIMAPOST
  1

  9
$DIMALT
 70
     0
  9
$DIMALTD
 70
     2
  9
$DIMALTF
 40
25.4
  9
$DIMLFAC
 40
1.0
  9
$DIMTOFL
 70
     0
  9
$DIMTVP
 40
0.0
  9
$DIMTIX
 70
     0
  9
$DIMSOXD
 70
     0
  9
$DIMSAH
 70
     0
  9
$DIMBLK1
  1

  9
$DIMBLK2
  1

  9
$DIMSTYLE
  2
STANDARD
  9
$DIMCLRD
 70
     0
  9
$DIMCLRE
 70
     0
  9
$DIMCLRT
 70
     0
  9
$DIMTFAC
 40
1.0
  9
$DIMGAP
 40
0.09
  9
$LUNITS
 70
     2
  9
$LUPREC
 70
     4
  9
$SKETCHINC
 40
0.1
  9
$FILLETRAD
 40
2.0
  9
$AUNITS
 70
     0
  9
$AUPREC
 70
     0
  9
$MENU
  1
.
  9
$ELEVATION
 40
0.0
  9
$PELEVATION
 40
0.0
  9
$THICKNESS
 40
0.0
  9
$LIMCHECK
 70
     0
  9
$CHAMFERA
 40
0.5
  9
$CHAMFERB
 40
0.5
  9
$SKPOLY
 70
     0
  9
$TDCREATE
 40
2458305.590418843
  9
$TDUPDATE
 40
2458358.548070787
  9
$TDINDWG
 40
0.0
  9
$TDUSRTIMER
 40
0.0
  9
$USRTIMER
 70
     1
  9
$ANGBASE
 50
0.0
  9
$ANGDIR
 70
     0
  9
$PDMODE
 70
     0
  9
$PDSIZE
 40
0.0
  9
$PLINEWID
 40
0.0
  9
$COORDS
 70
     1
  9
$SPLFRAME
 70
     0
  9
$SPLINETYPE
 70
     6
  9
$SPLINESEGS
 70
     8
  9
$ATTDIA
 70
     0
  9
$ATTREQ
 70
     1
  9
$HANDLING
 70
     1
  9
$HANDSEED
  5
75
  9
$SURFTAB1
 70
     6
  9
$SURFTAB2
 70
     6
  9
$SURFTYPE
 70
     6
  9
$SURFU
 70
     6
  9
$SURFV
 70
     6
  9
$UCSNAME
  2

  9
$UCSORG
 10
0.0
 20
0.0
 30
0.0
  9
$UCSXDIR
 10
1.0
 20
0.0
 30
0.0
  9
$UCSYDIR
 10
0.0
 20
1.0
 30
0.0
  9
$PUCSNAME
  2

  9
$PUCSORG
 10
0.0
 20
0.0
 30
0.0
  9
$PUCSXDIR
 10
1.0
 20
0.0
 30
0.0
  9
$PUCSYDIR
 10
0.0
 20
1.0
 30
0.0
  9
$USERI1
 70
     0
  9
$USERI2
 70
     0
  9
$USERI3
 70
     0
  9
$USERI4
 70
     0
  9
$USERI5
 70
     0
  9
$USERR1
 40
0.0
  9
$USERR2
 40
0.0
  9
$USERR3
 40
0.0
  9
$USERR4
 40
0.0
  9
$USERR5
 40
0.0
  9
$WORLDVIEW
 70
     1
  9
$SHADEDGE
 70
     3
  9
$SHADEDIF
 70
    70
  9
$TILEMODE
 70
     1
  9
$MAXACTVP
 70
    64
  9
$PLIMCHECK
 70
     0
  9
$PEXTMIN
 10
1.000000000000000E+20
 20
1.000000000000000E+20
 30
1.000000000000000E+20
  9
$PEXTMAX
 10
-1.000000000000000E+20
 20
-1.000000000000000E+20
 30
-1.000000000000000E+20
  9
$PLIMMIN
 10
0.0
 20
0.0
  9
$PLIMMAX
 10
0.0
 20
0.0
  9
$UNITMODE
 70
     0
  9
$VISRETAIN
 70
     1
  9
$PLINEGEN
 70
     0
  9
$PSLTSCALE
 70
     1
  0
ENDSEC
  0
SECTION
  2
TABLES
  0
TABLE
  2
VPORT
 70
     1
  0
VPORT
  2
*ACTIVE
 70
     0
 10
0.0
 20
0.0
 11
1.0
 21
1.0
 12
-6.526982444640737
 22
-201.2671303325154
 13
0.0
 23
0.0
 14
0.5
 24
0.5
 15
0.5
 25
0.5
 16
0.0
 26
0.0
 36
1.0
 17
148.3430555184698
 27
104.9513888626511
 37
0.0
 40
172.3596773024321
 41
0.6170670168025673
 42
50.0
 43
0.0
 44
0.0
 50
0.0
 51
0.0
 71
    16
 72
   100
 73
     1
 74
     3
 75
     0
 76
     0
 77
     0
 78
     0
  0
ENDTAB
  0
TABLE
  2
LTYPE
 70
     1
  0
LTYPE
  2
CONTINUOUS
 70
     0
  3
Solid line
 72
    65
 73
     0
 40
0.0
  0
ENDTAB
  0
TABLE
  2
LAYER
 70
     3
  0
LAYER
  2
0
 70
     0
 62
    -7
  6
CONTINUOUS
  0
LAYER
  2
R_PLATE
 70
     0
 62
     1
  6
CONTINUOUS
  0
LAYER
  2
INNER
 70
     0
 62
     3
  6
CONTINUOUS
  0
ENDTAB
  0
TABLE
  2
STYLE
 70
     1
  0
STYLE
  2
STANDARD
 70
     0
 40
0.0
 41
1.0
 50
0.0
 71
     0
 42
0.2
  3
txt
  4

  0
ENDTAB
  0
TABLE
  2
VIEW
 70
     0
  0
ENDTAB
  0
TABLE
  2
UCS
 70
     0
  0
ENDTAB
  0
TABLE
  2
APPID
 70
     2
  0
APPID
  2
ACAD
 70
     0
  0
APPID
  2
ACAECLAYERSTANDARD
 70
     0
  0
ENDTAB
  0
TABLE
  2
DIMSTYLE
 70
     1
  0
DIMSTYLE
  2
STANDARD
 70
     0
  3

  4

  5

  6

  7

 40
1.0
 41
0.18
 42
0.0625
 43
0.38
 44
0.18
 45
0.0
 46
0.0
 47
0.0
 48
0.0
140
0.18
141
0.09
142
0.0
143
25.4
144
1.0
145
0.0
146
1.0
147
0.09
 71
     0
 72
     0
 73
     1
 74
     1
 75
     0
 76
     0
 77
     0
 78
     0
170
     0
171
     2
172
     0
173
     0
174
     0
175
     0
176
     0
177
     0
178
     0
  0
ENDTAB
  0
ENDSEC
  0
SECTION
  2
BLOCKS
  0
BLOCK
  8
0
  2
$MODEL_SPACE
 70
     0
 10
0.0
 20
0.0
 30
0.0
  3
$MODEL_SPACE
  1

  0
ENDBLK
  5
1E
  8
0
  0
BLOCK
 67
     1
  8
0
  2
$PAPER_SPACE
 70
     0
 10
0.0
 20
0.0
 30
0.0
  3
$PAPER_SPACE
  1

  0
ENDBLK
  5
23
 67
     1
  8
0
  0
ENDSEC
  0
SECTION
  2
ENTITIES
  0
LINE
  5
54
  8
INNER
 10
120.8186623843882
 20
-140.7261649729534
 30
0.0
 11
97.50045978630197
 21
-138.3966449570992
 31
0.0
  0
LINE
  5
56
  8
INNER
 10
167.050911514914
 20
-166.7277671501498
 30
0.0
 11
167.403894848679
 21
-166.3747838155058
 31
0.0
  0
LINE
  5
57
  8
INNER
 10
184.7277432718718
 20
-144.8086382790043
 30
0.0
 11
175.1430831896958
 21
-135.2227983527413
 31
0.0
  0
LINE
  5
58
  8
INNER
 10
160.5005981184061
 20
-99.86963529671432
 30
0.0
 11
160.5005981184061
 21
-42.49920926051757
 31
0.0
  0
LINE
  5
59
  8
INNER
 10
166.5005981184061
 20
-24.49920926051757
 30
0.0
 11
156.5005981184061
 21
-24.49920926051757
 31
0.0
  0
ARC
  5
5A
  8
INNER
 10
210.5005981184062
 20
-99.86963529671428
 30
0.0
 40
50.00000000000008
 50
180.0
 51
224.9964737442133
  0
ARC
  5
5B
  8
INNER
 10
180.1316863613561
 20
-162.132273679211
 30
0.0
 40
6.000000000000008
 50
224.9982369227441
 51
44.99823692274488
  0
LINE
  5
5C
  8
INNER
 10
184.3745056980575
 20
-149.4042691548209
 30
0.0
 11
184.7276539498903
 21
-149.0511071749426
 31
0.0
  0
ARC
  5
5D
  8
INNER
 10
171.6464049880544
 20
-170.61755505653
 30
0.0
 40
6.000000007197017
 50
45.00176310437927
 51
134.9982369444421
  0
ARC
  5
5E
  8
INNER
 10
188.616967744566
 20
-153.6469923000184
 30
0.0
 40
5.999931991519498
 50
134.9982369444421
 51
225.0017630501251
  0
ARC
  5
5F
  8
INNER
 10
164.9295911687134
 20
-164.6064468092311
 30
0.0
 40
3.000000000000002
 50
224.9999999999992
 51
315.0000000713313
  0
ARC
  5
60
  8
INNER
 10
182.6062923761492
 20
-146.9298280623659
 30
0.0
 40
3.0
 50
315.0011136169775
 51
44.99647374421279
  0
ARC
  5
61
  8
INNER
 10
166.5005981184061
 20
-42.49920926051757
 30
0.0
 40
6.0
 50
90.0
 51
180.0
  0
ARC
  5
62
  8
INNER
 10
166.5005981184061
 20
-30.49920926051757
 30
0.0
 40
6.0
 50
270.0
 51
90.0
  0
CIRCLE
  5
63
  8
INNER
 10
166.5005981184061
 20
-30.49920926051757
 30
0.0
 40
2.599999999999994
  0
CIRCLE
  5
64
  8
INNER
 10
180.1316863613561
 20
-162.132273679211
 30
0.0
 40
2.600000000000006
  0
ARC
  5
65
  8
INNER
 10
115.8483357268351
 20
-190.4785101731268
 30
0.0
 40
49.99999999999997
 50
45.00000000000021
 51
84.29500294779893
  0
LINE
  5
66
  8
INNER
 10
151.2036747861623
 20
-155.1231711137993
 30
0.0
 11
162.8082708251538
 21
-166.7277671527907
 31
0.0
  0
LINE
  5
67
  8
INNER
 10
154.5005981184061
 20
-123.0635758980896
 30
0.0
 11
154.5005981184061
 21
-26.49920926051757
 31
0.0
  0
LINE
  5
68
  8
INNER
 10
141.3091066401478
 20
-136.7433215935462
 30
0.0
 11
97.50045978630197
 21
-132.3667784494405
 31
0.0
  0
LINE
  5
69
  8
INNER
 10
141.3091066401478
 20
-136.7433215935462
 30
0.0
 11
164.9295911713544
 21
-160.3638061247528
 31
0.0
  0
LINE
  5
6A
  8
INNER
 10
164.9295911713544
 20
-160.3638061247528
 30
0.0
 11
178.3637410160862
 21
-146.9296562800211
 31
0.0
  0
LINE
  5
6B
  8
INNER
 10
178.3637410160862
 20
-146.9296562800211
 30
0.0
 11
154.5005981184061
 21
-123.0635758980896
 31
0.0
  0
LINE
  5
6C
  8
INNER
 10
97.50045978630197
 20
-132.3667784494405
 30
0.0
 11
97.50045978630197
 21
-138.3966449570992
 31
0.0
  0
CIRCLE
  5
6D
  8
INNER
 10
101.000459786302
 20
-135.7313664427891
 30
0.0
 40
1.099999999999994
  0
CIRCLE
  5
6E
  8
INNER
 10
139.2024872429953
 20
-141.0006632270727
 30
0.0
 40
1.099999999999994
  0
CIRCLE
  5
6F
  8
INNER
 10
164.9295911713544
 20
-164.6064468118721
 30
0.0
 40
1.099999999999994
  0
CIRCLE
  5
70
  8
INNER
 10
182.606251151042
 20
-146.9297868321845
 30
0.0
 40
1.099999999999994
  0
CIRCLE
  5
71
  8
INNER
 10
159.0005981184061
 20
-121.1997770997647
 30
0.0
 40
1.099999999999994
  0
CIRCLE
  5
72
  8
INNER
 10
157.5005981184061
 20
-27.49920926051757
 30
0.0
 40
1.100000000000001
  0
CIRCLE
  5
73
  8
INNER
 10
157.5005981184061
 20
-76.16012631319525
 30
0.0
 40
1.100000000000009
  0
ARC
  5
74
  8
INNER
 10
156.5005981184061
 20
-26.49920926051757
 30
0.0
 40
2.000000000000001
 50
90.0
 51
180.0
  0
ENDSEC
  0
EOF
