  0
SECTION
  2
HEADER
  9
$ACADVER
  1
AC1009
  9
$DWGCODEPAGE
  3
ansi_932
  9
$INSBASE
 10
0.0
 20
0.0
 30
0.0
  9
$EXTMIN
 10
1.000000000000000E+20
 20
1.000000000000000E+20
 30
1.000000000000000E+20
  9
$EXTMAX
 10
-1.000000000000000E+20
 20
-1.000000000000000E+20
 30
-1.000000000000000E+20
  9
$LIMMIN
 10
0.0
 20
0.0
  9
$LIMMAX
 10
12.0
 20
9.0
  9
$ORTHOMODE
 70
     0
  9
$REGENMODE
 70
     1
  9
$FILLMODE
 70
     1
  9
$QTEXTMODE
 70
     0
  9
$MIRRTEXT
 70
     1
  9
$DRAGMODE
 70
     2
  9
$LTSCALE
 40
1.0
  9
$OSMODE
 70
   511
  9
$ATTMODE
 70
     1
  9
$TEXTSIZE
 40
0.2
  9
$TRACEWID
 40
0.05
  9
$TEXTSTYLE
  7
STANDARD
  9
$CLAYER
  8
R_PLATE
  9
$CELTYPE
  6
BYLAYER
  9
$CECOLOR
 62
   256
  9
$DIMSCALE
 40
1.0
  9
$DIMASZ
 40
0.18
  9
$DIMEXO
 40
0.0625
  9
$DIMDLI
 40
0.38
  9
$DIMRND
 40
0.0
  9
$DIMDLE
 40
0.0
  9
$DIMEXE
 40
0.18
  9
$DIMTP
 40
0.0
  9
$DIMTM
 40
0.0
  9
$DIMTXT
 40
0.18
  9
$DIMCEN
 40
0.09
  9
$DIMTSZ
 40
0.0
  9
$DIMTOL
 70
     0
  9
$DIMLIM
 70
     0
  9
$DIMTIH
 70
     1
  9
$DIMTOH
 70
     1
  9
$DIMSE1
 70
     0
  9
$DIMSE2
 70
     0
  9
$DIMTAD
 70
     0
  9
$DIMZIN
 70
     0
  9
$DIMBLK
  1

  9
$DIMASO
 70
     1
  9
$DIMSHO
 70
     1
  9
$DIMPOST
  1

  9
$DIMAPOST
  1

  9
$DIMALT
 70
     0
  9
$DIMALTD
 70
     2
  9
$DIMALTF
 40
25.4
  9
$DIMLFAC
 40
1.0
  9
$DIMTOFL
 70
     0
  9
$DIMTVP
 40
0.0
  9
$DIMTIX
 70
     0
  9
$DIMSOXD
 70
     0
  9
$DIMSAH
 70
     0
  9
$DIMBLK1
  1

  9
$DIMBLK2
  1

  9
$DIMSTYLE
  2
STANDARD
  9
$DIMCLRD
 70
     0
  9
$DIMCLRE
 70
     0
  9
$DIMCLRT
 70
     0
  9
$DIMTFAC
 40
1.0
  9
$DIMGAP
 40
0.09
  9
$LUNITS
 70
     2
  9
$LUPREC
 70
     4
  9
$SKETCHINC
 40
0.1
  9
$FILLETRAD
 40
2.0
  9
$AUNITS
 70
     0
  9
$AUPREC
 70
     0
  9
$MENU
  1
.
  9
$ELEVATION
 40
0.0
  9
$PELEVATION
 40
0.0
  9
$THICKNESS
 40
0.0
  9
$LIMCHECK
 70
     0
  9
$CHAMFERA
 40
0.5
  9
$CHAMFERB
 40
0.5
  9
$SKPOLY
 70
     0
  9
$TDCREATE
 40
2458305.590418843
  9
$TDUPDATE
 40
2458358.548582882
  9
$TDINDWG
 40
0.0
  9
$TDUSRTIMER
 40
0.0
  9
$USRTIMER
 70
     1
  9
$ANGBASE
 50
0.0
  9
$ANGDIR
 70
     0
  9
$PDMODE
 70
     0
  9
$PDSIZE
 40
0.0
  9
$PLINEWID
 40
0.0
  9
$COORDS
 70
     1
  9
$SPLFRAME
 70
     0
  9
$SPLINETYPE
 70
     6
  9
$SPLINESEGS
 70
     8
  9
$ATTDIA
 70
     0
  9
$ATTREQ
 70
     1
  9
$HANDLING
 70
     1
  9
$HANDSEED
  5
A23
  9
$SURFTAB1
 70
     6
  9
$SURFTAB2
 70
     6
  9
$SURFTYPE
 70
     6
  9
$SURFU
 70
     6
  9
$SURFV
 70
     6
  9
$UCSNAME
  2

  9
$UCSORG
 10
0.0
 20
0.0
 30
0.0
  9
$UCSXDIR
 10
1.0
 20
0.0
 30
0.0
  9
$UCSYDIR
 10
0.0
 20
1.0
 30
0.0
  9
$PUCSNAME
  2

  9
$PUCSORG
 10
0.0
 20
0.0
 30
0.0
  9
$PUCSXDIR
 10
1.0
 20
0.0
 30
0.0
  9
$PUCSYDIR
 10
0.0
 20
1.0
 30
0.0
  9
$USERI1
 70
     0
  9
$USERI2
 70
     0
  9
$USERI3
 70
     0
  9
$USERI4
 70
     0
  9
$USERI5
 70
     0
  9
$USERR1
 40
0.0
  9
$USERR2
 40
0.0
  9
$USERR3
 40
0.0
  9
$USERR4
 40
0.0
  9
$USERR5
 40
0.0
  9
$WORLDVIEW
 70
     1
  9
$SHADEDGE
 70
     3
  9
$SHADEDIF
 70
    70
  9
$TILEMODE
 70
     1
  9
$MAXACTVP
 70
    64
  9
$PLIMCHECK
 70
     0
  9
$PEXTMIN
 10
1.000000000000000E+20
 20
1.000000000000000E+20
 30
1.000000000000000E+20
  9
$PEXTMAX
 10
-1.000000000000000E+20
 20
-1.000000000000000E+20
 30
-1.000000000000000E+20
  9
$PLIMMIN
 10
0.0
 20
0.0
  9
$PLIMMAX
 10
0.0
 20
0.0
  9
$UNITMODE
 70
     0
  9
$VISRETAIN
 70
     1
  9
$PLINEGEN
 70
     0
  9
$PSLTSCALE
 70
     1
  0
ENDSEC
  0
SECTION
  2
TABLES
  0
TABLE
  2
VPORT
 70
     1
  0
VPORT
  2
*ACTIVE
 70
     0
 10
0.0
 20
0.0
 11
1.0
 21
1.0
 12
-47.78925489432422
 22
-201.0042168975253
 13
0.0
 23
0.0
 14
0.5
 24
0.5
 15
0.5
 25
0.5
 16
0.0
 26
0.0
 36
1.0
 17
148.3430555184698
 27
104.951388862651
 37
0.0
 40
171.7286850584562
 41
1.188653952223091
 42
50.0
 43
0.0
 44
0.0
 50
0.0
 51
0.0
 71
    16
 72
   100
 73
     1
 74
     3
 75
     0
 76
     0
 77
     0
 78
     0
  0
ENDTAB
  0
TABLE
  2
LTYPE
 70
     1
  0
LTYPE
  2
CONTINUOUS
 70
     0
  3
Solid line
 72
    65
 73
     0
 40
0.0
  0
ENDTAB
  0
TABLE
  2
LAYER
 70
     3
  0
LAYER
  2
0
 70
     0
 62
    -7
  6
CONTINUOUS
  0
LAYER
  2
L_PLATE
 70
     0
 62
     1
  6
CONTINUOUS
  0
LAYER
  2
R_PLATE
 70
     0
 62
     1
  6
CONTINUOUS
  0
ENDTAB
  0
TABLE
  2
STYLE
 70
     1
  0
STYLE
  2
STANDARD
 70
     0
 40
0.0
 41
1.0
 50
0.0
 71
     0
 42
0.2
  3
txt
  4

  0
ENDTAB
  0
TABLE
  2
VIEW
 70
     0
  0
ENDTAB
  0
TABLE
  2
UCS
 70
     0
  0
ENDTAB
  0
TABLE
  2
APPID
 70
     2
  0
APPID
  2
ACAD
 70
     0
  0
APPID
  2
ACAECLAYERSTANDARD
 70
     0
  0
ENDTAB
  0
TABLE
  2
DIMSTYLE
 70
     1
  0
DIMSTYLE
  2
STANDARD
 70
     0
  3

  4

  5

  6

  7

 40
1.0
 41
0.18
 42
0.0625
 43
0.38
 44
0.18
 45
0.0
 46
0.0
 47
0.0
 48
0.0
140
0.18
141
0.09
142
0.0
143
25.4
144
1.0
145
0.0
146
1.0
147
0.09
 71
     0
 72
     0
 73
     1
 74
     1
 75
     0
 76
     0
 77
     0
 78
     0
170
     0
171
     2
172
     0
173
     0
174
     0
175
     0
176
     0
177
     0
178
     0
  0
ENDTAB
  0
ENDSEC
  0
SECTION
  2
BLOCKS
  0
BLOCK
  8
0
  2
$MODEL_SPACE
 70
     0
 10
0.0
 20
0.0
 30
0.0
  3
$MODEL_SPACE
  1

  0
ENDBLK
  5
1E
  8
0
  0
BLOCK
 67
     1
  8
0
  2
$PAPER_SPACE
 70
     0
 10
0.0
 20
0.0
 30
0.0
  3
$PAPER_SPACE
  1

  0
ENDBLK
  5
23
 67
     1
  8
0
  0
ENDSEC
  0
SECTION
  2
ENTITIES
  0
POLYLINE
  5
54
  8
L_PLATE
 66
     1
 10
0.0
 20
0.0
 30
0.0
  0
VERTEX
  5
56
  8
L_PLATE
 10
35.07498508402639
 20
-93.49863687063576
 30
0.0
  0
VERTEX
  5
57
  8
L_PLATE
 10
35.07498508402639
 20
-96.99850937410108
 30
0.0
  0
SEQEND
  5
58
  8
L_PLATE
  0
POLYLINE
  5
59
  8
L_PLATE
 66
     1
 10
0.0
 20
0.0
 30
0.0
  0
VERTEX
  5
5A
  8
L_PLATE
 10
50.67575547943176
 20
-84.99958630852441
 30
0.0
  0
VERTEX
  5
5B
  8
L_PLATE
 10
50.67575547943176
 20
-88.49980332153825
 30
0.0
  0
SEQEND
  5
5C
  8
L_PLATE
  0
POLYLINE
  5
5D
  8
L_PLATE
 66
     1
 10
0.0
 20
0.0
 30
0.0
  0
VERTEX
  5
5E
  8
L_PLATE
 10
50.67575547943176
 20
-88.49980332153825
 30
0.0
  0
VERTEX
  5
5F
  8
L_PLATE
 10
49.87545979820821
 20
-88.49980332153825
 30
0.0
  0
SEQEND
  5
60
  8
L_PLATE
  0
POLYLINE
  5
61
  8
L_PLATE
 66
     1
 10
0.0
 20
0.0
 30
0.0
  0
VERTEX
  5
62
  8
L_PLATE
 10
50.67575547943176
 20
-84.99958630852441
 30
0.0
  0
VERTEX
  5
63
  8
L_PLATE
 10
49.87545979820821
 20
-84.99958630852441
 30
0.0
  0
SEQEND
  5
64
  8
L_PLATE
  0
POLYLINE
  5
65
  8
L_PLATE
 66
     1
 10
0.0
 20
0.0
 30
0.0
  0
VERTEX
  5
66
  8
L_PLATE
 10
50.67575547943176
 20
-93.49863687063576
 30
0.0
  0
VERTEX
  5
67
  8
L_PLATE
 10
49.87545979820821
 20
-93.49863687063576
 30
0.0
  0
SEQEND
  5
68
  8
L_PLATE
  0
POLYLINE
  5
69
  8
L_PLATE
 66
     1
 10
0.0
 20
0.0
 30
0.0
  0
VERTEX
  5
6A
  8
L_PLATE
 10
50.67575547943176
 20
-96.99850937410108
 30
0.0
  0
VERTEX
  5
6B
  8
L_PLATE
 10
49.87545979820821
 20
-96.99850937410108
 30
0.0
  0
SEQEND
  5
6C
  8
L_PLATE
  0
POLYLINE
  5
6D
  8
L_PLATE
 66
     1
 10
0.0
 20
0.0
 30
0.0
  0
VERTEX
  5
6E
  8
L_PLATE
 10
35.87528076524993
 20
-96.99850937410108
 30
0.0
  0
VERTEX
  5
6F
  8
L_PLATE
 10
35.07498508402639
 20
-96.99850937410108
 30
0.0
  0
SEQEND
  5
70
  8
L_PLATE
  0
POLYLINE
  5
71
  8
L_PLATE
 66
     1
 10
0.0
 20
0.0
 30
0.0
  0
VERTEX
  5
72
  8
L_PLATE
 10
35.87528076524993
 20
-93.49863687063576
 30
0.0
  0
VERTEX
  5
73
  8
L_PLATE
 10
35.07498508402639
 20
-93.49863687063576
 30
0.0
  0
SEQEND
  5
74
  8
L_PLATE
  0
POLYLINE
  5
75
  8
L_PLATE
 66
     1
 10
0.0
 20
0.0
 30
0.0
  0
VERTEX
  5
76
  8
L_PLATE
 10
35.87528076524993
 20
-84.99958630852441
 30
0.0
  0
VERTEX
  5
77
  8
L_PLATE
 10
35.07498508402639
 20
-84.99958630852441
 30
0.0
  0
SEQEND
  5
78
  8
L_PLATE
  0
POLYLINE
  5
79
  8
L_PLATE
 66
     1
 10
0.0
 20
0.0
 30
0.0
  0
VERTEX
  5
7A
  8
L_PLATE
 10
35.87528076524993
 20
-88.49980332153825
 30
0.0
  0
VERTEX
  5
7B
  8
L_PLATE
 10
35.07498508402639
 20
-88.49980332153825
 30
0.0
  0
SEQEND
  5
7C
  8
L_PLATE
  0
POLYLINE
  5
7D
  8
L_PLATE
 66
     1
 10
0.0
 20
0.0
 30
0.0
  0
VERTEX
  5
7E
  8
L_PLATE
 10
49.87545979820821
 20
-96.99850937410108
 30
0.0
  0
VERTEX
  5
7F
  8
L_PLATE
 10
49.87545979820821
 20
-97.99930961256615
 30
0.0
  0
SEQEND
  5
80
  8
L_PLATE
  0
POLYLINE
  5
81
  8
L_PLATE
 66
     1
 10
0.0
 20
0.0
 30
0.0
  0
VERTEX
  5
82
  8
L_PLATE
 10
49.87545979820821
 20
-83.99913057960786
 30
0.0
  0
VERTEX
  5
83
  8
L_PLATE
 10
49.87545979820821
 20
-84.99958630852441
 30
0.0
  0
SEQEND
  5
84
  8
L_PLATE
  0
POLYLINE
  5
85
  8
L_PLATE
 66
     1
 10
0.0
 20
0.0
 30
0.0
  0
VERTEX
  5
86
  8
L_PLATE
 10
49.87545979820821
 20
-93.49863687063576
 30
0.0
  0
VERTEX
  5
87
  8
L_PLATE
 10
49.87545979820821
 20
-88.49980332153825
 30
0.0
  0
SEQEND
  5
88
  8
L_PLATE
  0
POLYLINE
  5
89
  8
L_PLATE
 66
     1
 10
0.0
 20
0.0
 30
0.0
  0
VERTEX
  5
8A
  8
L_PLATE
 10
49.87545979820821
 20
-83.99913057960786
 30
0.0
  0
VERTEX
  5
8B
  8
L_PLATE
 10
35.87528076524993
 20
-83.99913057960786
 30
0.0
  0
SEQEND
  5
8C
  8
L_PLATE
  0
POLYLINE
  5
8D
  8
L_PLATE
 66
     1
 10
0.0
 20
0.0
 30
0.0
  0
VERTEX
  5
8E
  8
L_PLATE
 10
35.87528076524993
 20
-93.49863687063576
 30
0.0
  0
VERTEX
  5
8F
  8
L_PLATE
 10
35.87528076524993
 20
-88.49980332153825
 30
0.0
  0
SEQEND
  5
90
  8
L_PLATE
  0
POLYLINE
  5
91
  8
L_PLATE
 66
     1
 10
0.0
 20
0.0
 30
0.0
  0
VERTEX
  5
92
  8
L_PLATE
 10
35.87528076524993
 20
-83.99913057960786
 30
0.0
  0
VERTEX
  5
93
  8
L_PLATE
 10
35.87528076524993
 20
-84.99958630852441
 30
0.0
  0
SEQEND
  5
94
  8
L_PLATE
  0
POLYLINE
  5
95
  8
L_PLATE
 66
     1
 10
0.0
 20
0.0
 30
0.0
  0
VERTEX
  5
96
  8
L_PLATE
 10
35.07498508402639
 20
-84.99958630852441
 30
0.0
  0
VERTEX
  5
97
  8
L_PLATE
 10
35.07498508402639
 20
-88.49980332153825
 30
0.0
  0
SEQEND
  5
98
  8
L_PLATE
  0
POLYLINE
  5
99
  8
L_PLATE
 66
     1
 10
0.0
 20
0.0
 30
0.0
  0
VERTEX
  5
9A
  8
L_PLATE
 10
50.67575547943176
 20
-93.49863687063576
 30
0.0
  0
VERTEX
  5
9B
  8
L_PLATE
 10
50.67575547943176
 20
-96.99850937410108
 30
0.0
  0
SEQEND
  5
9C
  8
L_PLATE
  0
POLYLINE
  5
9D
  8
L_PLATE
 66
     1
 10
0.0
 20
0.0
 30
0.0
  0
VERTEX
  5
9E
  8
L_PLATE
 10
35.87528076524993
 20
-96.99850937410108
 30
0.0
  0
VERTEX
  5
9F
  8
L_PLATE
 10
35.87528076524993
 20
-97.99930961256615
 30
0.0
  0
SEQEND
  5
A0
  8
L_PLATE
  0
POLYLINE
  5
A1
  8
L_PLATE
 66
     1
 10
0.0
 20
0.0
 30
0.0
  0
VERTEX
  5
A2
  8
L_PLATE
 10
49.87545979820821
 20
-97.99930961256615
 30
0.0
  0
VERTEX
  5
A3
  8
L_PLATE
 10
35.87528076524993
 20
-97.99930961256615
 30
0.0
  0
SEQEND
  5
A4
  8
L_PLATE
  0
POLYLINE
  5
A5
  8
L_PLATE
 66
     1
 10
0.0
 20
0.0
 30
0.0
  0
VERTEX
  5
A6
  8
L_PLATE
 10
166.9973374816014
 20
-137.966206846498
 30
0.0
  0
VERTEX
  5
A7
  8
L_PLATE
 10
164.5234144136435
 20
-135.4922837785401
 30
0.0
  0
SEQEND
  5
A8
  8
L_PLATE
  0
POLYLINE
  5
A9
  8
L_PLATE
 66
     1
 10
0.0
 20
0.0
 30
0.0
  0
VERTEX
  5
AA
  8
L_PLATE
 10
161.9781778691409
 20
-155.0070271547378
 30
0.0
  0
VERTEX
  5
AB
  8
L_PLATE
 10
159.5018432343433
 20
-152.5331040867799
 30
0.0
  0
SEQEND
  5
AC
  8
L_PLATE
  0
POLYLINE
  5
AD
  8
L_PLATE
 66
     1
 10
0.0
 20
0.0
 30
0.0
  0
VERTEX
  5
AE
  8
L_PLATE
 10
159.5018432343433
 20
-152.5331040867799
 30
0.0
  0
VERTEX
  5
AF
  8
L_PLATE
 10
160.0682169321184
 20
-151.9667303890049
 30
0.0
  0
SEQEND
  5
B0
  8
L_PLATE
  0
POLYLINE
  5
B1
  8
L_PLATE
 66
     1
 10
0.0
 20
0.0
 30
0.0
  0
VERTEX
  5
B2
  8
L_PLATE
 10
161.9781778691409
 20
-155.0070271547378
 30
0.0
  0
VERTEX
  5
B3
  8
L_PLATE
 10
162.5421400000763
 20
-154.4406534569628
 30
0.0
  0
SEQEND
  5
B4
  8
L_PLATE
  0
POLYLINE
  5
B5
  8
L_PLATE
 66
     1
 10
0.0
 20
0.0
 30
0.0
  0
VERTEX
  5
B6
  8
L_PLATE
 10
155.9661417378314
 20
-148.997402590268
 30
0.0
  0
VERTEX
  5
B7
  8
L_PLATE
 10
156.5325154356065
 20
-148.4310288924929
 30
0.0
  0
SEQEND
  5
B8
  8
L_PLATE
  0
POLYLINE
  5
B9
  8
L_PLATE
 66
     1
 10
0.0
 20
0.0
 30
0.0
  0
VERTEX
  5
BA
  8
L_PLATE
 10
153.4922186698735
 20
-146.5234795223101
 30
0.0
  0
VERTEX
  5
BB
  8
L_PLATE
 10
154.0585923676485
 20
-145.957105824535
 30
0.0
  0
SEQEND
  5
BC
  8
L_PLATE
  0
POLYLINE
  5
BD
  8
L_PLATE
 66
     1
 10
0.0
 20
0.0
 30
0.0
  0
VERTEX
  5
BE
  8
L_PLATE
 10
163.9566962063199
 20
-136.0562459094755
 30
0.0
  0
VERTEX
  5
BF
  8
L_PLATE
 10
164.5234144136435
 20
-135.4922837785401
 30
0.0
  0
SEQEND
  5
C0
  8
L_PLATE
  0
POLYLINE
  5
C1
  8
L_PLATE
 66
     1
 10
0.0
 20
0.0
 30
0.0
  0
VERTEX
  5
C2
  8
L_PLATE
 10
166.4309637838263
 20
-138.5325805442731
 30
0.0
  0
VERTEX
  5
C3
  8
L_PLATE
 10
166.9973374816014
 20
-137.966206846498
 30
0.0
  0
SEQEND
  5
C4
  8
L_PLATE
  0
POLYLINE
  5
C5
  8
L_PLATE
 66
     1
 10
0.0
 20
0.0
 30
0.0
  0
VERTEX
  5
C6
  8
L_PLATE
 10
172.4429999151358
 20
-144.5422051087429
 30
0.0
  0
VERTEX
  5
C7
  8
L_PLATE
 10
173.0066175365227
 20
-143.9758314109679
 30
0.0
  0
SEQEND
  5
C8
  8
L_PLATE
  0
POLYLINE
  5
C9
  8
L_PLATE
 66
     1
 10
0.0
 20
0.0
 30
0.0
  0
VERTEX
  5
CA
  8
L_PLATE
 10
169.9663207707897
 20
-142.068282040785
 30
0.0
  0
VERTEX
  5
CB
  8
L_PLATE
 10
170.5326944685648
 20
-141.5019083430099
 30
0.0
  0
SEQEND
  5
CC
  8
L_PLATE
  0
POLYLINE
  5
CD
  8
L_PLATE
 66
     1
 10
0.0
 20
0.0
 30
0.0
  0
VERTEX
  5
CE
  8
L_PLATE
 10
154.0585923676485
 20
-145.957105824535
 30
0.0
  0
VERTEX
  5
CF
  8
L_PLATE
 10
153.3499362263327
 20
-145.2484496832191
 30
0.0
  0
SEQEND
  5
D0
  8
L_PLATE
  0
POLYLINE
  5
D1
  8
L_PLATE
 66
     1
 10
0.0
 20
0.0
 30
0.0
  0
VERTEX
  5
D2
  8
L_PLATE
 10
163.2507961413922
 20
-155.1493095982786
 30
0.0
  0
VERTEX
  5
D3
  8
L_PLATE
 10
162.5421400000763
 20
-154.4406534569628
 30
0.0
  0
SEQEND
  5
D4
  8
L_PLATE
  0
POLYLINE
  5
D5
  8
L_PLATE
 66
     1
 10
0.0
 20
0.0
 30
0.0
  0
VERTEX
  5
D6
  8
L_PLATE
 10
156.5325154356065
 20
-148.4310288924929
 30
0.0
  0
VERTEX
  5
D7
  8
L_PLATE
 10
160.0682169321184
 20
-151.9667303890049
 30
0.0
  0
SEQEND
  5
D8
  8
L_PLATE
  0
POLYLINE
  5
D9
  8
L_PLATE
 66
     1
 10
0.0
 20
0.0
 30
0.0
  0
VERTEX
  5
DA
  8
L_PLATE
 10
163.2507961413922
 20
-155.1493095982786
 30
0.0
  0
VERTEX
  5
DB
  8
L_PLATE
 10
173.1488999800635
 20
-145.2484496832191
 30
0.0
  0
SEQEND
  5
DC
  8
L_PLATE
  0
POLYLINE
  5
DD
  8
L_PLATE
 66
     1
 10
0.0
 20
0.0
 30
0.0
  0
VERTEX
  5
DE
  8
L_PLATE
 10
166.4309637838263
 20
-138.5325805442731
 30
0.0
  0
VERTEX
  5
DF
  8
L_PLATE
 10
169.9663207707897
 20
-142.068282040785
 30
0.0
  0
SEQEND
  5
E0
  8
L_PLATE
  0
POLYLINE
  5
E1
  8
L_PLATE
 66
     1
 10
0.0
 20
0.0
 30
0.0
  0
VERTEX
  5
E2
  8
L_PLATE
 10
173.1488999800635
 20
-145.2484496832191
 30
0.0
  0
VERTEX
  5
E3
  8
L_PLATE
 10
172.4429999151358
 20
-144.5422051087429
 30
0.0
  0
SEQEND
  5
E4
  8
L_PLATE
  0
POLYLINE
  5
E5
  8
L_PLATE
 66
     1
 10
0.0
 20
0.0
 30
0.0
  0
VERTEX
  5
E6
  8
L_PLATE
 10
173.0066175365227
 20
-143.9758314109679
 30
0.0
  0
VERTEX
  5
E7
  8
L_PLATE
 10
170.5326944685648
 20
-141.5019083430099
 30
0.0
  0
SEQEND
  5
E8
  8
L_PLATE
  0
POLYLINE
  5
E9
  8
L_PLATE
 66
     1
 10
0.0
 20
0.0
 30
0.0
  0
VERTEX
  5
EA
  8
L_PLATE
 10
155.9661417378314
 20
-148.997402590268
 30
0.0
  0
VERTEX
  5
EB
  8
L_PLATE
 10
153.4922186698735
 20
-146.5234795223101
 30
0.0
  0
SEQEND
  5
EC
  8
L_PLATE
  0
POLYLINE
  5
ED
  8
L_PLATE
 66
     1
 10
0.0
 20
0.0
 30
0.0
  0
VERTEX
  5
EE
  8
L_PLATE
 10
163.9566962063199
 20
-136.0562459094755
 30
0.0
  0
VERTEX
  5
EF
  8
L_PLATE
 10
163.2507961413922
 20
-135.3500013349993
 30
0.0
  0
SEQEND
  5
F0
  8
L_PLATE
  0
POLYLINE
  5
F1
  8
L_PLATE
 66
     1
 10
0.0
 20
0.0
 30
0.0
  0
VERTEX
  5
F2
  8
L_PLATE
 10
153.3499362263327
 20
-145.2484496832191
 30
0.0
  0
VERTEX
  5
F3
  8
L_PLATE
 10
163.2507961413922
 20
-135.3500013349993
 30
0.0
  0
SEQEND
  5
F4
  8
L_PLATE
  0
POLYLINE
  5
F5
  8
L_PLATE
 66
     1
 10
0.0
 20
0.0
 30
0.0
  0
VERTEX
  5
F6
  8
L_PLATE
 10
35.07498508402639
 20
-112.5004055290798
 30
0.0
  0
VERTEX
  5
F7
  8
L_PLATE
 10
35.07498508402639
 20
-116.0002780325451
 30
0.0
  0
SEQEND
  5
F8
  8
L_PLATE
  0
POLYLINE
  5
F9
  8
L_PLATE
 66
     1
 10
0.0
 20
0.0
 30
0.0
  0
VERTEX
  5
FA
  8
L_PLATE
 10
50.67575547943176
 20
-103.9989434001287
 30
0.0
  0
VERTEX
  5
FB
  8
L_PLATE
 10
50.67575547943176
 20
-107.4991604131426
 30
0.0
  0
SEQEND
  5
FC
  8
L_PLATE
  0
POLYLINE
  5
FD
  8
L_PLATE
 66
     1
 10
0.0
 20
0.0
 30
0.0
  0
VERTEX
  5
FE
  8
L_PLATE
 10
50.67575547943176
 20
-107.4991604131426
 30
0.0
  0
VERTEX
  5
FF
  8
L_PLATE
 10
49.87545979820821
 20
-107.4991604131426
 30
0.0
  0
SEQEND
  5
100
  8
L_PLATE
  0
POLYLINE
  5
101
  8
L_PLATE
 66
     1
 10
0.0
 20
0.0
 30
0.0
  0
VERTEX
  5
102
  8
L_PLATE
 10
50.67575547943176
 20
-103.9989434001287
 30
0.0
  0
VERTEX
  5
103
  8
L_PLATE
 10
49.87545979820821
 20
-103.9989434001287
 30
0.0
  0
SEQEND
  5
104
  8
L_PLATE
  0
POLYLINE
  5
105
  8
L_PLATE
 66
     1
 10
0.0
 20
0.0
 30
0.0
  0
VERTEX
  5
106
  8
L_PLATE
 10
50.67575547943176
 20
-112.5004055290798
 30
0.0
  0
VERTEX
  5
107
  8
L_PLATE
 10
49.87545979820821
 20
-112.5004055290798
 30
0.0
  0
SEQEND
  5
108
  8
L_PLATE
  0
POLYLINE
  5
109
  8
L_PLATE
 66
     1
 10
0.0
 20
0.0
 30
0.0
  0
VERTEX
  5
10A
  8
L_PLATE
 10
50.67575547943176
 20
-116.0002780325451
 30
0.0
  0
VERTEX
  5
10B
  8
L_PLATE
 10
49.87545979820821
 20
-116.0002780325451
 30
0.0
  0
SEQEND
  5
10C
  8
L_PLATE
  0
POLYLINE
  5
10D
  8
L_PLATE
 66
     1
 10
0.0
 20
0.0
 30
0.0
  0
VERTEX
  5
10E
  8
L_PLATE
 10
35.87528076524993
 20
-116.0002780325451
 30
0.0
  0
VERTEX
  5
10F
  8
L_PLATE
 10
35.07498508402639
 20
-116.0002780325451
 30
0.0
  0
SEQEND
  5
110
  8
L_PLATE
  0
POLYLINE
  5
111
  8
L_PLATE
 66
     1
 10
0.0
 20
0.0
 30
0.0
  0
VERTEX
  5
112
  8
L_PLATE
 10
35.87528076524993
 20
-112.5004055290798
 30
0.0
  0
VERTEX
  5
113
  8
L_PLATE
 10
35.07498508402639
 20
-112.5004055290798
 30
0.0
  0
SEQEND
  5
114
  8
L_PLATE
  0
POLYLINE
  5
115
  8
L_PLATE
 66
     1
 10
0.0
 20
0.0
 30
0.0
  0
VERTEX
  5
116
  8
L_PLATE
 10
35.87528076524993
 20
-103.9989434001287
 30
0.0
  0
VERTEX
  5
117
  8
L_PLATE
 10
35.07498508402639
 20
-103.9989434001287
 30
0.0
  0
SEQEND
  5
118
  8
L_PLATE
  0
POLYLINE
  5
119
  8
L_PLATE
 66
     1
 10
0.0
 20
0.0
 30
0.0
  0
VERTEX
  5
11A
  8
L_PLATE
 10
35.87528076524993
 20
-107.4991604131426
 30
0.0
  0
VERTEX
  5
11B
  8
L_PLATE
 10
35.07498508402639
 20
-107.4991604131426
 30
0.0
  0
SEQEND
  5
11C
  8
L_PLATE
  0
POLYLINE
  5
11D
  8
L_PLATE
 66
     1
 10
0.0
 20
0.0
 30
0.0
  0
VERTEX
  5
11E
  8
L_PLATE
 10
49.87545979820821
 20
-116.0002780325451
 30
0.0
  0
VERTEX
  5
11F
  8
L_PLATE
 10
49.87545979820821
 20
-116.9986667041705
 30
0.0
  0
SEQEND
  5
120
  8
L_PLATE
  0
POLYLINE
  5
121
  8
L_PLATE
 66
     1
 10
0.0
 20
0.0
 30
0.0
  0
VERTEX
  5
122
  8
L_PLATE
 10
49.87545979820821
 20
-103.0005547285033
 30
0.0
  0
VERTEX
  5
123
  8
L_PLATE
 10
49.87545979820821
 20
-103.9989434001287
 30
0.0
  0
SEQEND
  5
124
  8
L_PLATE
  0
POLYLINE
  5
125
  8
L_PLATE
 66
     1
 10
0.0
 20
0.0
 30
0.0
  0
VERTEX
  5
126
  8
L_PLATE
 10
49.87545979820821
 20
-112.5004055290798
 30
0.0
  0
VERTEX
  5
127
  8
L_PLATE
 10
49.87545979820821
 20
-107.4991604131426
 30
0.0
  0
SEQEND
  5
128
  8
L_PLATE
  0
POLYLINE
  5
129
  8
L_PLATE
 66
     1
 10
0.0
 20
0.0
 30
0.0
  0
VERTEX
  5
12A
  8
L_PLATE
 10
49.87545979820821
 20
-103.0005547285033
 30
0.0
  0
VERTEX
  5
12B
  8
L_PLATE
 10
35.87528076524993
 20
-103.0005547285033
 30
0.0
  0
SEQEND
  5
12C
  8
L_PLATE
  0
POLYLINE
  5
12D
  8
L_PLATE
 66
     1
 10
0.0
 20
0.0
 30
0.0
  0
VERTEX
  5
12E
  8
L_PLATE
 10
35.87528076524993
 20
-112.5004055290798
 30
0.0
  0
VERTEX
  5
12F
  8
L_PLATE
 10
35.87528076524993
 20
-107.4991604131426
 30
0.0
  0
SEQEND
  5
130
  8
L_PLATE
  0
POLYLINE
  5
131
  8
L_PLATE
 66
     1
 10
0.0
 20
0.0
 30
0.0
  0
VERTEX
  5
132
  8
L_PLATE
 10
35.87528076524993
 20
-103.0005547285033
 30
0.0
  0
VERTEX
  5
133
  8
L_PLATE
 10
35.87528076524993
 20
-103.9989434001287
 30
0.0
  0
SEQEND
  5
134
  8
L_PLATE
  0
POLYLINE
  5
135
  8
L_PLATE
 66
     1
 10
0.0
 20
0.0
 30
0.0
  0
VERTEX
  5
136
  8
L_PLATE
 10
35.07498508402639
 20
-103.9989434001287
 30
0.0
  0
VERTEX
  5
137
  8
L_PLATE
 10
35.07498508402639
 20
-107.4991604131426
 30
0.0
  0
SEQEND
  5
138
  8
L_PLATE
  0
POLYLINE
  5
139
  8
L_PLATE
 66
     1
 10
0.0
 20
0.0
 30
0.0
  0
VERTEX
  5
13A
  8
L_PLATE
 10
50.67575547943176
 20
-112.5004055290798
 30
0.0
  0
VERTEX
  5
13B
  8
L_PLATE
 10
50.67575547943176
 20
-116.0002780325451
 30
0.0
  0
SEQEND
  5
13C
  8
L_PLATE
  0
POLYLINE
  5
13D
  8
L_PLATE
 66
     1
 10
0.0
 20
0.0
 30
0.0
  0
VERTEX
  5
13E
  8
L_PLATE
 10
35.87528076524993
 20
-116.0002780325451
 30
0.0
  0
VERTEX
  5
13F
  8
L_PLATE
 10
35.87528076524993
 20
-116.9986667041705
 30
0.0
  0
SEQEND
  5
140
  8
L_PLATE
  0
POLYLINE
  5
141
  8
L_PLATE
 66
     1
 10
0.0
 20
0.0
 30
0.0
  0
VERTEX
  5
142
  8
L_PLATE
 10
49.87545979820821
 20
-116.9986667041705
 30
0.0
  0
VERTEX
  5
143
  8
L_PLATE
 10
35.87528076524993
 20
-116.9986667041705
 30
0.0
  0
SEQEND
  5
144
  8
L_PLATE
  0
POLYLINE
  5
145
  8
L_PLATE
 66
     1
 10
0.0
 20
0.0
 30
0.0
  0
VERTEX
  5
146
  8
L_PLATE
 10
38.80120036087261
 20
-69.50079073948245
 30
0.0
  0
VERTEX
  5
147
  8
L_PLATE
 10
38.80120036087261
 20
-66.00057372646862
 30
0.0
  0
SEQEND
  5
148
  8
L_PLATE
  0
POLYLINE
  5
149
  8
L_PLATE
 66
     1
 10
0.0
 20
0.0
 30
0.0
  0
VERTEX
  5
14A
  8
L_PLATE
 10
23.20077447501578
 20
-77.99949679204526
 30
0.0
  0
VERTEX
  5
14B
  8
L_PLATE
 10
23.20077447501578
 20
-74.49927977903144
 30
0.0
  0
SEQEND
  5
14C
  8
L_PLATE
  0
POLYLINE
  5
14D
  8
L_PLATE
 66
     1
 10
0.0
 20
0.0
 30
0.0
  0
VERTEX
  5
14E
  8
L_PLATE
 10
23.20077447501578
 20
-74.49927977903144
 30
0.0
  0
VERTEX
  5
14F
  8
L_PLATE
 10
24.0007256466908
 20
-74.49927977903144
 30
0.0
  0
SEQEND
  5
150
  8
L_PLATE
  0
POLYLINE
  5
151
  8
L_PLATE
 66
     1
 10
0.0
 20
0.0
 30
0.0
  0
VERTEX
  5
152
  8
L_PLATE
 10
23.20077447501578
 20
-77.99949679204526
 30
0.0
  0
VERTEX
  5
153
  8
L_PLATE
 10
24.0007256466908
 20
-77.99949679204526
 30
0.0
  0
SEQEND
  5
154
  8
L_PLATE
  0
POLYLINE
  5
155
  8
L_PLATE
 66
     1
 10
0.0
 20
0.0
 30
0.0
  0
VERTEX
  5
156
  8
L_PLATE
 10
23.20077447501578
 20
-69.50079073948245
 30
0.0
  0
VERTEX
  5
157
  8
L_PLATE
 10
24.0007256466908
 20
-69.50079073948245
 30
0.0
  0
SEQEND
  5
158
  8
L_PLATE
  0
POLYLINE
  5
159
  8
L_PLATE
 66
     1
 10
0.0
 20
0.0
 30
0.0
  0
VERTEX
  5
15A
  8
L_PLATE
 10
23.20077447501578
 20
-66.00057372646862
 30
0.0
  0
VERTEX
  5
15B
  8
L_PLATE
 10
24.0007256466908
 20
-66.00057372646862
 30
0.0
  0
SEQEND
  5
15C
  8
L_PLATE
  0
POLYLINE
  5
15D
  8
L_PLATE
 66
     1
 10
0.0
 20
0.0
 30
0.0
  0
VERTEX
  5
15E
  8
L_PLATE
 10
38.00124918919761
 20
-66.00057372646862
 30
0.0
  0
VERTEX
  5
15F
  8
L_PLATE
 10
38.80120036087261
 20
-66.00057372646862
 30
0.0
  0
SEQEND
  5
160
  8
L_PLATE
  0
POLYLINE
  5
161
  8
L_PLATE
 66
     1
 10
0.0
 20
0.0
 30
0.0
  0
VERTEX
  5
162
  8
L_PLATE
 10
38.00124918919761
 20
-69.50079073948245
 30
0.0
  0
VERTEX
  5
163
  8
L_PLATE
 10
38.80120036087261
 20
-69.50079073948245
 30
0.0
  0
SEQEND
  5
164
  8
L_PLATE
  0
POLYLINE
  5
165
  8
L_PLATE
 66
     1
 10
0.0
 20
0.0
 30
0.0
  0
VERTEX
  5
166
  8
L_PLATE
 10
38.00124918919761
 20
-77.99949679204526
 30
0.0
  0
VERTEX
  5
167
  8
L_PLATE
 10
38.80120036087261
 20
-77.99949679204526
 30
0.0
  0
SEQEND
  5
168
  8
L_PLATE
  0
POLYLINE
  5
169
  8
L_PLATE
 66
     1
 10
0.0
 20
0.0
 30
0.0
  0
VERTEX
  5
16A
  8
L_PLATE
 10
38.00124918919761
 20
-74.49927977903144
 30
0.0
  0
VERTEX
  5
16B
  8
L_PLATE
 10
38.80120036087261
 20
-74.49927977903144
 30
0.0
  0
SEQEND
  5
16C
  8
L_PLATE
  0
POLYLINE
  5
16D
  8
L_PLATE
 66
     1
 10
0.0
 20
0.0
 30
0.0
  0
VERTEX
  5
16E
  8
L_PLATE
 10
24.0007256466908
 20
-66.00057372646862
 30
0.0
  0
VERTEX
  5
16F
  8
L_PLATE
 10
24.0007256466908
 20
-64.99977348800354
 30
0.0
  0
SEQEND
  5
170
  8
L_PLATE
  0
POLYLINE
  5
171
  8
L_PLATE
 66
     1
 10
0.0
 20
0.0
 30
0.0
  0
VERTEX
  5
172
  8
L_PLATE
 10
24.0007256466908
 20
-79.00029703051035
 30
0.0
  0
VERTEX
  5
173
  8
L_PLATE
 10
24.0007256466908
 20
-77.99949679204526
 30
0.0
  0
SEQEND
  5
174
  8
L_PLATE
  0
POLYLINE
  5
175
  8
L_PLATE
 66
     1
 10
0.0
 20
0.0
 30
0.0
  0
VERTEX
  5
176
  8
L_PLATE
 10
24.0007256466908
 20
-69.50079073948245
 30
0.0
  0
VERTEX
  5
177
  8
L_PLATE
 10
24.0007256466908
 20
-74.49927977903144
 30
0.0
  0
SEQEND
  5
178
  8
L_PLATE
  0
POLYLINE
  5
179
  8
L_PLATE
 66
     1
 10
0.0
 20
0.0
 30
0.0
  0
VERTEX
  5
17A
  8
L_PLATE
 10
24.0007256466908
 20
-79.00029703051035
 30
0.0
  0
VERTEX
  5
17B
  8
L_PLATE
 10
38.00124918919761
 20
-79.00029703051035
 30
0.0
  0
SEQEND
  5
17C
  8
L_PLATE
  0
POLYLINE
  5
17D
  8
L_PLATE
 66
     1
 10
0.0
 20
0.0
 30
0.0
  0
VERTEX
  5
17E
  8
L_PLATE
 10
38.00124918919761
 20
-69.50079073948245
 30
0.0
  0
VERTEX
  5
17F
  8
L_PLATE
 10
38.00124918919761
 20
-74.49927977903144
 30
0.0
  0
SEQEND
  5
180
  8
L_PLATE
  0
POLYLINE
  5
181
  8
L_PLATE
 66
     1
 10
0.0
 20
0.0
 30
0.0
  0
VERTEX
  5
182
  8
L_PLATE
 10
38.00124918919761
 20
-79.00029703051035
 30
0.0
  0
VERTEX
  5
183
  8
L_PLATE
 10
38.00124918919761
 20
-77.99949679204526
 30
0.0
  0
SEQEND
  5
184
  8
L_PLATE
  0
POLYLINE
  5
185
  8
L_PLATE
 66
     1
 10
0.0
 20
0.0
 30
0.0
  0
VERTEX
  5
186
  8
L_PLATE
 10
38.80120036087261
 20
-77.99949679204526
 30
0.0
  0
VERTEX
  5
187
  8
L_PLATE
 10
38.80120036087261
 20
-74.49927977903144
 30
0.0
  0
SEQEND
  5
188
  8
L_PLATE
  0
POLYLINE
  5
189
  8
L_PLATE
 66
     1
 10
0.0
 20
0.0
 30
0.0
  0
VERTEX
  5
18A
  8
L_PLATE
 10
23.20077447501578
 20
-69.50079073948245
 30
0.0
  0
VERTEX
  5
18B
  8
L_PLATE
 10
23.20077447501578
 20
-66.00057372646862
 30
0.0
  0
SEQEND
  5
18C
  8
L_PLATE
  0
POLYLINE
  5
18D
  8
L_PLATE
 66
     1
 10
0.0
 20
0.0
 30
0.0
  0
VERTEX
  5
18E
  8
L_PLATE
 10
38.00124918919761
 20
-66.00057372646862
 30
0.0
  0
VERTEX
  5
18F
  8
L_PLATE
 10
38.00124918919761
 20
-64.99977348800354
 30
0.0
  0
SEQEND
  5
190
  8
L_PLATE
  0
POLYLINE
  5
191
  8
L_PLATE
 66
     1
 10
0.0
 20
0.0
 30
0.0
  0
VERTEX
  5
192
  8
L_PLATE
 10
24.0007256466908
 20
-64.99977348800354
 30
0.0
  0
VERTEX
  5
193
  8
L_PLATE
 10
38.00124918919761
 20
-64.99977348800354
 30
0.0
  0
SEQEND
  5
194
  8
L_PLATE
  0
POLYLINE
  5
195
  8
L_PLATE
 66
     1
 10
0.0
 20
0.0
 30
0.0
  0
VERTEX
  5
196
  8
L_PLATE
 10
38.80120036087261
 20
-50.49902208103845
 30
0.0
  0
VERTEX
  5
197
  8
L_PLATE
 10
38.80120036087261
 20
-46.99880506802461
 30
0.0
  0
SEQEND
  5
198
  8
L_PLATE
  0
POLYLINE
  5
199
  8
L_PLATE
 66
     1
 10
0.0
 20
0.0
 30
0.0
  0
VERTEX
  5
19A
  8
L_PLATE
 10
23.20077447501578
 20
-59.00048420998948
 30
0.0
  0
VERTEX
  5
19B
  8
L_PLATE
 10
23.20077447501578
 20
-55.50026719697564
 30
0.0
  0
SEQEND
  5
19C
  8
L_PLATE
  0
POLYLINE
  5
19D
  8
L_PLATE
 66
     1
 10
0.0
 20
0.0
 30
0.0
  0
VERTEX
  5
19E
  8
L_PLATE
 10
23.20077447501578
 20
-55.50026719697564
 30
0.0
  0
VERTEX
  5
19F
  8
L_PLATE
 10
24.0007256466908
 20
-55.50026719697564
 30
0.0
  0
SEQEND
  5
1A0
  8
L_PLATE
  0
POLYLINE
  5
1A1
  8
L_PLATE
 66
     1
 10
0.0
 20
0.0
 30
0.0
  0
VERTEX
  5
1A2
  8
L_PLATE
 10
23.20077447501578
 20
-59.00048420998948
 30
0.0
  0
VERTEX
  5
1A3
  8
L_PLATE
 10
24.0007256466908
 20
-59.00048420998948
 30
0.0
  0
SEQEND
  5
1A4
  8
L_PLATE
  0
POLYLINE
  5
1A5
  8
L_PLATE
 66
     1
 10
0.0
 20
0.0
 30
0.0
  0
VERTEX
  5
1A6
  8
L_PLATE
 10
23.20077447501578
 20
-50.49902208103845
 30
0.0
  0
VERTEX
  5
1A7
  8
L_PLATE
 10
24.0007256466908
 20
-50.49902208103845
 30
0.0
  0
SEQEND
  5
1A8
  8
L_PLATE
  0
POLYLINE
  5
1A9
  8
L_PLATE
 66
     1
 10
0.0
 20
0.0
 30
0.0
  0
VERTEX
  5
1AA
  8
L_PLATE
 10
23.20077447501578
 20
-46.99880506802461
 30
0.0
  0
VERTEX
  5
1AB
  8
L_PLATE
 10
24.0007256466908
 20
-46.99880506802461
 30
0.0
  0
SEQEND
  5
1AC
  8
L_PLATE
  0
POLYLINE
  5
1AD
  8
L_PLATE
 66
     1
 10
0.0
 20
0.0
 30
0.0
  0
VERTEX
  5
1AE
  8
L_PLATE
 10
38.00124918919761
 20
-46.99880506802461
 30
0.0
  0
VERTEX
  5
1AF
  8
L_PLATE
 10
38.80120036087261
 20
-46.99880506802461
 30
0.0
  0
SEQEND
  5
1B0
  8
L_PLATE
  0
POLYLINE
  5
1B1
  8
L_PLATE
 66
     1
 10
0.0
 20
0.0
 30
0.0
  0
VERTEX
  5
1B2
  8
L_PLATE
 10
38.00124918919761
 20
-50.49902208103845
 30
0.0
  0
VERTEX
  5
1B3
  8
L_PLATE
 10
38.80120036087261
 20
-50.49902208103845
 30
0.0
  0
SEQEND
  5
1B4
  8
L_PLATE
  0
POLYLINE
  5
1B5
  8
L_PLATE
 66
     1
 10
0.0
 20
0.0
 30
0.0
  0
VERTEX
  5
1B6
  8
L_PLATE
 10
38.00124918919761
 20
-59.00048420998948
 30
0.0
  0
VERTEX
  5
1B7
  8
L_PLATE
 10
38.80120036087261
 20
-59.00048420998948
 30
0.0
  0
SEQEND
  5
1B8
  8
L_PLATE
  0
POLYLINE
  5
1B9
  8
L_PLATE
 66
     1
 10
0.0
 20
0.0
 30
0.0
  0
VERTEX
  5
1BA
  8
L_PLATE
 10
38.00124918919761
 20
-55.50026719697564
 30
0.0
  0
VERTEX
  5
1BB
  8
L_PLATE
 10
38.80120036087261
 20
-55.50026719697564
 30
0.0
  0
SEQEND
  5
1BC
  8
L_PLATE
  0
POLYLINE
  5
1BD
  8
L_PLATE
 66
     1
 10
0.0
 20
0.0
 30
0.0
  0
VERTEX
  5
1BE
  8
L_PLATE
 10
24.0007256466908
 20
-46.99880506802461
 30
0.0
  0
VERTEX
  5
1BF
  8
L_PLATE
 10
24.0007256466908
 20
-46.00076090594774
 30
0.0
  0
SEQEND
  5
1C0
  8
L_PLATE
  0
POLYLINE
  5
1C1
  8
L_PLATE
 66
     1
 10
0.0
 20
0.0
 30
0.0
  0
VERTEX
  5
1C2
  8
L_PLATE
 10
24.0007256466908
 20
-59.99852837206635
 30
0.0
  0
VERTEX
  5
1C3
  8
L_PLATE
 10
24.0007256466908
 20
-59.00048420998948
 30
0.0
  0
SEQEND
  5
1C4
  8
L_PLATE
  0
POLYLINE
  5
1C5
  8
L_PLATE
 66
     1
 10
0.0
 20
0.0
 30
0.0
  0
VERTEX
  5
1C6
  8
L_PLATE
 10
24.0007256466908
 20
-50.49902208103845
 30
0.0
  0
VERTEX
  5
1C7
  8
L_PLATE
 10
24.0007256466908
 20
-55.50026719697564
 30
0.0
  0
SEQEND
  5
1C8
  8
L_PLATE
  0
POLYLINE
  5
1C9
  8
L_PLATE
 66
     1
 10
0.0
 20
0.0
 30
0.0
  0
VERTEX
  5
1CA
  8
L_PLATE
 10
24.0007256466908
 20
-59.99852837206635
 30
0.0
  0
VERTEX
  5
1CB
  8
L_PLATE
 10
38.00124918919761
 20
-59.99852837206635
 30
0.0
  0
SEQEND
  5
1CC
  8
L_PLATE
  0
POLYLINE
  5
1CD
  8
L_PLATE
 66
     1
 10
0.0
 20
0.0
 30
0.0
  0
VERTEX
  5
1CE
  8
L_PLATE
 10
38.00124918919761
 20
-50.49902208103845
 30
0.0
  0
VERTEX
  5
1CF
  8
L_PLATE
 10
38.00124918919761
 20
-55.50026719697564
 30
0.0
  0
SEQEND
  5
1D0
  8
L_PLATE
  0
POLYLINE
  5
1D1
  8
L_PLATE
 66
     1
 10
0.0
 20
0.0
 30
0.0
  0
VERTEX
  5
1D2
  8
L_PLATE
 10
38.00124918919761
 20
-59.99852837206635
 30
0.0
  0
VERTEX
  5
1D3
  8
L_PLATE
 10
38.00124918919761
 20
-59.00048420998948
 30
0.0
  0
SEQEND
  5
1D4
  8
L_PLATE
  0
POLYLINE
  5
1D5
  8
L_PLATE
 66
     1
 10
0.0
 20
0.0
 30
0.0
  0
VERTEX
  5
1D6
  8
L_PLATE
 10
38.80120036087261
 20
-59.00048420998948
 30
0.0
  0
VERTEX
  5
1D7
  8
L_PLATE
 10
38.80120036087261
 20
-55.50026719697564
 30
0.0
  0
SEQEND
  5
1D8
  8
L_PLATE
  0
POLYLINE
  5
1D9
  8
L_PLATE
 66
     1
 10
0.0
 20
0.0
 30
0.0
  0
VERTEX
  5
1DA
  8
L_PLATE
 10
23.20077447501578
 20
-50.49902208103845
 30
0.0
  0
VERTEX
  5
1DB
  8
L_PLATE
 10
23.20077447501578
 20
-46.99880506802461
 30
0.0
  0
SEQEND
  5
1DC
  8
L_PLATE
  0
POLYLINE
  5
1DD
  8
L_PLATE
 66
     1
 10
0.0
 20
0.0
 30
0.0
  0
VERTEX
  5
1DE
  8
L_PLATE
 10
38.00124918919761
 20
-46.99880506802461
 30
0.0
  0
VERTEX
  5
1DF
  8
L_PLATE
 10
38.00124918919761
 20
-46.00076090594774
 30
0.0
  0
SEQEND
  5
1E0
  8
L_PLATE
  0
POLYLINE
  5
1E1
  8
L_PLATE
 66
     1
 10
0.0
 20
0.0
 30
0.0
  0
VERTEX
  5
1E2
  8
L_PLATE
 10
24.0007256466908
 20
-46.00076090594774
 30
0.0
  0
VERTEX
  5
1E3
  8
L_PLATE
 10
38.00124918919761
 20
-46.00076090594774
 30
0.0
  0
SEQEND
  5
1E4
  8
L_PLATE
  0
POLYLINE
  5
1E5
  8
L_PLATE
 66
     1
 10
0.0
 20
0.0
 30
0.0
  0
VERTEX
  5
1E6
  8
L_PLATE
 10
152.8011325155324
 20
-124.4993285946564
 30
0.0
  0
VERTEX
  5
1E7
  8
L_PLATE
 10
152.8011325155324
 20
-120.9991115816426
 30
0.0
  0
SEQEND
  5
1E8
  8
L_PLATE
  0
POLYLINE
  5
1E9
  8
L_PLATE
 66
     1
 10
0.0
 20
0.0
 30
0.0
  0
VERTEX
  5
1EA
  8
L_PLATE
 10
137.2007066296755
 20
-133.0004462140589
 30
0.0
  0
VERTEX
  5
1EB
  8
L_PLATE
 10
137.2007066296755
 20
-129.5002292010451
 30
0.0
  0
SEQEND
  5
1EC
  8
L_PLATE
  0
POLYLINE
  5
1ED
  8
L_PLATE
 66
     1
 10
0.0
 20
0.0
 30
0.0
  0
VERTEX
  5
1EE
  8
L_PLATE
 10
137.2007066296755
 20
-129.5002292010451
 30
0.0
  0
VERTEX
  5
1EF
  8
L_PLATE
 10
138.0006578013505
 20
-129.5002292010451
 30
0.0
  0
SEQEND
  5
1F0
  8
L_PLATE
  0
POLYLINE
  5
1F1
  8
L_PLATE
 66
     1
 10
0.0
 20
0.0
 30
0.0
  0
VERTEX
  5
1F2
  8
L_PLATE
 10
137.2007066296755
 20
-133.0004462140589
 30
0.0
  0
VERTEX
  5
1F3
  8
L_PLATE
 10
138.0006578013505
 20
-133.0004462140589
 30
0.0
  0
SEQEND
  5
1F4
  8
L_PLATE
  0
POLYLINE
  5
1F5
  8
L_PLATE
 66
     1
 10
0.0
 20
0.0
 30
0.0
  0
VERTEX
  5
1F6
  8
L_PLATE
 10
137.2007066296755
 20
-124.4993285946564
 30
0.0
  0
VERTEX
  5
1F7
  8
L_PLATE
 10
138.0006578013505
 20
-124.4993285946564
 30
0.0
  0
SEQEND
  5
1F8
  8
L_PLATE
  0
POLYLINE
  5
1F9
  8
L_PLATE
 66
     1
 10
0.0
 20
0.0
 30
0.0
  0
VERTEX
  5
1FA
  8
L_PLATE
 10
137.2007066296755
 20
-120.9991115816426
 30
0.0
  0
VERTEX
  5
1FB
  8
L_PLATE
 10
138.0006578013505
 20
-120.9991115816426
 30
0.0
  0
SEQEND
  5
1FC
  8
L_PLATE
  0
POLYLINE
  5
1FD
  8
L_PLATE
 66
     1
 10
0.0
 20
0.0
 30
0.0
  0
VERTEX
  5
1FE
  8
L_PLATE
 10
152.0011813438574
 20
-120.9991115816426
 30
0.0
  0
VERTEX
  5
1FF
  8
L_PLATE
 10
152.8011325155324
 20
-120.9991115816426
 30
0.0
  0
SEQEND
  5
200
  8
L_PLATE
  0
POLYLINE
  5
201
  8
L_PLATE
 66
     1
 10
0.0
 20
0.0
 30
0.0
  0
VERTEX
  5
202
  8
L_PLATE
 10
152.0011813438574
 20
-124.4993285946564
 30
0.0
  0
VERTEX
  5
203
  8
L_PLATE
 10
152.8011325155324
 20
-124.4993285946564
 30
0.0
  0
SEQEND
  5
204
  8
L_PLATE
  0
POLYLINE
  5
205
  8
L_PLATE
 66
     1
 10
0.0
 20
0.0
 30
0.0
  0
VERTEX
  5
206
  8
L_PLATE
 10
152.0011813438574
 20
-133.0004462140589
 30
0.0
  0
VERTEX
  5
207
  8
L_PLATE
 10
152.8011325155324
 20
-133.0004462140589
 30
0.0
  0
SEQEND
  5
208
  8
L_PLATE
  0
POLYLINE
  5
209
  8
L_PLATE
 66
     1
 10
0.0
 20
0.0
 30
0.0
  0
VERTEX
  5
20A
  8
L_PLATE
 10
152.0011813438574
 20
-129.5002292010451
 30
0.0
  0
VERTEX
  5
20B
  8
L_PLATE
 10
152.8011325155324
 20
-129.5002292010451
 30
0.0
  0
SEQEND
  5
20C
  8
L_PLATE
  0
POLYLINE
  5
20D
  8
L_PLATE
 66
     1
 10
0.0
 20
0.0
 30
0.0
  0
VERTEX
  5
20E
  8
L_PLATE
 10
138.0006578013505
 20
-120.9991115816426
 30
0.0
  0
VERTEX
  5
20F
  8
L_PLATE
 10
138.0006578013505
 20
-119.9983113431775
 30
0.0
  0
SEQEND
  5
210
  8
L_PLATE
  0
POLYLINE
  5
211
  8
L_PLATE
 66
     1
 10
0.0
 20
0.0
 30
0.0
  0
VERTEX
  5
212
  8
L_PLATE
 10
138.0006578013505
 20
-133.9988348856843
 30
0.0
  0
VERTEX
  5
213
  8
L_PLATE
 10
138.0006578013505
 20
-133.0004462140589
 30
0.0
  0
SEQEND
  5
214
  8
L_PLATE
  0
POLYLINE
  5
215
  8
L_PLATE
 66
     1
 10
0.0
 20
0.0
 30
0.0
  0
VERTEX
  5
216
  8
L_PLATE
 10
138.0006578013505
 20
-124.4993285946564
 30
0.0
  0
VERTEX
  5
217
  8
L_PLATE
 10
138.0006578013505
 20
-129.5002292010451
 30
0.0
  0
SEQEND
  5
218
  8
L_PLATE
  0
POLYLINE
  5
219
  8
L_PLATE
 66
     1
 10
0.0
 20
0.0
 30
0.0
  0
VERTEX
  5
21A
  8
L_PLATE
 10
138.0006578013505
 20
-133.9988348856843
 30
0.0
  0
VERTEX
  5
21B
  8
L_PLATE
 10
152.0011813438574
 20
-133.9988348856843
 30
0.0
  0
SEQEND
  5
21C
  8
L_PLATE
  0
POLYLINE
  5
21D
  8
L_PLATE
 66
     1
 10
0.0
 20
0.0
 30
0.0
  0
VERTEX
  5
21E
  8
L_PLATE
 10
152.0011813438574
 20
-124.4993285946564
 30
0.0
  0
VERTEX
  5
21F
  8
L_PLATE
 10
152.0011813438574
 20
-129.5002292010451
 30
0.0
  0
SEQEND
  5
220
  8
L_PLATE
  0
POLYLINE
  5
221
  8
L_PLATE
 66
     1
 10
0.0
 20
0.0
 30
0.0
  0
VERTEX
  5
222
  8
L_PLATE
 10
152.0011813438574
 20
-133.9988348856843
 30
0.0
  0
VERTEX
  5
223
  8
L_PLATE
 10
152.0011813438574
 20
-133.0004462140589
 30
0.0
  0
SEQEND
  5
224
  8
L_PLATE
  0
POLYLINE
  5
225
  8
L_PLATE
 66
     1
 10
0.0
 20
0.0
 30
0.0
  0
VERTEX
  5
226
  8
L_PLATE
 10
152.8011325155324
 20
-133.0004462140589
 30
0.0
  0
VERTEX
  5
227
  8
L_PLATE
 10
152.8011325155324
 20
-129.5002292010451
 30
0.0
  0
SEQEND
  5
228
  8
L_PLATE
  0
POLYLINE
  5
229
  8
L_PLATE
 66
     1
 10
0.0
 20
0.0
 30
0.0
  0
VERTEX
  5
22A
  8
L_PLATE
 10
137.2007066296755
 20
-124.4993285946564
 30
0.0
  0
VERTEX
  5
22B
  8
L_PLATE
 10
137.2007066296755
 20
-120.9991115816426
 30
0.0
  0
SEQEND
  5
22C
  8
L_PLATE
  0
POLYLINE
  5
22D
  8
L_PLATE
 66
     1
 10
0.0
 20
0.0
 30
0.0
  0
VERTEX
  5
22E
  8
L_PLATE
 10
152.0011813438574
 20
-120.9991115816426
 30
0.0
  0
VERTEX
  5
22F
  8
L_PLATE
 10
152.0011813438574
 20
-119.9983113431775
 30
0.0
  0
SEQEND
  5
230
  8
L_PLATE
  0
POLYLINE
  5
231
  8
L_PLATE
 66
     1
 10
0.0
 20
0.0
 30
0.0
  0
VERTEX
  5
232
  8
L_PLATE
 10
138.0006578013505
 20
-119.9983113431775
 30
0.0
  0
VERTEX
  5
233
  8
L_PLATE
 10
152.0011813438574
 20
-119.9983113431775
 30
0.0
  0
SEQEND
  5
234
  8
L_PLATE
  0
POLYLINE
  5
235
  8
L_PLATE
 66
     1
 10
0.0
 20
0.0
 30
0.0
  0
VERTEX
  5
236
  8
L_PLATE
 10
133.7993638570884
 20
-120.4985392076358
 30
0.0
  0
VERTEX
  5
237
  8
L_PLATE
 10
133.7993638570884
 20
-116.9986667041705
 30
0.0
  0
SEQEND
  5
238
  8
L_PLATE
  0
POLYLINE
  5
239
  8
L_PLATE
 66
     1
 10
0.0
 20
0.0
 30
0.0
  0
VERTEX
  5
23A
  8
L_PLATE
 10
118.1989379712315
 20
-129.0000013365868
 30
0.0
  0
VERTEX
  5
23B
  8
L_PLATE
 10
118.1989379712315
 20
-125.499784323573
 30
0.0
  0
SEQEND
  5
23C
  8
L_PLATE
  0
POLYLINE
  5
23D
  8
L_PLATE
 66
     1
 10
0.0
 20
0.0
 30
0.0
  0
VERTEX
  5
23E
  8
L_PLATE
 10
118.1989379712315
 20
-125.499784323573
 30
0.0
  0
VERTEX
  5
23F
  8
L_PLATE
 10
118.9988891429065
 20
-125.499784323573
 30
0.0
  0
SEQEND
  5
240
  8
L_PLATE
  0
POLYLINE
  5
241
  8
L_PLATE
 66
     1
 10
0.0
 20
0.0
 30
0.0
  0
VERTEX
  5
242
  8
L_PLATE
 10
118.1989379712315
 20
-129.0000013365868
 30
0.0
  0
VERTEX
  5
243
  8
L_PLATE
 10
118.9988891429065
 20
-129.0000013365868
 30
0.0
  0
SEQEND
  5
244
  8
L_PLATE
  0
POLYLINE
  5
245
  8
L_PLATE
 66
     1
 10
0.0
 20
0.0
 30
0.0
  0
VERTEX
  5
246
  8
L_PLATE
 10
118.1989379712315
 20
-120.4985392076358
 30
0.0
  0
VERTEX
  5
247
  8
L_PLATE
 10
118.9988891429065
 20
-120.4985392076358
 30
0.0
  0
SEQEND
  5
248
  8
L_PLATE
  0
POLYLINE
  5
249
  8
L_PLATE
 66
     1
 10
0.0
 20
0.0
 30
0.0
  0
VERTEX
  5
24A
  8
L_PLATE
 10
118.1989379712315
 20
-116.9986667041705
 30
0.0
  0
VERTEX
  5
24B
  8
L_PLATE
 10
118.9988891429065
 20
-116.9986667041705
 30
0.0
  0
SEQEND
  5
24C
  8
L_PLATE
  0
POLYLINE
  5
24D
  8
L_PLATE
 66
     1
 10
0.0
 20
0.0
 30
0.0
  0
VERTEX
  5
24E
  8
L_PLATE
 10
132.9994126854133
 20
-116.9986667041705
 30
0.0
  0
VERTEX
  5
24F
  8
L_PLATE
 10
133.7993638570884
 20
-116.9986667041705
 30
0.0
  0
SEQEND
  5
250
  8
L_PLATE
  0
POLYLINE
  5
251
  8
L_PLATE
 66
     1
 10
0.0
 20
0.0
 30
0.0
  0
VERTEX
  5
252
  8
L_PLATE
 10
132.9994126854133
 20
-120.4985392076358
 30
0.0
  0
VERTEX
  5
253
  8
L_PLATE
 10
133.7993638570884
 20
-120.4985392076358
 30
0.0
  0
SEQEND
  5
254
  8
L_PLATE
  0
POLYLINE
  5
255
  8
L_PLATE
 66
     1
 10
0.0
 20
0.0
 30
0.0
  0
VERTEX
  5
256
  8
L_PLATE
 10
132.9994126854133
 20
-129.0000013365868
 30
0.0
  0
VERTEX
  5
257
  8
L_PLATE
 10
133.7993638570884
 20
-129.0000013365868
 30
0.0
  0
SEQEND
  5
258
  8
L_PLATE
  0
POLYLINE
  5
259
  8
L_PLATE
 66
     1
 10
0.0
 20
0.0
 30
0.0
  0
VERTEX
  5
25A
  8
L_PLATE
 10
132.9994126854133
 20
-125.499784323573
 30
0.0
  0
VERTEX
  5
25B
  8
L_PLATE
 10
133.7993638570884
 20
-125.499784323573
 30
0.0
  0
SEQEND
  5
25C
  8
L_PLATE
  0
POLYLINE
  5
25D
  8
L_PLATE
 66
     1
 10
0.0
 20
0.0
 30
0.0
  0
VERTEX
  5
25E
  8
L_PLATE
 10
118.9988891429065
 20
-116.9986667041705
 30
0.0
  0
VERTEX
  5
25F
  8
L_PLATE
 10
118.9988891429065
 20
-116.0002780325451
 30
0.0
  0
SEQEND
  5
260
  8
L_PLATE
  0
POLYLINE
  5
261
  8
L_PLATE
 66
     1
 10
0.0
 20
0.0
 30
0.0
  0
VERTEX
  5
262
  8
L_PLATE
 10
118.9988891429065
 20
-129.9980454986637
 30
0.0
  0
VERTEX
  5
263
  8
L_PLATE
 10
118.9988891429065
 20
-129.0000013365868
 30
0.0
  0
SEQEND
  5
264
  8
L_PLATE
  0
POLYLINE
  5
265
  8
L_PLATE
 66
     1
 10
0.0
 20
0.0
 30
0.0
  0
VERTEX
  5
266
  8
L_PLATE
 10
118.9988891429065
 20
-120.4985392076358
 30
0.0
  0
VERTEX
  5
267
  8
L_PLATE
 10
118.9988891429065
 20
-125.499784323573
 30
0.0
  0
SEQEND
  5
268
  8
L_PLATE
  0
POLYLINE
  5
269
  8
L_PLATE
 66
     1
 10
0.0
 20
0.0
 30
0.0
  0
VERTEX
  5
26A
  8
L_PLATE
 10
118.9988891429065
 20
-129.9980454986637
 30
0.0
  0
VERTEX
  5
26B
  8
L_PLATE
 10
132.9994126854133
 20
-129.9980454986637
 30
0.0
  0
SEQEND
  5
26C
  8
L_PLATE
  0
POLYLINE
  5
26D
  8
L_PLATE
 66
     1
 10
0.0
 20
0.0
 30
0.0
  0
VERTEX
  5
26E
  8
L_PLATE
 10
132.9994126854133
 20
-120.4985392076358
 30
0.0
  0
VERTEX
  5
26F
  8
L_PLATE
 10
132.9994126854133
 20
-125.499784323573
 30
0.0
  0
SEQEND
  5
270
  8
L_PLATE
  0
POLYLINE
  5
271
  8
L_PLATE
 66
     1
 10
0.0
 20
0.0
 30
0.0
  0
VERTEX
  5
272
  8
L_PLATE
 10
132.9994126854133
 20
-129.9980454986637
 30
0.0
  0
VERTEX
  5
273
  8
L_PLATE
 10
132.9994126854133
 20
-129.0000013365868
 30
0.0
  0
SEQEND
  5
274
  8
L_PLATE
  0
POLYLINE
  5
275
  8
L_PLATE
 66
     1
 10
0.0
 20
0.0
 30
0.0
  0
VERTEX
  5
276
  8
L_PLATE
 10
133.7993638570884
 20
-129.0000013365868
 30
0.0
  0
VERTEX
  5
277
  8
L_PLATE
 10
133.7993638570884
 20
-125.499784323573
 30
0.0
  0
SEQEND
  5
278
  8
L_PLATE
  0
POLYLINE
  5
279
  8
L_PLATE
 66
     1
 10
0.0
 20
0.0
 30
0.0
  0
VERTEX
  5
27A
  8
L_PLATE
 10
118.1989379712315
 20
-120.4985392076358
 30
0.0
  0
VERTEX
  5
27B
  8
L_PLATE
 10
118.1989379712315
 20
-116.9986667041705
 30
0.0
  0
SEQEND
  5
27C
  8
L_PLATE
  0
POLYLINE
  5
27D
  8
L_PLATE
 66
     1
 10
0.0
 20
0.0
 30
0.0
  0
VERTEX
  5
27E
  8
L_PLATE
 10
132.9994126854133
 20
-116.9986667041705
 30
0.0
  0
VERTEX
  5
27F
  8
L_PLATE
 10
132.9994126854133
 20
-116.0002780325451
 30
0.0
  0
SEQEND
  5
280
  8
L_PLATE
  0
POLYLINE
  5
281
  8
L_PLATE
 66
     1
 10
0.0
 20
0.0
 30
0.0
  0
VERTEX
  5
282
  8
L_PLATE
 10
118.9988891429065
 20
-116.0002780325451
 30
0.0
  0
VERTEX
  5
283
  8
L_PLATE
 10
132.9994126854133
 20
-116.0002780325451
 30
0.0
  0
SEQEND
  5
284
  8
L_PLATE
  0
POLYLINE
  5
285
  8
L_PLATE
 66
     1
 10
0.0
 20
0.0
 30
0.0
  0
VERTEX
  5
286
  8
L_PLATE
 10
114.8003512750325
 20
-113.4984496911567
 30
0.0
  0
VERTEX
  5
287
  8
L_PLATE
 10
114.8003512750325
 20
-109.9982326781428
 30
0.0
  0
SEQEND
  5
288
  8
L_PLATE
  0
POLYLINE
  5
289
  8
L_PLATE
 66
     1
 10
0.0
 20
0.0
 30
0.0
  0
VERTEX
  5
28A
  8
L_PLATE
 10
99.19958087962718
 20
-121.9999118201077
 30
0.0
  0
VERTEX
  5
28B
  8
L_PLATE
 10
99.19958087962718
 20
-118.4996948070938
 30
0.0
  0
SEQEND
  5
28C
  8
L_PLATE
  0
POLYLINE
  5
28D
  8
L_PLATE
 66
     1
 10
0.0
 20
0.0
 30
0.0
  0
VERTEX
  5
28E
  8
L_PLATE
 10
99.19958087962718
 20
-118.4996948070938
 30
0.0
  0
VERTEX
  5
28F
  8
L_PLATE
 10
99.99987656085074
 20
-118.4996948070938
 30
0.0
  0
SEQEND
  5
290
  8
L_PLATE
  0
POLYLINE
  5
291
  8
L_PLATE
 66
     1
 10
0.0
 20
0.0
 30
0.0
  0
VERTEX
  5
292
  8
L_PLATE
 10
99.19958087962718
 20
-121.9999118201077
 30
0.0
  0
VERTEX
  5
293
  8
L_PLATE
 10
99.99987656085074
 20
-121.9999118201077
 30
0.0
  0
SEQEND
  5
294
  8
L_PLATE
  0
POLYLINE
  5
295
  8
L_PLATE
 66
     1
 10
0.0
 20
0.0
 30
0.0
  0
VERTEX
  5
296
  8
L_PLATE
 10
99.19958087962718
 20
-113.4984496911567
 30
0.0
  0
VERTEX
  5
297
  8
L_PLATE
 10
99.99987656085074
 20
-113.4984496911567
 30
0.0
  0
SEQEND
  5
298
  8
L_PLATE
  0
POLYLINE
  5
299
  8
L_PLATE
 66
     1
 10
0.0
 20
0.0
 30
0.0
  0
VERTEX
  5
29A
  8
L_PLATE
 10
99.19958087962718
 20
-109.9982326781428
 30
0.0
  0
VERTEX
  5
29B
  8
L_PLATE
 10
99.99987656085074
 20
-109.9982326781428
 30
0.0
  0
SEQEND
  5
29C
  8
L_PLATE
  0
POLYLINE
  5
29D
  8
L_PLATE
 66
     1
 10
0.0
 20
0.0
 30
0.0
  0
VERTEX
  5
29E
  8
L_PLATE
 10
114.0004001033575
 20
-109.9982326781428
 30
0.0
  0
VERTEX
  5
29F
  8
L_PLATE
 10
114.8003512750325
 20
-109.9982326781428
 30
0.0
  0
SEQEND
  5
2A0
  8
L_PLATE
  0
POLYLINE
  5
2A1
  8
L_PLATE
 66
     1
 10
0.0
 20
0.0
 30
0.0
  0
VERTEX
  5
2A2
  8
L_PLATE
 10
114.0004001033575
 20
-113.4984496911567
 30
0.0
  0
VERTEX
  5
2A3
  8
L_PLATE
 10
114.8003512750325
 20
-113.4984496911567
 30
0.0
  0
SEQEND
  5
2A4
  8
L_PLATE
  0
POLYLINE
  5
2A5
  8
L_PLATE
 66
     1
 10
0.0
 20
0.0
 30
0.0
  0
VERTEX
  5
2A6
  8
L_PLATE
 10
114.0004001033575
 20
-121.9999118201077
 30
0.0
  0
VERTEX
  5
2A7
  8
L_PLATE
 10
114.8003512750325
 20
-121.9999118201077
 30
0.0
  0
SEQEND
  5
2A8
  8
L_PLATE
  0
POLYLINE
  5
2A9
  8
L_PLATE
 66
     1
 10
0.0
 20
0.0
 30
0.0
  0
VERTEX
  5
2AA
  8
L_PLATE
 10
114.0004001033575
 20
-118.4996948070938
 30
0.0
  0
VERTEX
  5
2AB
  8
L_PLATE
 10
114.8003512750325
 20
-118.4996948070938
 30
0.0
  0
SEQEND
  5
2AC
  8
L_PLATE
  0
POLYLINE
  5
2AD
  8
L_PLATE
 66
     1
 10
0.0
 20
0.0
 30
0.0
  0
VERTEX
  5
2AE
  8
L_PLATE
 10
99.99987656085074
 20
-109.9982326781428
 30
0.0
  0
VERTEX
  5
2AF
  8
L_PLATE
 10
99.99987656085074
 20
-109.0001885160659
 30
0.0
  0
SEQEND
  5
2B0
  8
L_PLATE
  0
POLYLINE
  5
2B1
  8
L_PLATE
 66
     1
 10
0.0
 20
0.0
 30
0.0
  0
VERTEX
  5
2B2
  8
L_PLATE
 10
99.99987656085074
 20
-123.0007120585727
 30
0.0
  0
VERTEX
  5
2B3
  8
L_PLATE
 10
99.99987656085074
 20
-121.9999118201077
 30
0.0
  0
SEQEND
  5
2B4
  8
L_PLATE
  0
POLYLINE
  5
2B5
  8
L_PLATE
 66
     1
 10
0.0
 20
0.0
 30
0.0
  0
VERTEX
  5
2B6
  8
L_PLATE
 10
99.99987656085074
 20
-113.4984496911567
 30
0.0
  0
VERTEX
  5
2B7
  8
L_PLATE
 10
99.99987656085074
 20
-118.4996948070938
 30
0.0
  0
SEQEND
  5
2B8
  8
L_PLATE
  0
POLYLINE
  5
2B9
  8
L_PLATE
 66
     1
 10
0.0
 20
0.0
 30
0.0
  0
VERTEX
  5
2BA
  8
L_PLATE
 10
99.99987656085074
 20
-123.0007120585727
 30
0.0
  0
VERTEX
  5
2BB
  8
L_PLATE
 10
114.0004001033575
 20
-123.0007120585727
 30
0.0
  0
SEQEND
  5
2BC
  8
L_PLATE
  0
POLYLINE
  5
2BD
  8
L_PLATE
 66
     1
 10
0.0
 20
0.0
 30
0.0
  0
VERTEX
  5
2BE
  8
L_PLATE
 10
114.0004001033575
 20
-113.4984496911567
 30
0.0
  0
VERTEX
  5
2BF
  8
L_PLATE
 10
114.0004001033575
 20
-118.4996948070938
 30
0.0
  0
SEQEND
  5
2C0
  8
L_PLATE
  0
POLYLINE
  5
2C1
  8
L_PLATE
 66
     1
 10
0.0
 20
0.0
 30
0.0
  0
VERTEX
  5
2C2
  8
L_PLATE
 10
114.0004001033575
 20
-123.0007120585727
 30
0.0
  0
VERTEX
  5
2C3
  8
L_PLATE
 10
114.0004001033575
 20
-121.9999118201077
 30
0.0
  0
SEQEND
  5
2C4
  8
L_PLATE
  0
POLYLINE
  5
2C5
  8
L_PLATE
 66
     1
 10
0.0
 20
0.0
 30
0.0
  0
VERTEX
  5
2C6
  8
L_PLATE
 10
114.8003512750325
 20
-121.9999118201077
 30
0.0
  0
VERTEX
  5
2C7
  8
L_PLATE
 10
114.8003512750325
 20
-118.4996948070938
 30
0.0
  0
SEQEND
  5
2C8
  8
L_PLATE
  0
POLYLINE
  5
2C9
  8
L_PLATE
 66
     1
 10
0.0
 20
0.0
 30
0.0
  0
VERTEX
  5
2CA
  8
L_PLATE
 10
99.19958087962718
 20
-113.4984496911567
 30
0.0
  0
VERTEX
  5
2CB
  8
L_PLATE
 10
99.19958087962718
 20
-109.9982326781428
 30
0.0
  0
SEQEND
  5
2CC
  8
L_PLATE
  0
POLYLINE
  5
2CD
  8
L_PLATE
 66
     1
 10
0.0
 20
0.0
 30
0.0
  0
VERTEX
  5
2CE
  8
L_PLATE
 10
114.0004001033575
 20
-109.9982326781428
 30
0.0
  0
VERTEX
  5
2CF
  8
L_PLATE
 10
114.0004001033575
 20
-109.0001885160659
 30
0.0
  0
SEQEND
  5
2D0
  8
L_PLATE
  0
POLYLINE
  5
2D1
  8
L_PLATE
 66
     1
 10
0.0
 20
0.0
 30
0.0
  0
VERTEX
  5
2D2
  8
L_PLATE
 10
99.99987656085074
 20
-109.0001885160659
 30
0.0
  0
VERTEX
  5
2D3
  8
L_PLATE
 10
114.0004001033575
 20
-109.0001885160659
 30
0.0
  0
SEQEND
  5
2D4
  8
L_PLATE
  0
POLYLINE
  5
2D5
  8
L_PLATE
 66
     1
 10
0.0
 20
0.0
 30
0.0
  0
VERTEX
  5
2D6
  8
L_PLATE
 10
95.80133869297674
 20
-118.4996948070938
 30
0.0
  0
VERTEX
  5
2D7
  8
L_PLATE
 10
95.80133869297674
 20
-114.99947779408
 30
0.0
  0
SEQEND
  5
2D8
  8
L_PLATE
  0
POLYLINE
  5
2D9
  8
L_PLATE
 66
     1
 10
0.0
 20
0.0
 30
0.0
  0
VERTEX
  5
2DA
  8
L_PLATE
 10
80.20056829757138
 20
-126.9984008596567
 30
0.0
  0
VERTEX
  5
2DB
  8
L_PLATE
 10
80.20056829757138
 20
-123.4985283561913
 30
0.0
  0
SEQEND
  5
2DC
  8
L_PLATE
  0
POLYLINE
  5
2DD
  8
L_PLATE
 66
     1
 10
0.0
 20
0.0
 30
0.0
  0
VERTEX
  5
2DE
  8
L_PLATE
 10
80.20056829757138
 20
-123.4985283561913
 30
0.0
  0
VERTEX
  5
2DF
  8
L_PLATE
 10
81.0005194692464
 20
-123.4985283561913
 30
0.0
  0
SEQEND
  5
2E0
  8
L_PLATE
  0
POLYLINE
  5
2E1
  8
L_PLATE
 66
     1
 10
0.0
 20
0.0
 30
0.0
  0
VERTEX
  5
2E2
  8
L_PLATE
 10
80.20056829757138
 20
-126.9984008596567
 30
0.0
  0
VERTEX
  5
2E3
  8
L_PLATE
 10
81.0005194692464
 20
-126.9984008596567
 30
0.0
  0
SEQEND
  5
2E4
  8
L_PLATE
  0
POLYLINE
  5
2E5
  8
L_PLATE
 66
     1
 10
0.0
 20
0.0
 30
0.0
  0
VERTEX
  5
2E6
  8
L_PLATE
 10
80.20056829757138
 20
-118.4996948070938
 30
0.0
  0
VERTEX
  5
2E7
  8
L_PLATE
 10
81.0005194692464
 20
-118.4996948070938
 30
0.0
  0
SEQEND
  5
2E8
  8
L_PLATE
  0
POLYLINE
  5
2E9
  8
L_PLATE
 66
     1
 10
0.0
 20
0.0
 30
0.0
  0
VERTEX
  5
2EA
  8
L_PLATE
 10
80.20056829757138
 20
-114.99947779408
 30
0.0
  0
VERTEX
  5
2EB
  8
L_PLATE
 10
81.0005194692464
 20
-114.99947779408
 30
0.0
  0
SEQEND
  5
2EC
  8
L_PLATE
  0
POLYLINE
  5
2ED
  8
L_PLATE
 66
     1
 10
0.0
 20
0.0
 30
0.0
  0
VERTEX
  5
2EE
  8
L_PLATE
 10
95.00104301175321
 20
-114.99947779408
 30
0.0
  0
VERTEX
  5
2EF
  8
L_PLATE
 10
95.80133869297674
 20
-114.99947779408
 30
0.0
  0
SEQEND
  5
2F0
  8
L_PLATE
  0
POLYLINE
  5
2F1
  8
L_PLATE
 66
     1
 10
0.0
 20
0.0
 30
0.0
  0
VERTEX
  5
2F2
  8
L_PLATE
 10
95.00104301175321
 20
-118.4996948070938
 30
0.0
  0
VERTEX
  5
2F3
  8
L_PLATE
 10
95.80133869297674
 20
-118.4996948070938
 30
0.0
  0
SEQEND
  5
2F4
  8
L_PLATE
  0
POLYLINE
  5
2F5
  8
L_PLATE
 66
     1
 10
0.0
 20
0.0
 30
0.0
  0
VERTEX
  5
2F6
  8
L_PLATE
 10
95.00104301175321
 20
-126.9984008596567
 30
0.0
  0
VERTEX
  5
2F7
  8
L_PLATE
 10
95.80133869297674
 20
-126.9984008596567
 30
0.0
  0
SEQEND
  5
2F8
  8
L_PLATE
  0
POLYLINE
  5
2F9
  8
L_PLATE
 66
     1
 10
0.0
 20
0.0
 30
0.0
  0
VERTEX
  5
2FA
  8
L_PLATE
 10
95.00104301175321
 20
-123.4985283561913
 30
0.0
  0
VERTEX
  5
2FB
  8
L_PLATE
 10
95.80133869297674
 20
-123.4985283561913
 30
0.0
  0
SEQEND
  5
2FC
  8
L_PLATE
  0
POLYLINE
  5
2FD
  8
L_PLATE
 66
     1
 10
0.0
 20
0.0
 30
0.0
  0
VERTEX
  5
2FE
  8
L_PLATE
 10
81.0005194692464
 20
-114.99947779408
 30
0.0
  0
VERTEX
  5
2FF
  8
L_PLATE
 10
81.0005194692464
 20
-113.9990220651634
 30
0.0
  0
SEQEND
  5
300
  8
L_PLATE
  0
POLYLINE
  5
301
  8
L_PLATE
 66
     1
 10
0.0
 20
0.0
 30
0.0
  0
VERTEX
  5
302
  8
L_PLATE
 10
81.0005194692464
 20
-127.9992010981217
 30
0.0
  0
VERTEX
  5
303
  8
L_PLATE
 10
81.0005194692464
 20
-126.9984008596567
 30
0.0
  0
SEQEND
  5
304
  8
L_PLATE
  0
POLYLINE
  5
305
  8
L_PLATE
 66
     1
 10
0.0
 20
0.0
 30
0.0
  0
VERTEX
  5
306
  8
L_PLATE
 10
81.0005194692464
 20
-118.4996948070938
 30
0.0
  0
VERTEX
  5
307
  8
L_PLATE
 10
81.0005194692464
 20
-123.4985283561913
 30
0.0
  0
SEQEND
  5
308
  8
L_PLATE
  0
POLYLINE
  5
309
  8
L_PLATE
 66
     1
 10
0.0
 20
0.0
 30
0.0
  0
VERTEX
  5
30A
  8
L_PLATE
 10
81.0005194692464
 20
-127.9992010981217
 30
0.0
  0
VERTEX
  5
30B
  8
L_PLATE
 10
95.00104301175321
 20
-127.9992010981217
 30
0.0
  0
SEQEND
  5
30C
  8
L_PLATE
  0
POLYLINE
  5
30D
  8
L_PLATE
 66
     1
 10
0.0
 20
0.0
 30
0.0
  0
VERTEX
  5
30E
  8
L_PLATE
 10
95.00104301175321
 20
-118.4996948070938
 30
0.0
  0
VERTEX
  5
30F
  8
L_PLATE
 10
95.00104301175321
 20
-123.4985283561913
 30
0.0
  0
SEQEND
  5
310
  8
L_PLATE
  0
POLYLINE
  5
311
  8
L_PLATE
 66
     1
 10
0.0
 20
0.0
 30
0.0
  0
VERTEX
  5
312
  8
L_PLATE
 10
95.00104301175321
 20
-127.9992010981217
 30
0.0
  0
VERTEX
  5
313
  8
L_PLATE
 10
95.00104301175321
 20
-126.9984008596567
 30
0.0
  0
SEQEND
  5
314
  8
L_PLATE
  0
POLYLINE
  5
315
  8
L_PLATE
 66
     1
 10
0.0
 20
0.0
 30
0.0
  0
VERTEX
  5
316
  8
L_PLATE
 10
95.80133869297674
 20
-126.9984008596567
 30
0.0
  0
VERTEX
  5
317
  8
L_PLATE
 10
95.80133869297674
 20
-123.4985283561913
 30
0.0
  0
SEQEND
  5
318
  8
L_PLATE
  0
POLYLINE
  5
319
  8
L_PLATE
 66
     1
 10
0.0
 20
0.0
 30
0.0
  0
VERTEX
  5
31A
  8
L_PLATE
 10
80.20056829757138
 20
-118.4996948070938
 30
0.0
  0
VERTEX
  5
31B
  8
L_PLATE
 10
80.20056829757138
 20
-114.99947779408
 30
0.0
  0
SEQEND
  5
31C
  8
L_PLATE
  0
POLYLINE
  5
31D
  8
L_PLATE
 66
     1
 10
0.0
 20
0.0
 30
0.0
  0
VERTEX
  5
31E
  8
L_PLATE
 10
95.00104301175321
 20
-114.99947779408
 30
0.0
  0
VERTEX
  5
31F
  8
L_PLATE
 10
95.00104301175321
 20
-113.9990220651634
 30
0.0
  0
SEQEND
  5
320
  8
L_PLATE
  0
POLYLINE
  5
321
  8
L_PLATE
 66
     1
 10
0.0
 20
0.0
 30
0.0
  0
VERTEX
  5
322
  8
L_PLATE
 10
81.0005194692464
 20
-113.9990220651634
 30
0.0
  0
VERTEX
  5
323
  8
L_PLATE
 10
95.00104301175321
 20
-113.9990220651634
 30
0.0
  0
SEQEND
  5
324
  8
L_PLATE
  0
POLYLINE
  5
325
  8
L_PLATE
 66
     1
 10
0.0
 20
0.0
 30
0.0
  0
VERTEX
  5
326
  8
L_PLATE
 10
152.8011325155324
 20
-105.4999715030521
 30
0.0
  0
VERTEX
  5
327
  8
L_PLATE
 10
152.8011325155324
 20
-101.9997544900383
 30
0.0
  0
SEQEND
  5
328
  8
L_PLATE
  0
POLYLINE
  5
329
  8
L_PLATE
 66
     1
 10
0.0
 20
0.0
 30
0.0
  0
VERTEX
  5
32A
  8
L_PLATE
 10
137.2007066296755
 20
-113.9990220651634
 30
0.0
  0
VERTEX
  5
32B
  8
L_PLATE
 10
137.2007066296755
 20
-110.4988050521496
 30
0.0
  0
SEQEND
  5
32C
  8
L_PLATE
  0
POLYLINE
  5
32D
  8
L_PLATE
 66
     1
 10
0.0
 20
0.0
 30
0.0
  0
VERTEX
  5
32E
  8
L_PLATE
 10
137.2007066296755
 20
-110.4988050521496
 30
0.0
  0
VERTEX
  5
32F
  8
L_PLATE
 10
138.0006578013505
 20
-110.4988050521496
 30
0.0
  0
SEQEND
  5
330
  8
L_PLATE
  0
POLYLINE
  5
331
  8
L_PLATE
 66
     1
 10
0.0
 20
0.0
 30
0.0
  0
VERTEX
  5
332
  8
L_PLATE
 10
137.2007066296755
 20
-113.9990220651634
 30
0.0
  0
VERTEX
  5
333
  8
L_PLATE
 10
138.0006578013505
 20
-113.9990220651634
 30
0.0
  0
SEQEND
  5
334
  8
L_PLATE
  0
POLYLINE
  5
335
  8
L_PLATE
 66
     1
 10
0.0
 20
0.0
 30
0.0
  0
VERTEX
  5
336
  8
L_PLATE
 10
137.2007066296755
 20
-105.4999715030521
 30
0.0
  0
VERTEX
  5
337
  8
L_PLATE
 10
138.0006578013505
 20
-105.4999715030521
 30
0.0
  0
SEQEND
  5
338
  8
L_PLATE
  0
POLYLINE
  5
339
  8
L_PLATE
 66
     1
 10
0.0
 20
0.0
 30
0.0
  0
VERTEX
  5
33A
  8
L_PLATE
 10
137.2007066296755
 20
-101.9997544900383
 30
0.0
  0
VERTEX
  5
33B
  8
L_PLATE
 10
138.0006578013505
 20
-101.9997544900383
 30
0.0
  0
SEQEND
  5
33C
  8
L_PLATE
  0
POLYLINE
  5
33D
  8
L_PLATE
 66
     1
 10
0.0
 20
0.0
 30
0.0
  0
VERTEX
  5
33E
  8
L_PLATE
 10
152.0011813438574
 20
-101.9997544900383
 30
0.0
  0
VERTEX
  5
33F
  8
L_PLATE
 10
152.8011325155324
 20
-101.9997544900383
 30
0.0
  0
SEQEND
  5
340
  8
L_PLATE
  0
POLYLINE
  5
341
  8
L_PLATE
 66
     1
 10
0.0
 20
0.0
 30
0.0
  0
VERTEX
  5
342
  8
L_PLATE
 10
152.0011813438574
 20
-105.4999715030521
 30
0.0
  0
VERTEX
  5
343
  8
L_PLATE
 10
152.8011325155324
 20
-105.4999715030521
 30
0.0
  0
SEQEND
  5
344
  8
L_PLATE
  0
POLYLINE
  5
345
  8
L_PLATE
 66
     1
 10
0.0
 20
0.0
 30
0.0
  0
VERTEX
  5
346
  8
L_PLATE
 10
152.0011813438574
 20
-113.9990220651634
 30
0.0
  0
VERTEX
  5
347
  8
L_PLATE
 10
152.8011325155324
 20
-113.9990220651634
 30
0.0
  0
SEQEND
  5
348
  8
L_PLATE
  0
POLYLINE
  5
349
  8
L_PLATE
 66
     1
 10
0.0
 20
0.0
 30
0.0
  0
VERTEX
  5
34A
  8
L_PLATE
 10
152.0011813438574
 20
-110.4988050521496
 30
0.0
  0
VERTEX
  5
34B
  8
L_PLATE
 10
152.8011325155324
 20
-110.4988050521496
 30
0.0
  0
SEQEND
  5
34C
  8
L_PLATE
  0
POLYLINE
  5
34D
  8
L_PLATE
 66
     1
 10
0.0
 20
0.0
 30
0.0
  0
VERTEX
  5
34E
  8
L_PLATE
 10
138.0006578013505
 20
-101.9997544900383
 30
0.0
  0
VERTEX
  5
34F
  8
L_PLATE
 10
138.0006578013505
 20
-100.9992987611217
 30
0.0
  0
SEQEND
  5
350
  8
L_PLATE
  0
POLYLINE
  5
351
  8
L_PLATE
 66
     1
 10
0.0
 20
0.0
 30
0.0
  0
VERTEX
  5
352
  8
L_PLATE
 10
138.0006578013505
 20
-114.99947779408
 30
0.0
  0
VERTEX
  5
353
  8
L_PLATE
 10
138.0006578013505
 20
-113.9990220651634
 30
0.0
  0
SEQEND
  5
354
  8
L_PLATE
  0
POLYLINE
  5
355
  8
L_PLATE
 66
     1
 10
0.0
 20
0.0
 30
0.0
  0
VERTEX
  5
356
  8
L_PLATE
 10
138.0006578013505
 20
-105.4999715030521
 30
0.0
  0
VERTEX
  5
357
  8
L_PLATE
 10
138.0006578013505
 20
-110.4988050521496
 30
0.0
  0
SEQEND
  5
358
  8
L_PLATE
  0
POLYLINE
  5
359
  8
L_PLATE
 66
     1
 10
0.0
 20
0.0
 30
0.0
  0
VERTEX
  5
35A
  8
L_PLATE
 10
138.0006578013505
 20
-114.99947779408
 30
0.0
  0
VERTEX
  5
35B
  8
L_PLATE
 10
152.0011813438574
 20
-114.99947779408
 30
0.0
  0
SEQEND
  5
35C
  8
L_PLATE
  0
POLYLINE
  5
35D
  8
L_PLATE
 66
     1
 10
0.0
 20
0.0
 30
0.0
  0
VERTEX
  5
35E
  8
L_PLATE
 10
152.0011813438574
 20
-105.4999715030521
 30
0.0
  0
VERTEX
  5
35F
  8
L_PLATE
 10
152.0011813438574
 20
-110.4988050521496
 30
0.0
  0
SEQEND
  5
360
  8
L_PLATE
  0
POLYLINE
  5
361
  8
L_PLATE
 66
     1
 10
0.0
 20
0.0
 30
0.0
  0
VERTEX
  5
362
  8
L_PLATE
 10
152.0011813438574
 20
-114.99947779408
 30
0.0
  0
VERTEX
  5
363
  8
L_PLATE
 10
152.0011813438574
 20
-113.9990220651634
 30
0.0
  0
SEQEND
  5
364
  8
L_PLATE
  0
POLYLINE
  5
365
  8
L_PLATE
 66
     1
 10
0.0
 20
0.0
 30
0.0
  0
VERTEX
  5
366
  8
L_PLATE
 10
152.8011325155324
 20
-113.9990220651634
 30
0.0
  0
VERTEX
  5
367
  8
L_PLATE
 10
152.8011325155324
 20
-110.4988050521496
 30
0.0
  0
SEQEND
  5
368
  8
L_PLATE
  0
POLYLINE
  5
369
  8
L_PLATE
 66
     1
 10
0.0
 20
0.0
 30
0.0
  0
VERTEX
  5
36A
  8
L_PLATE
 10
137.2007066296755
 20
-105.4999715030521
 30
0.0
  0
VERTEX
  5
36B
  8
L_PLATE
 10
137.2007066296755
 20
-101.9997544900383
 30
0.0
  0
SEQEND
  5
36C
  8
L_PLATE
  0
POLYLINE
  5
36D
  8
L_PLATE
 66
     1
 10
0.0
 20
0.0
 30
0.0
  0
VERTEX
  5
36E
  8
L_PLATE
 10
152.0011813438574
 20
-101.9997544900383
 30
0.0
  0
VERTEX
  5
36F
  8
L_PLATE
 10
152.0011813438574
 20
-100.9992987611217
 30
0.0
  0
SEQEND
  5
370
  8
L_PLATE
  0
POLYLINE
  5
371
  8
L_PLATE
 66
     1
 10
0.0
 20
0.0
 30
0.0
  0
VERTEX
  5
372
  8
L_PLATE
 10
138.0006578013505
 20
-100.9992987611217
 30
0.0
  0
VERTEX
  5
373
  8
L_PLATE
 10
152.0011813438574
 20
-100.9992987611217
 30
0.0
  0
SEQEND
  5
374
  8
L_PLATE
  0
POLYLINE
  5
375
  8
L_PLATE
 66
     1
 10
0.0
 20
0.0
 30
0.0
  0
VERTEX
  5
376
  8
L_PLATE
 10
133.7993638570884
 20
-101.49952662558
 30
0.0
  0
VERTEX
  5
377
  8
L_PLATE
 10
133.7993638570884
 20
-97.99930961256615
 30
0.0
  0
SEQEND
  5
378
  8
L_PLATE
  0
POLYLINE
  5
379
  8
L_PLATE
 66
     1
 10
0.0
 20
0.0
 30
0.0
  0
VERTEX
  5
37A
  8
L_PLATE
 10
118.1989379712315
 20
-109.9982326781428
 30
0.0
  0
VERTEX
  5
37B
  8
L_PLATE
 10
118.1989379712315
 20
-106.5007717415172
 30
0.0
  0
SEQEND
  5
37C
  8
L_PLATE
  0
POLYLINE
  5
37D
  8
L_PLATE
 66
     1
 10
0.0
 20
0.0
 30
0.0
  0
VERTEX
  5
37E
  8
L_PLATE
 10
118.1989379712315
 20
-106.5007717415172
 30
0.0
  0
VERTEX
  5
37F
  8
L_PLATE
 10
118.9988891429065
 20
-106.5007717415172
 30
0.0
  0
SEQEND
  5
380
  8
L_PLATE
  0
POLYLINE
  5
381
  8
L_PLATE
 66
     1
 10
0.0
 20
0.0
 30
0.0
  0
VERTEX
  5
382
  8
L_PLATE
 10
118.1989379712315
 20
-109.9982326781428
 30
0.0
  0
VERTEX
  5
383
  8
L_PLATE
 10
118.9988891429065
 20
-109.9982326781428
 30
0.0
  0
SEQEND
  5
384
  8
L_PLATE
  0
POLYLINE
  5
385
  8
L_PLATE
 66
     1
 10
0.0
 20
0.0
 30
0.0
  0
VERTEX
  5
386
  8
L_PLATE
 10
118.1989379712315
 20
-101.49952662558
 30
0.0
  0
VERTEX
  5
387
  8
L_PLATE
 10
118.9988891429065
 20
-101.49952662558
 30
0.0
  0
SEQEND
  5
388
  8
L_PLATE
  0
POLYLINE
  5
389
  8
L_PLATE
 66
     1
 10
0.0
 20
0.0
 30
0.0
  0
VERTEX
  5
38A
  8
L_PLATE
 10
118.1989379712315
 20
-97.99930961256615
 30
0.0
  0
VERTEX
  5
38B
  8
L_PLATE
 10
118.9988891429065
 20
-97.99930961256615
 30
0.0
  0
SEQEND
  5
38C
  8
L_PLATE
  0
POLYLINE
  5
38D
  8
L_PLATE
 66
     1
 10
0.0
 20
0.0
 30
0.0
  0
VERTEX
  5
38E
  8
L_PLATE
 10
132.9994126854133
 20
-97.99930961256615
 30
0.0
  0
VERTEX
  5
38F
  8
L_PLATE
 10
133.7993638570884
 20
-97.99930961256615
 30
0.0
  0
SEQEND
  5
390
  8
L_PLATE
  0
POLYLINE
  5
391
  8
L_PLATE
 66
     1
 10
0.0
 20
0.0
 30
0.0
  0
VERTEX
  5
392
  8
L_PLATE
 10
132.9994126854133
 20
-101.49952662558
 30
0.0
  0
VERTEX
  5
393
  8
L_PLATE
 10
133.7993638570884
 20
-101.49952662558
 30
0.0
  0
SEQEND
  5
394
  8
L_PLATE
  0
POLYLINE
  5
395
  8
L_PLATE
 66
     1
 10
0.0
 20
0.0
 30
0.0
  0
VERTEX
  5
396
  8
L_PLATE
 10
132.9994126854133
 20
-109.9982326781428
 30
0.0
  0
VERTEX
  5
397
  8
L_PLATE
 10
133.7993638570884
 20
-109.9982326781428
 30
0.0
  0
SEQEND
  5
398
  8
L_PLATE
  0
POLYLINE
  5
399
  8
L_PLATE
 66
     1
 10
0.0
 20
0.0
 30
0.0
  0
VERTEX
  5
39A
  8
L_PLATE
 10
132.9994126854133
 20
-106.5007717415172
 30
0.0
  0
VERTEX
  5
39B
  8
L_PLATE
 10
133.7993638570884
 20
-106.5007717415172
 30
0.0
  0
SEQEND
  5
39C
  8
L_PLATE
  0
POLYLINE
  5
39D
  8
L_PLATE
 66
     1
 10
0.0
 20
0.0
 30
0.0
  0
VERTEX
  5
39E
  8
L_PLATE
 10
118.9988891429065
 20
-97.99930961256615
 30
0.0
  0
VERTEX
  5
39F
  8
L_PLATE
 10
118.9988891429065
 20
-96.99850937410108
 30
0.0
  0
SEQEND
  5
3A0
  8
L_PLATE
  0
POLYLINE
  5
3A1
  8
L_PLATE
 66
     1
 10
0.0
 20
0.0
 30
0.0
  0
VERTEX
  5
3A2
  8
L_PLATE
 10
118.9988891429065
 20
-110.9990329166079
 30
0.0
  0
VERTEX
  5
3A3
  8
L_PLATE
 10
118.9988891429065
 20
-109.9982326781428
 30
0.0
  0
SEQEND
  5
3A4
  8
L_PLATE
  0
POLYLINE
  5
3A5
  8
L_PLATE
 66
     1
 10
0.0
 20
0.0
 30
0.0
  0
VERTEX
  5
3A6
  8
L_PLATE
 10
118.9988891429065
 20
-101.49952662558
 30
0.0
  0
VERTEX
  5
3A7
  8
L_PLATE
 10
118.9988891429065
 20
-106.5007717415172
 30
0.0
  0
SEQEND
  5
3A8
  8
L_PLATE
  0
POLYLINE
  5
3A9
  8
L_PLATE
 66
     1
 10
0.0
 20
0.0
 30
0.0
  0
VERTEX
  5
3AA
  8
L_PLATE
 10
118.9988891429065
 20
-110.9990329166079
 30
0.0
  0
VERTEX
  5
3AB
  8
L_PLATE
 10
132.9994126854133
 20
-110.9990329166079
 30
0.0
  0
SEQEND
  5
3AC
  8
L_PLATE
  0
POLYLINE
  5
3AD
  8
L_PLATE
 66
     1
 10
0.0
 20
0.0
 30
0.0
  0
VERTEX
  5
3AE
  8
L_PLATE
 10
132.9994126854133
 20
-101.49952662558
 30
0.0
  0
VERTEX
  5
3AF
  8
L_PLATE
 10
132.9994126854133
 20
-106.5007717415172
 30
0.0
  0
SEQEND
  5
3B0
  8
L_PLATE
  0
POLYLINE
  5
3B1
  8
L_PLATE
 66
     1
 10
0.0
 20
0.0
 30
0.0
  0
VERTEX
  5
3B2
  8
L_PLATE
 10
132.9994126854133
 20
-110.9990329166079
 30
0.0
  0
VERTEX
  5
3B3
  8
L_PLATE
 10
132.9994126854133
 20
-109.9982326781428
 30
0.0
  0
SEQEND
  5
3B4
  8
L_PLATE
  0
POLYLINE
  5
3B5
  8
L_PLATE
 66
     1
 10
0.0
 20
0.0
 30
0.0
  0
VERTEX
  5
3B6
  8
L_PLATE
 10
133.7993638570884
 20
-109.9982326781428
 30
0.0
  0
VERTEX
  5
3B7
  8
L_PLATE
 10
133.7993638570884
 20
-106.5007717415172
 30
0.0
  0
SEQEND
  5
3B8
  8
L_PLATE
  0
POLYLINE
  5
3B9
  8
L_PLATE
 66
     1
 10
0.0
 20
0.0
 30
0.0
  0
VERTEX
  5
3BA
  8
L_PLATE
 10
118.1989379712315
 20
-101.49952662558
 30
0.0
  0
VERTEX
  5
3BB
  8
L_PLATE
 10
118.1989379712315
 20
-97.99930961256615
 30
0.0
  0
SEQEND
  5
3BC
  8
L_PLATE
  0
POLYLINE
  5
3BD
  8
L_PLATE
 66
     1
 10
0.0
 20
0.0
 30
0.0
  0
VERTEX
  5
3BE
  8
L_PLATE
 10
132.9994126854133
 20
-97.99930961256615
 30
0.0
  0
VERTEX
  5
3BF
  8
L_PLATE
 10
132.9994126854133
 20
-96.99850937410108
 30
0.0
  0
SEQEND
  5
3C0
  8
L_PLATE
  0
POLYLINE
  5
3C1
  8
L_PLATE
 66
     1
 10
0.0
 20
0.0
 30
0.0
  0
VERTEX
  5
3C2
  8
L_PLATE
 10
118.9988891429065
 20
-96.99850937410108
 30
0.0
  0
VERTEX
  5
3C3
  8
L_PLATE
 10
132.9994126854133
 20
-96.99850937410108
 30
0.0
  0
SEQEND
  5
3C4
  8
L_PLATE
  0
POLYLINE
  5
3C5
  8
L_PLATE
 66
     1
 10
0.0
 20
0.0
 30
0.0
  0
VERTEX
  5
3C6
  8
L_PLATE
 10
114.8003512750325
 20
-94.49943710910084
 30
0.0
  0
VERTEX
  5
3C7
  8
L_PLATE
 10
114.8003512750325
 20
-90.999220096087
 30
0.0
  0
SEQEND
  5
3C8
  8
L_PLATE
  0
POLYLINE
  5
3C9
  8
L_PLATE
 66
     1
 10
0.0
 20
0.0
 30
0.0
  0
VERTEX
  5
3CA
  8
L_PLATE
 10
99.19958087962718
 20
-103.0005547285033
 30
0.0
  0
VERTEX
  5
3CB
  8
L_PLATE
 10
99.19958087962718
 20
-99.50068222503803
 30
0.0
  0
SEQEND
  5
3CC
  8
L_PLATE
  0
POLYLINE
  5
3CD
  8
L_PLATE
 66
     1
 10
0.0
 20
0.0
 30
0.0
  0
VERTEX
  5
3CE
  8
L_PLATE
 10
99.19958087962718
 20
-99.50068222503803
 30
0.0
  0
VERTEX
  5
3CF
  8
L_PLATE
 10
99.99987656085074
 20
-99.50068222503803
 30
0.0
  0
SEQEND
  5
3D0
  8
L_PLATE
  0
POLYLINE
  5
3D1
  8
L_PLATE
 66
     1
 10
0.0
 20
0.0
 30
0.0
  0
VERTEX
  5
3D2
  8
L_PLATE
 10
99.19958087962718
 20
-103.0005547285033
 30
0.0
  0
VERTEX
  5
3D3
  8
L_PLATE
 10
99.99987656085074
 20
-103.0005547285033
 30
0.0
  0
SEQEND
  5
3D4
  8
L_PLATE
  0
POLYLINE
  5
3D5
  8
L_PLATE
 66
     1
 10
0.0
 20
0.0
 30
0.0
  0
VERTEX
  5
3D6
  8
L_PLATE
 10
99.19958087962718
 20
-94.49943710910084
 30
0.0
  0
VERTEX
  5
3D7
  8
L_PLATE
 10
99.99987656085074
 20
-94.49943710910084
 30
0.0
  0
SEQEND
  5
3D8
  8
L_PLATE
  0
POLYLINE
  5
3D9
  8
L_PLATE
 66
     1
 10
0.0
 20
0.0
 30
0.0
  0
VERTEX
  5
3DA
  8
L_PLATE
 10
99.19958087962718
 20
-90.999220096087
 30
0.0
  0
VERTEX
  5
3DB
  8
L_PLATE
 10
99.99987656085074
 20
-90.999220096087
 30
0.0
  0
SEQEND
  5
3DC
  8
L_PLATE
  0
POLYLINE
  5
3DD
  8
L_PLATE
 66
     1
 10
0.0
 20
0.0
 30
0.0
  0
VERTEX
  5
3DE
  8
L_PLATE
 10
114.0004001033575
 20
-90.999220096087
 30
0.0
  0
VERTEX
  5
3DF
  8
L_PLATE
 10
114.8003512750325
 20
-90.999220096087
 30
0.0
  0
SEQEND
  5
3E0
  8
L_PLATE
  0
POLYLINE
  5
3E1
  8
L_PLATE
 66
     1
 10
0.0
 20
0.0
 30
0.0
  0
VERTEX
  5
3E2
  8
L_PLATE
 10
114.0004001033575
 20
-94.49943710910084
 30
0.0
  0
VERTEX
  5
3E3
  8
L_PLATE
 10
114.8003512750325
 20
-94.49943710910084
 30
0.0
  0
SEQEND
  5
3E4
  8
L_PLATE
  0
POLYLINE
  5
3E5
  8
L_PLATE
 66
     1
 10
0.0
 20
0.0
 30
0.0
  0
VERTEX
  5
3E6
  8
L_PLATE
 10
114.0004001033575
 20
-103.0005547285033
 30
0.0
  0
VERTEX
  5
3E7
  8
L_PLATE
 10
114.8003512750325
 20
-103.0005547285033
 30
0.0
  0
SEQEND
  5
3E8
  8
L_PLATE
  0
POLYLINE
  5
3E9
  8
L_PLATE
 66
     1
 10
0.0
 20
0.0
 30
0.0
  0
VERTEX
  5
3EA
  8
L_PLATE
 10
114.0004001033575
 20
-99.50068222503803
 30
0.0
  0
VERTEX
  5
3EB
  8
L_PLATE
 10
114.8003512750325
 20
-99.50068222503803
 30
0.0
  0
SEQEND
  5
3EC
  8
L_PLATE
  0
POLYLINE
  5
3ED
  8
L_PLATE
 66
     1
 10
0.0
 20
0.0
 30
0.0
  0
VERTEX
  5
3EE
  8
L_PLATE
 10
99.99987656085074
 20
-90.999220096087
 30
0.0
  0
VERTEX
  5
3EF
  8
L_PLATE
 10
99.99987656085074
 20
-89.99841985762193
 30
0.0
  0
SEQEND
  5
3F0
  8
L_PLATE
  0
POLYLINE
  5
3F1
  8
L_PLATE
 66
     1
 10
0.0
 20
0.0
 30
0.0
  0
VERTEX
  5
3F2
  8
L_PLATE
 10
99.99987656085074
 20
-103.9989434001287
 30
0.0
  0
VERTEX
  5
3F3
  8
L_PLATE
 10
99.99987656085074
 20
-103.0005547285033
 30
0.0
  0
SEQEND
  5
3F4
  8
L_PLATE
  0
POLYLINE
  5
3F5
  8
L_PLATE
 66
     1
 10
0.0
 20
0.0
 30
0.0
  0
VERTEX
  5
3F6
  8
L_PLATE
 10
99.99987656085074
 20
-94.49943710910084
 30
0.0
  0
VERTEX
  5
3F7
  8
L_PLATE
 10
99.99987656085074
 20
-99.50068222503803
 30
0.0
  0
SEQEND
  5
3F8
  8
L_PLATE
  0
POLYLINE
  5
3F9
  8
L_PLATE
 66
     1
 10
0.0
 20
0.0
 30
0.0
  0
VERTEX
  5
3FA
  8
L_PLATE
 10
99.99987656085074
 20
-103.9989434001287
 30
0.0
  0
VERTEX
  5
3FB
  8
L_PLATE
 10
114.0004001033575
 20
-103.9989434001287
 30
0.0
  0
SEQEND
  5
3FC
  8
L_PLATE
  0
POLYLINE
  5
3FD
  8
L_PLATE
 66
     1
 10
0.0
 20
0.0
 30
0.0
  0
VERTEX
  5
3FE
  8
L_PLATE
 10
114.0004001033575
 20
-94.49943710910084
 30
0.0
  0
VERTEX
  5
3FF
  8
L_PLATE
 10
114.0004001033575
 20
-99.50068222503803
 30
0.0
  0
SEQEND
  5
400
  8
L_PLATE
  0
POLYLINE
  5
401
  8
L_PLATE
 66
     1
 10
0.0
 20
0.0
 30
0.0
  0
VERTEX
  5
402
  8
L_PLATE
 10
114.0004001033575
 20
-103.9989434001287
 30
0.0
  0
VERTEX
  5
403
  8
L_PLATE
 10
114.0004001033575
 20
-103.0005547285033
 30
0.0
  0
SEQEND
  5
404
  8
L_PLATE
  0
POLYLINE
  5
405
  8
L_PLATE
 66
     1
 10
0.0
 20
0.0
 30
0.0
  0
VERTEX
  5
406
  8
L_PLATE
 10
114.8003512750325
 20
-103.0005547285033
 30
0.0
  0
VERTEX
  5
407
  8
L_PLATE
 10
114.8003512750325
 20
-99.50068222503803
 30
0.0
  0
SEQEND
  5
408
  8
L_PLATE
  0
POLYLINE
  5
409
  8
L_PLATE
 66
     1
 10
0.0
 20
0.0
 30
0.0
  0
VERTEX
  5
40A
  8
L_PLATE
 10
99.19958087962718
 20
-94.49943710910084
 30
0.0
  0
VERTEX
  5
40B
  8
L_PLATE
 10
99.19958087962718
 20
-90.999220096087
 30
0.0
  0
SEQEND
  5
40C
  8
L_PLATE
  0
POLYLINE
  5
40D
  8
L_PLATE
 66
     1
 10
0.0
 20
0.0
 30
0.0
  0
VERTEX
  5
40E
  8
L_PLATE
 10
114.0004001033575
 20
-90.999220096087
 30
0.0
  0
VERTEX
  5
40F
  8
L_PLATE
 10
114.0004001033575
 20
-89.99841985762193
 30
0.0
  0
SEQEND
  5
410
  8
L_PLATE
  0
POLYLINE
  5
411
  8
L_PLATE
 66
     1
 10
0.0
 20
0.0
 30
0.0
  0
VERTEX
  5
412
  8
L_PLATE
 10
99.99987656085074
 20
-89.99841985762193
 30
0.0
  0
VERTEX
  5
413
  8
L_PLATE
 10
114.0004001033575
 20
-89.99841985762193
 30
0.0
  0
SEQEND
  5
414
  8
L_PLATE
  0
POLYLINE
  5
415
  8
L_PLATE
 66
     1
 10
0.0
 20
0.0
 30
0.0
  0
VERTEX
  5
416
  8
L_PLATE
 10
95.80133869297674
 20
-99.50068222503803
 30
0.0
  0
VERTEX
  5
417
  8
L_PLATE
 10
95.80133869297674
 20
-96.0004652120242
 30
0.0
  0
SEQEND
  5
418
  8
L_PLATE
  0
POLYLINE
  5
419
  8
L_PLATE
 66
     1
 10
0.0
 20
0.0
 30
0.0
  0
VERTEX
  5
41A
  8
L_PLATE
 10
80.20056829757138
 20
-107.9993882776009
 30
0.0
  0
VERTEX
  5
41B
  8
L_PLATE
 10
80.20056829757138
 20
-104.499171264587
 30
0.0
  0
SEQEND
  5
41C
  8
L_PLATE
  0
POLYLINE
  5
41D
  8
L_PLATE
 66
     1
 10
0.0
 20
0.0
 30
0.0
  0
VERTEX
  5
41E
  8
L_PLATE
 10
80.20056829757138
 20
-104.499171264587
 30
0.0
  0
VERTEX
  5
41F
  8
L_PLATE
 10
81.0005194692464
 20
-104.499171264587
 30
0.0
  0
SEQEND
  5
420
  8
L_PLATE
  0
POLYLINE
  5
421
  8
L_PLATE
 66
     1
 10
0.0
 20
0.0
 30
0.0
  0
VERTEX
  5
422
  8
L_PLATE
 10
80.20056829757138
 20
-107.9993882776009
 30
0.0
  0
VERTEX
  5
423
  8
L_PLATE
 10
81.0005194692464
 20
-107.9993882776009
 30
0.0
  0
SEQEND
  5
424
  8
L_PLATE
  0
POLYLINE
  5
425
  8
L_PLATE
 66
     1
 10
0.0
 20
0.0
 30
0.0
  0
VERTEX
  5
426
  8
L_PLATE
 10
80.20056829757138
 20
-99.50068222503803
 30
0.0
  0
VERTEX
  5
427
  8
L_PLATE
 10
81.0005194692464
 20
-99.50068222503803
 30
0.0
  0
SEQEND
  5
428
  8
L_PLATE
  0
POLYLINE
  5
429
  8
L_PLATE
 66
     1
 10
0.0
 20
0.0
 30
0.0
  0
VERTEX
  5
42A
  8
L_PLATE
 10
80.20056829757138
 20
-96.0004652120242
 30
0.0
  0
VERTEX
  5
42B
  8
L_PLATE
 10
81.0005194692464
 20
-96.0004652120242
 30
0.0
  0
SEQEND
  5
42C
  8
L_PLATE
  0
POLYLINE
  5
42D
  8
L_PLATE
 66
     1
 10
0.0
 20
0.0
 30
0.0
  0
VERTEX
  5
42E
  8
L_PLATE
 10
95.00104301175321
 20
-96.0004652120242
 30
0.0
  0
VERTEX
  5
42F
  8
L_PLATE
 10
95.80133869297674
 20
-96.0004652120242
 30
0.0
  0
SEQEND
  5
430
  8
L_PLATE
  0
POLYLINE
  5
431
  8
L_PLATE
 66
     1
 10
0.0
 20
0.0
 30
0.0
  0
VERTEX
  5
432
  8
L_PLATE
 10
95.00104301175321
 20
-99.50068222503803
 30
0.0
  0
VERTEX
  5
433
  8
L_PLATE
 10
95.80133869297674
 20
-99.50068222503803
 30
0.0
  0
SEQEND
  5
434
  8
L_PLATE
  0
POLYLINE
  5
435
  8
L_PLATE
 66
     1
 10
0.0
 20
0.0
 30
0.0
  0
VERTEX
  5
436
  8
L_PLATE
 10
95.00104301175321
 20
-107.9993882776009
 30
0.0
  0
VERTEX
  5
437
  8
L_PLATE
 10
95.80133869297674
 20
-107.9993882776009
 30
0.0
  0
SEQEND
  5
438
  8
L_PLATE
  0
POLYLINE
  5
439
  8
L_PLATE
 66
     1
 10
0.0
 20
0.0
 30
0.0
  0
VERTEX
  5
43A
  8
L_PLATE
 10
95.00104301175321
 20
-104.499171264587
 30
0.0
  0
VERTEX
  5
43B
  8
L_PLATE
 10
95.80133869297674
 20
-104.499171264587
 30
0.0
  0
SEQEND
  5
43C
  8
L_PLATE
  0
POLYLINE
  5
43D
  8
L_PLATE
 66
     1
 10
0.0
 20
0.0
 30
0.0
  0
VERTEX
  5
43E
  8
L_PLATE
 10
81.0005194692464
 20
-96.0004652120242
 30
0.0
  0
VERTEX
  5
43F
  8
L_PLATE
 10
81.0005194692464
 20
-94.99966497355912
 30
0.0
  0
SEQEND
  5
440
  8
L_PLATE
  0
POLYLINE
  5
441
  8
L_PLATE
 66
     1
 10
0.0
 20
0.0
 30
0.0
  0
VERTEX
  5
442
  8
L_PLATE
 10
81.0005194692464
 20
-109.0001885160659
 30
0.0
  0
VERTEX
  5
443
  8
L_PLATE
 10
81.0005194692464
 20
-107.9993882776009
 30
0.0
  0
SEQEND
  5
444
  8
L_PLATE
  0
POLYLINE
  5
445
  8
L_PLATE
 66
     1
 10
0.0
 20
0.0
 30
0.0
  0
VERTEX
  5
446
  8
L_PLATE
 10
81.0005194692464
 20
-99.50068222503803
 30
0.0
  0
VERTEX
  5
447
  8
L_PLATE
 10
81.0005194692464
 20
-104.499171264587
 30
0.0
  0
SEQEND
  5
448
  8
L_PLATE
  0
POLYLINE
  5
449
  8
L_PLATE
 66
     1
 10
0.0
 20
0.0
 30
0.0
  0
VERTEX
  5
44A
  8
L_PLATE
 10
81.0005194692464
 20
-109.0001885160659
 30
0.0
  0
VERTEX
  5
44B
  8
L_PLATE
 10
95.00104301175321
 20
-109.0001885160659
 30
0.0
  0
SEQEND
  5
44C
  8
L_PLATE
  0
POLYLINE
  5
44D
  8
L_PLATE
 66
     1
 10
0.0
 20
0.0
 30
0.0
  0
VERTEX
  5
44E
  8
L_PLATE
 10
95.00104301175321
 20
-99.50068222503803
 30
0.0
  0
VERTEX
  5
44F
  8
L_PLATE
 10
95.00104301175321
 20
-104.499171264587
 30
0.0
  0
SEQEND
  5
450
  8
L_PLATE
  0
POLYLINE
  5
451
  8
L_PLATE
 66
     1
 10
0.0
 20
0.0
 30
0.0
  0
VERTEX
  5
452
  8
L_PLATE
 10
95.00104301175321
 20
-109.0001885160659
 30
0.0
  0
VERTEX
  5
453
  8
L_PLATE
 10
95.00104301175321
 20
-107.9993882776009
 30
0.0
  0
SEQEND
  5
454
  8
L_PLATE
  0
POLYLINE
  5
455
  8
L_PLATE
 66
     1
 10
0.0
 20
0.0
 30
0.0
  0
VERTEX
  5
456
  8
L_PLATE
 10
95.80133869297674
 20
-107.9993882776009
 30
0.0
  0
VERTEX
  5
457
  8
L_PLATE
 10
95.80133869297674
 20
-104.499171264587
 30
0.0
  0
SEQEND
  5
458
  8
L_PLATE
  0
POLYLINE
  5
459
  8
L_PLATE
 66
     1
 10
0.0
 20
0.0
 30
0.0
  0
VERTEX
  5
45A
  8
L_PLATE
 10
80.20056829757138
 20
-99.50068222503803
 30
0.0
  0
VERTEX
  5
45B
  8
L_PLATE
 10
80.20056829757138
 20
-96.0004652120242
 30
0.0
  0
SEQEND
  5
45C
  8
L_PLATE
  0
POLYLINE
  5
45D
  8
L_PLATE
 66
     1
 10
0.0
 20
0.0
 30
0.0
  0
VERTEX
  5
45E
  8
L_PLATE
 10
95.00104301175321
 20
-96.0004652120242
 30
0.0
  0
VERTEX
  5
45F
  8
L_PLATE
 10
95.00104301175321
 20
-94.99966497355912
 30
0.0
  0
SEQEND
  5
460
  8
L_PLATE
  0
POLYLINE
  5
461
  8
L_PLATE
 66
     1
 10
0.0
 20
0.0
 30
0.0
  0
VERTEX
  5
462
  8
L_PLATE
 10
81.0005194692464
 20
-94.99966497355912
 30
0.0
  0
VERTEX
  5
463
  8
L_PLATE
 10
95.00104301175321
 20
-94.99966497355912
 30
0.0
  0
SEQEND
  5
464
  8
L_PLATE
  0
POLYLINE
  5
465
  8
L_PLATE
 66
     1
 10
0.0
 20
0.0
 30
0.0
  0
VERTEX
  5
466
  8
L_PLATE
 10
76.79957003453275
 20
-104.499171264587
 30
0.0
  0
VERTEX
  5
467
  8
L_PLATE
 10
76.79957003453275
 20
-100.9992987611217
 30
0.0
  0
SEQEND
  5
468
  8
L_PLATE
  0
POLYLINE
  5
469
  8
L_PLATE
 66
     1
 10
0.0
 20
0.0
 30
0.0
  0
VERTEX
  5
46A
  8
L_PLATE
 10
61.20155571551558
 20
-113.000633393538
 30
0.0
  0
VERTEX
  5
46B
  8
L_PLATE
 10
61.20155571551558
 20
-109.5004163805242
 30
0.0
  0
SEQEND
  5
46C
  8
L_PLATE
  0
POLYLINE
  5
46D
  8
L_PLATE
 66
     1
 10
0.0
 20
0.0
 30
0.0
  0
VERTEX
  5
46E
  8
L_PLATE
 10
61.20155571551558
 20
-109.5004163805242
 30
0.0
  0
VERTEX
  5
46F
  8
L_PLATE
 10
61.99909532035092
 20
-109.5004163805242
 30
0.0
  0
SEQEND
  5
470
  8
L_PLATE
  0
POLYLINE
  5
471
  8
L_PLATE
 66
     1
 10
0.0
 20
0.0
 30
0.0
  0
VERTEX
  5
472
  8
L_PLATE
 10
61.20155571551558
 20
-113.000633393538
 30
0.0
  0
VERTEX
  5
473
  8
L_PLATE
 10
61.99909532035092
 20
-113.000633393538
 30
0.0
  0
SEQEND
  5
474
  8
L_PLATE
  0
POLYLINE
  5
475
  8
L_PLATE
 66
     1
 10
0.0
 20
0.0
 30
0.0
  0
VERTEX
  5
476
  8
L_PLATE
 10
61.20155571551558
 20
-104.499171264587
 30
0.0
  0
VERTEX
  5
477
  8
L_PLATE
 10
61.99909532035092
 20
-104.499171264587
 30
0.0
  0
SEQEND
  5
478
  8
L_PLATE
  0
POLYLINE
  5
479
  8
L_PLATE
 66
     1
 10
0.0
 20
0.0
 30
0.0
  0
VERTEX
  5
47A
  8
L_PLATE
 10
61.20155571551558
 20
-100.9992987611217
 30
0.0
  0
VERTEX
  5
47B
  8
L_PLATE
 10
61.99909532035092
 20
-100.9992987611217
 30
0.0
  0
SEQEND
  5
47C
  8
L_PLATE
  0
POLYLINE
  5
47D
  8
L_PLATE
 66
     1
 10
0.0
 20
0.0
 30
0.0
  0
VERTEX
  5
47E
  8
L_PLATE
 10
75.9992743533092
 20
-100.9992987611217
 30
0.0
  0
VERTEX
  5
47F
  8
L_PLATE
 10
76.79957003453275
 20
-100.9992987611217
 30
0.0
  0
SEQEND
  5
480
  8
L_PLATE
  0
POLYLINE
  5
481
  8
L_PLATE
 66
     1
 10
0.0
 20
0.0
 30
0.0
  0
VERTEX
  5
482
  8
L_PLATE
 10
75.9992743533092
 20
-104.499171264587
 30
0.0
  0
VERTEX
  5
483
  8
L_PLATE
 10
76.79957003453275
 20
-104.499171264587
 30
0.0
  0
SEQEND
  5
484
  8
L_PLATE
  0
POLYLINE
  5
485
  8
L_PLATE
 66
     1
 10
0.0
 20
0.0
 30
0.0
  0
VERTEX
  5
486
  8
L_PLATE
 10
75.9992743533092
 20
-113.000633393538
 30
0.0
  0
VERTEX
  5
487
  8
L_PLATE
 10
76.79957003453275
 20
-113.000633393538
 30
0.0
  0
SEQEND
  5
488
  8
L_PLATE
  0
POLYLINE
  5
489
  8
L_PLATE
 66
     1
 10
0.0
 20
0.0
 30
0.0
  0
VERTEX
  5
48A
  8
L_PLATE
 10
75.9992743533092
 20
-109.5004163805242
 30
0.0
  0
VERTEX
  5
48B
  8
L_PLATE
 10
76.79957003453275
 20
-109.5004163805242
 30
0.0
  0
SEQEND
  5
48C
  8
L_PLATE
  0
POLYLINE
  5
48D
  8
L_PLATE
 66
     1
 10
0.0
 20
0.0
 30
0.0
  0
VERTEX
  5
48E
  8
L_PLATE
 10
61.99909532035092
 20
-100.9992987611217
 30
0.0
  0
VERTEX
  5
48F
  8
L_PLATE
 10
61.99909532035092
 20
-99.99849852265663
 30
0.0
  0
SEQEND
  5
490
  8
L_PLATE
  0
POLYLINE
  5
491
  8
L_PLATE
 66
     1
 10
0.0
 20
0.0
 30
0.0
  0
VERTEX
  5
492
  8
L_PLATE
 10
61.99909532035092
 20
-113.9990220651634
 30
0.0
  0
VERTEX
  5
493
  8
L_PLATE
 10
61.99909532035092
 20
-113.000633393538
 30
0.0
  0
SEQEND
  5
494
  8
L_PLATE
  0
POLYLINE
  5
495
  8
L_PLATE
 66
     1
 10
0.0
 20
0.0
 30
0.0
  0
VERTEX
  5
496
  8
L_PLATE
 10
61.99909532035092
 20
-104.499171264587
 30
0.0
  0
VERTEX
  5
497
  8
L_PLATE
 10
61.99909532035092
 20
-109.5004163805242
 30
0.0
  0
SEQEND
  5
498
  8
L_PLATE
  0
POLYLINE
  5
499
  8
L_PLATE
 66
     1
 10
0.0
 20
0.0
 30
0.0
  0
VERTEX
  5
49A
  8
L_PLATE
 10
61.99909532035092
 20
-113.9990220651634
 30
0.0
  0
VERTEX
  5
49B
  8
L_PLATE
 10
75.9992743533092
 20
-113.9990220651634
 30
0.0
  0
SEQEND
  5
49C
  8
L_PLATE
  0
POLYLINE
  5
49D
  8
L_PLATE
 66
     1
 10
0.0
 20
0.0
 30
0.0
  0
VERTEX
  5
49E
  8
L_PLATE
 10
75.9992743533092
 20
-104.499171264587
 30
0.0
  0
VERTEX
  5
49F
  8
L_PLATE
 10
75.9992743533092
 20
-109.5004163805242
 30
0.0
  0
SEQEND
  5
4A0
  8
L_PLATE
  0
POLYLINE
  5
4A1
  8
L_PLATE
 66
     1
 10
0.0
 20
0.0
 30
0.0
  0
VERTEX
  5
4A2
  8
L_PLATE
 10
75.9992743533092
 20
-113.9990220651634
 30
0.0
  0
VERTEX
  5
4A3
  8
L_PLATE
 10
75.9992743533092
 20
-113.000633393538
 30
0.0
  0
SEQEND
  5
4A4
  8
L_PLATE
  0
POLYLINE
  5
4A5
  8
L_PLATE
 66
     1
 10
0.0
 20
0.0
 30
0.0
  0
VERTEX
  5
4A6
  8
L_PLATE
 10
76.79957003453275
 20
-113.000633393538
 30
0.0
  0
VERTEX
  5
4A7
  8
L_PLATE
 10
76.79957003453275
 20
-109.5004163805242
 30
0.0
  0
SEQEND
  5
4A8
  8
L_PLATE
  0
POLYLINE
  5
4A9
  8
L_PLATE
 66
     1
 10
0.0
 20
0.0
 30
0.0
  0
VERTEX
  5
4AA
  8
L_PLATE
 10
61.20155571551558
 20
-104.499171264587
 30
0.0
  0
VERTEX
  5
4AB
  8
L_PLATE
 10
61.20155571551558
 20
-100.9992987611217
 30
0.0
  0
SEQEND
  5
4AC
  8
L_PLATE
  0
POLYLINE
  5
4AD
  8
L_PLATE
 66
     1
 10
0.0
 20
0.0
 30
0.0
  0
VERTEX
  5
4AE
  8
L_PLATE
 10
75.9992743533092
 20
-100.9992987611217
 30
0.0
  0
VERTEX
  5
4AF
  8
L_PLATE
 10
75.9992743533092
 20
-99.99849852265663
 30
0.0
  0
SEQEND
  5
4B0
  8
L_PLATE
  0
POLYLINE
  5
4B1
  8
L_PLATE
 66
     1
 10
0.0
 20
0.0
 30
0.0
  0
VERTEX
  5
4B2
  8
L_PLATE
 10
61.99909532035092
 20
-99.99849852265663
 30
0.0
  0
VERTEX
  5
4B3
  8
L_PLATE
 10
75.9992743533092
 20
-99.99849852265663
 30
0.0
  0
SEQEND
  5
4B4
  8
L_PLATE
  0
POLYLINE
  5
4B5
  8
L_PLATE
 66
     1
 10
0.0
 20
0.0
 30
0.0
  0
VERTEX
  5
4B6
  8
L_PLATE
 10
152.8011325155324
 20
-86.49820284460809
 30
0.0
  0
VERTEX
  5
4B7
  8
L_PLATE
 10
152.8011325155324
 20
-83.00074190798246
 30
0.0
  0
SEQEND
  5
4B8
  8
L_PLATE
  0
POLYLINE
  5
4B9
  8
L_PLATE
 66
     1
 10
0.0
 20
0.0
 30
0.0
  0
VERTEX
  5
4BA
  8
L_PLATE
 10
137.2007066296755
 20
-94.99966497355912
 30
0.0
  0
VERTEX
  5
4BB
  8
L_PLATE
 10
137.2007066296755
 20
-91.49944796054528
 30
0.0
  0
SEQEND
  5
4BC
  8
L_PLATE
  0
POLYLINE
  5
4BD
  8
L_PLATE
 66
     1
 10
0.0
 20
0.0
 30
0.0
  0
VERTEX
  5
4BE
  8
L_PLATE
 10
137.2007066296755
 20
-91.49944796054528
 30
0.0
  0
VERTEX
  5
4BF
  8
L_PLATE
 10
138.0006578013505
 20
-91.49944796054528
 30
0.0
  0
SEQEND
  5
4C0
  8
L_PLATE
  0
POLYLINE
  5
4C1
  8
L_PLATE
 66
     1
 10
0.0
 20
0.0
 30
0.0
  0
VERTEX
  5
4C2
  8
L_PLATE
 10
137.2007066296755
 20
-94.99966497355912
 30
0.0
  0
VERTEX
  5
4C3
  8
L_PLATE
 10
138.0006578013505
 20
-94.99966497355912
 30
0.0
  0
SEQEND
  5
4C4
  8
L_PLATE
  0
POLYLINE
  5
4C5
  8
L_PLATE
 66
     1
 10
0.0
 20
0.0
 30
0.0
  0
VERTEX
  5
4C6
  8
L_PLATE
 10
137.2007066296755
 20
-86.49820284460809
 30
0.0
  0
VERTEX
  5
4C7
  8
L_PLATE
 10
138.0006578013505
 20
-86.49820284460809
 30
0.0
  0
SEQEND
  5
4C8
  8
L_PLATE
  0
POLYLINE
  5
4C9
  8
L_PLATE
 66
     1
 10
0.0
 20
0.0
 30
0.0
  0
VERTEX
  5
4CA
  8
L_PLATE
 10
137.2007066296755
 20
-83.00074190798246
 30
0.0
  0
VERTEX
  5
4CB
  8
L_PLATE
 10
138.0006578013505
 20
-83.00074190798246
 30
0.0
  0
SEQEND
  5
4CC
  8
L_PLATE
  0
POLYLINE
  5
4CD
  8
L_PLATE
 66
     1
 10
0.0
 20
0.0
 30
0.0
  0
VERTEX
  5
4CE
  8
L_PLATE
 10
152.0011813438574
 20
-83.00074190798246
 30
0.0
  0
VERTEX
  5
4CF
  8
L_PLATE
 10
152.8011325155324
 20
-83.00074190798246
 30
0.0
  0
SEQEND
  5
4D0
  8
L_PLATE
  0
POLYLINE
  5
4D1
  8
L_PLATE
 66
     1
 10
0.0
 20
0.0
 30
0.0
  0
VERTEX
  5
4D2
  8
L_PLATE
 10
152.0011813438574
 20
-86.49820284460809
 30
0.0
  0
VERTEX
  5
4D3
  8
L_PLATE
 10
152.8011325155324
 20
-86.49820284460809
 30
0.0
  0
SEQEND
  5
4D4
  8
L_PLATE
  0
POLYLINE
  5
4D5
  8
L_PLATE
 66
     1
 10
0.0
 20
0.0
 30
0.0
  0
VERTEX
  5
4D6
  8
L_PLATE
 10
152.0011813438574
 20
-94.99966497355912
 30
0.0
  0
VERTEX
  5
4D7
  8
L_PLATE
 10
152.8011325155324
 20
-94.99966497355912
 30
0.0
  0
SEQEND
  5
4D8
  8
L_PLATE
  0
POLYLINE
  5
4D9
  8
L_PLATE
 66
     1
 10
0.0
 20
0.0
 30
0.0
  0
VERTEX
  5
4DA
  8
L_PLATE
 10
152.0011813438574
 20
-91.49944796054528
 30
0.0
  0
VERTEX
  5
4DB
  8
L_PLATE
 10
152.8011325155324
 20
-91.49944796054528
 30
0.0
  0
SEQEND
  5
4DC
  8
L_PLATE
  0
POLYLINE
  5
4DD
  8
L_PLATE
 66
     1
 10
0.0
 20
0.0
 30
0.0
  0
VERTEX
  5
4DE
  8
L_PLATE
 10
138.0006578013505
 20
-83.00074190798246
 30
0.0
  0
VERTEX
  5
4DF
  8
L_PLATE
 10
138.0006578013505
 20
-81.99994166951738
 30
0.0
  0
SEQEND
  5
4E0
  8
L_PLATE
  0
POLYLINE
  5
4E1
  8
L_PLATE
 66
     1
 10
0.0
 20
0.0
 30
0.0
  0
VERTEX
  5
4E2
  8
L_PLATE
 10
138.0006578013505
 20
-96.0004652120242
 30
0.0
  0
VERTEX
  5
4E3
  8
L_PLATE
 10
138.0006578013505
 20
-94.99966497355912
 30
0.0
  0
SEQEND
  5
4E4
  8
L_PLATE
  0
POLYLINE
  5
4E5
  8
L_PLATE
 66
     1
 10
0.0
 20
0.0
 30
0.0
  0
VERTEX
  5
4E6
  8
L_PLATE
 10
138.0006578013505
 20
-86.49820284460809
 30
0.0
  0
VERTEX
  5
4E7
  8
L_PLATE
 10
138.0006578013505
 20
-91.49944796054528
 30
0.0
  0
SEQEND
  5
4E8
  8
L_PLATE
  0
POLYLINE
  5
4E9
  8
L_PLATE
 66
     1
 10
0.0
 20
0.0
 30
0.0
  0
VERTEX
  5
4EA
  8
L_PLATE
 10
138.0006578013505
 20
-96.0004652120242
 30
0.0
  0
VERTEX
  5
4EB
  8
L_PLATE
 10
152.0011813438574
 20
-96.0004652120242
 30
0.0
  0
SEQEND
  5
4EC
  8
L_PLATE
  0
POLYLINE
  5
4ED
  8
L_PLATE
 66
     1
 10
0.0
 20
0.0
 30
0.0
  0
VERTEX
  5
4EE
  8
L_PLATE
 10
152.0011813438574
 20
-86.49820284460809
 30
0.0
  0
VERTEX
  5
4EF
  8
L_PLATE
 10
152.0011813438574
 20
-91.49944796054528
 30
0.0
  0
SEQEND
  5
4F0
  8
L_PLATE
  0
POLYLINE
  5
4F1
  8
L_PLATE
 66
     1
 10
0.0
 20
0.0
 30
0.0
  0
VERTEX
  5
4F2
  8
L_PLATE
 10
152.0011813438574
 20
-96.0004652120242
 30
0.0
  0
VERTEX
  5
4F3
  8
L_PLATE
 10
152.0011813438574
 20
-94.99966497355912
 30
0.0
  0
SEQEND
  5
4F4
  8
L_PLATE
  0
POLYLINE
  5
4F5
  8
L_PLATE
 66
     1
 10
0.0
 20
0.0
 30
0.0
  0
VERTEX
  5
4F6
  8
L_PLATE
 10
152.8011325155324
 20
-94.99966497355912
 30
0.0
  0
VERTEX
  5
4F7
  8
L_PLATE
 10
152.8011325155324
 20
-91.49944796054528
 30
0.0
  0
SEQEND
  5
4F8
  8
L_PLATE
  0
POLYLINE
  5
4F9
  8
L_PLATE
 66
     1
 10
0.0
 20
0.0
 30
0.0
  0
VERTEX
  5
4FA
  8
L_PLATE
 10
137.2007066296755
 20
-86.49820284460809
 30
0.0
  0
VERTEX
  5
4FB
  8
L_PLATE
 10
137.2007066296755
 20
-83.00074190798246
 30
0.0
  0
SEQEND
  5
4FC
  8
L_PLATE
  0
POLYLINE
  5
4FD
  8
L_PLATE
 66
     1
 10
0.0
 20
0.0
 30
0.0
  0
VERTEX
  5
4FE
  8
L_PLATE
 10
152.0011813438574
 20
-83.00074190798246
 30
0.0
  0
VERTEX
  5
4FF
  8
L_PLATE
 10
152.0011813438574
 20
-81.99994166951738
 30
0.0
  0
SEQEND
  5
500
  8
L_PLATE
  0
POLYLINE
  5
501
  8
L_PLATE
 66
     1
 10
0.0
 20
0.0
 30
0.0
  0
VERTEX
  5
502
  8
L_PLATE
 10
138.0006578013505
 20
-81.99994166951738
 30
0.0
  0
VERTEX
  5
503
  8
L_PLATE
 10
152.0011813438574
 20
-81.99994166951738
 30
0.0
  0
SEQEND
  5
504
  8
L_PLATE
  0
POLYLINE
  5
505
  8
L_PLATE
 66
     1
 10
0.0
 20
0.0
 30
0.0
  0
VERTEX
  5
506
  8
L_PLATE
 10
133.7993638570884
 20
-82.50051404352418
 30
0.0
  0
VERTEX
  5
507
  8
L_PLATE
 10
133.7993638570884
 20
-79.00029703051035
 30
0.0
  0
SEQEND
  5
508
  8
L_PLATE
  0
POLYLINE
  5
509
  8
L_PLATE
 66
     1
 10
0.0
 20
0.0
 30
0.0
  0
VERTEX
  5
50A
  8
L_PLATE
 10
118.1989379712315
 20
-90.999220096087
 30
0.0
  0
VERTEX
  5
50B
  8
L_PLATE
 10
118.1989379712315
 20
-87.49900308307318
 30
0.0
  0
SEQEND
  5
50C
  8
L_PLATE
  0
POLYLINE
  5
50D
  8
L_PLATE
 66
     1
 10
0.0
 20
0.0
 30
0.0
  0
VERTEX
  5
50E
  8
L_PLATE
 10
118.1989379712315
 20
-87.49900308307318
 30
0.0
  0
VERTEX
  5
50F
  8
L_PLATE
 10
118.9988891429065
 20
-87.49900308307318
 30
0.0
  0
SEQEND
  5
510
  8
L_PLATE
  0
POLYLINE
  5
511
  8
L_PLATE
 66
     1
 10
0.0
 20
0.0
 30
0.0
  0
VERTEX
  5
512
  8
L_PLATE
 10
118.1989379712315
 20
-90.999220096087
 30
0.0
  0
VERTEX
  5
513
  8
L_PLATE
 10
118.9988891429065
 20
-90.999220096087
 30
0.0
  0
SEQEND
  5
514
  8
L_PLATE
  0
POLYLINE
  5
515
  8
L_PLATE
 66
     1
 10
0.0
 20
0.0
 30
0.0
  0
VERTEX
  5
516
  8
L_PLATE
 10
118.1989379712315
 20
-82.50051404352418
 30
0.0
  0
VERTEX
  5
517
  8
L_PLATE
 10
118.9988891429065
 20
-82.50051404352418
 30
0.0
  0
SEQEND
  5
518
  8
L_PLATE
  0
POLYLINE
  5
519
  8
L_PLATE
 66
     1
 10
0.0
 20
0.0
 30
0.0
  0
VERTEX
  5
51A
  8
L_PLATE
 10
118.1989379712315
 20
-79.00029703051035
 30
0.0
  0
VERTEX
  5
51B
  8
L_PLATE
 10
118.9988891429065
 20
-79.00029703051035
 30
0.0
  0
SEQEND
  5
51C
  8
L_PLATE
  0
POLYLINE
  5
51D
  8
L_PLATE
 66
     1
 10
0.0
 20
0.0
 30
0.0
  0
VERTEX
  5
51E
  8
L_PLATE
 10
132.9994126854133
 20
-79.00029703051035
 30
0.0
  0
VERTEX
  5
51F
  8
L_PLATE
 10
133.7993638570884
 20
-79.00029703051035
 30
0.0
  0
SEQEND
  5
520
  8
L_PLATE
  0
POLYLINE
  5
521
  8
L_PLATE
 66
     1
 10
0.0
 20
0.0
 30
0.0
  0
VERTEX
  5
522
  8
L_PLATE
 10
132.9994126854133
 20
-82.50051404352418
 30
0.0
  0
VERTEX
  5
523
  8
L_PLATE
 10
133.7993638570884
 20
-82.50051404352418
 30
0.0
  0
SEQEND
  5
524
  8
L_PLATE
  0
POLYLINE
  5
525
  8
L_PLATE
 66
     1
 10
0.0
 20
0.0
 30
0.0
  0
VERTEX
  5
526
  8
L_PLATE
 10
132.9994126854133
 20
-90.999220096087
 30
0.0
  0
VERTEX
  5
527
  8
L_PLATE
 10
133.7993638570884
 20
-90.999220096087
 30
0.0
  0
SEQEND
  5
528
  8
L_PLATE
  0
POLYLINE
  5
529
  8
L_PLATE
 66
     1
 10
0.0
 20
0.0
 30
0.0
  0
VERTEX
  5
52A
  8
L_PLATE
 10
132.9994126854133
 20
-87.49900308307318
 30
0.0
  0
VERTEX
  5
52B
  8
L_PLATE
 10
133.7993638570884
 20
-87.49900308307318
 30
0.0
  0
SEQEND
  5
52C
  8
L_PLATE
  0
POLYLINE
  5
52D
  8
L_PLATE
 66
     1
 10
0.0
 20
0.0
 30
0.0
  0
VERTEX
  5
52E
  8
L_PLATE
 10
118.9988891429065
 20
-79.00029703051035
 30
0.0
  0
VERTEX
  5
52F
  8
L_PLATE
 10
118.9988891429065
 20
-77.99949679204526
 30
0.0
  0
SEQEND
  5
530
  8
L_PLATE
  0
POLYLINE
  5
531
  8
L_PLATE
 66
     1
 10
0.0
 20
0.0
 30
0.0
  0
VERTEX
  5
532
  8
L_PLATE
 10
118.9988891429065
 20
-92.00002033455209
 30
0.0
  0
VERTEX
  5
533
  8
L_PLATE
 10
118.9988891429065
 20
-90.999220096087
 30
0.0
  0
SEQEND
  5
534
  8
L_PLATE
  0
POLYLINE
  5
535
  8
L_PLATE
 66
     1
 10
0.0
 20
0.0
 30
0.0
  0
VERTEX
  5
536
  8
L_PLATE
 10
118.9988891429065
 20
-82.50051404352418
 30
0.0
  0
VERTEX
  5
537
  8
L_PLATE
 10
118.9988891429065
 20
-87.49900308307318
 30
0.0
  0
SEQEND
  5
538
  8
L_PLATE
  0
POLYLINE
  5
539
  8
L_PLATE
 66
     1
 10
0.0
 20
0.0
 30
0.0
  0
VERTEX
  5
53A
  8
L_PLATE
 10
118.9988891429065
 20
-92.00002033455209
 30
0.0
  0
VERTEX
  5
53B
  8
L_PLATE
 10
132.9994126854133
 20
-92.00002033455209
 30
0.0
  0
SEQEND
  5
53C
  8
L_PLATE
  0
POLYLINE
  5
53D
  8
L_PLATE
 66
     1
 10
0.0
 20
0.0
 30
0.0
  0
VERTEX
  5
53E
  8
L_PLATE
 10
132.9994126854133
 20
-82.50051404352418
 30
0.0
  0
VERTEX
  5
53F
  8
L_PLATE
 10
132.9994126854133
 20
-87.49900308307318
 30
0.0
  0
SEQEND
  5
540
  8
L_PLATE
  0
POLYLINE
  5
541
  8
L_PLATE
 66
     1
 10
0.0
 20
0.0
 30
0.0
  0
VERTEX
  5
542
  8
L_PLATE
 10
132.9994126854133
 20
-92.00002033455209
 30
0.0
  0
VERTEX
  5
543
  8
L_PLATE
 10
132.9994126854133
 20
-90.999220096087
 30
0.0
  0
SEQEND
  5
544
  8
L_PLATE
  0
POLYLINE
  5
545
  8
L_PLATE
 66
     1
 10
0.0
 20
0.0
 30
0.0
  0
VERTEX
  5
546
  8
L_PLATE
 10
133.7993638570884
 20
-90.999220096087
 30
0.0
  0
VERTEX
  5
547
  8
L_PLATE
 10
133.7993638570884
 20
-87.49900308307318
 30
0.0
  0
SEQEND
  5
548
  8
L_PLATE
  0
POLYLINE
  5
549
  8
L_PLATE
 66
     1
 10
0.0
 20
0.0
 30
0.0
  0
VERTEX
  5
54A
  8
L_PLATE
 10
118.1989379712315
 20
-82.50051404352418
 30
0.0
  0
VERTEX
  5
54B
  8
L_PLATE
 10
118.1989379712315
 20
-79.00029703051035
 30
0.0
  0
SEQEND
  5
54C
  8
L_PLATE
  0
POLYLINE
  5
54D
  8
L_PLATE
 66
     1
 10
0.0
 20
0.0
 30
0.0
  0
VERTEX
  5
54E
  8
L_PLATE
 10
132.9994126854133
 20
-79.00029703051035
 30
0.0
  0
VERTEX
  5
54F
  8
L_PLATE
 10
132.9994126854133
 20
-77.99949679204526
 30
0.0
  0
SEQEND
  5
550
  8
L_PLATE
  0
POLYLINE
  5
551
  8
L_PLATE
 66
     1
 10
0.0
 20
0.0
 30
0.0
  0
VERTEX
  5
552
  8
L_PLATE
 10
118.9988891429065
 20
-77.99949679204526
 30
0.0
  0
VERTEX
  5
553
  8
L_PLATE
 10
132.9994126854133
 20
-77.99949679204526
 30
0.0
  0
SEQEND
  5
554
  8
L_PLATE
  0
POLYLINE
  5
555
  8
L_PLATE
 66
     1
 10
0.0
 20
0.0
 30
0.0
  0
VERTEX
  5
556
  8
L_PLATE
 10
114.8003512750325
 20
-75.50008001749651
 30
0.0
  0
VERTEX
  5
557
  8
L_PLATE
 10
114.8003512750325
 20
-72.0002075140312
 30
0.0
  0
SEQEND
  5
558
  8
L_PLATE
  0
POLYLINE
  5
559
  8
L_PLATE
 66
     1
 10
0.0
 20
0.0
 30
0.0
  0
VERTEX
  5
55A
  8
L_PLATE
 10
99.19958087962718
 20
-83.99913057960786
 30
0.0
  0
VERTEX
  5
55B
  8
L_PLATE
 10
99.19958087962718
 20
-80.49891356659403
 30
0.0
  0
SEQEND
  5
55C
  8
L_PLATE
  0
POLYLINE
  5
55D
  8
L_PLATE
 66
     1
 10
0.0
 20
0.0
 30
0.0
  0
VERTEX
  5
55E
  8
L_PLATE
 10
99.19958087962718
 20
-80.49891356659403
 30
0.0
  0
VERTEX
  5
55F
  8
L_PLATE
 10
99.99987656085074
 20
-80.49891356659403
 30
0.0
  0
SEQEND
  5
560
  8
L_PLATE
  0
POLYLINE
  5
561
  8
L_PLATE
 66
     1
 10
0.0
 20
0.0
 30
0.0
  0
VERTEX
  5
562
  8
L_PLATE
 10
99.19958087962718
 20
-83.99913057960786
 30
0.0
  0
VERTEX
  5
563
  8
L_PLATE
 10
99.99987656085074
 20
-83.99913057960786
 30
0.0
  0
SEQEND
  5
564
  8
L_PLATE
  0
POLYLINE
  5
565
  8
L_PLATE
 66
     1
 10
0.0
 20
0.0
 30
0.0
  0
VERTEX
  5
566
  8
L_PLATE
 10
99.19958087962718
 20
-75.50008001749651
 30
0.0
  0
VERTEX
  5
567
  8
L_PLATE
 10
99.99987656085074
 20
-75.50008001749651
 30
0.0
  0
SEQEND
  5
568
  8
L_PLATE
  0
POLYLINE
  5
569
  8
L_PLATE
 66
     1
 10
0.0
 20
0.0
 30
0.0
  0
VERTEX
  5
56A
  8
L_PLATE
 10
99.19958087962718
 20
-72.0002075140312
 30
0.0
  0
VERTEX
  5
56B
  8
L_PLATE
 10
99.99987656085074
 20
-72.0002075140312
 30
0.0
  0
SEQEND
  5
56C
  8
L_PLATE
  0
POLYLINE
  5
56D
  8
L_PLATE
 66
     1
 10
0.0
 20
0.0
 30
0.0
  0
VERTEX
  5
56E
  8
L_PLATE
 10
114.0004001033575
 20
-72.0002075140312
 30
0.0
  0
VERTEX
  5
56F
  8
L_PLATE
 10
114.8003512750325
 20
-72.0002075140312
 30
0.0
  0
SEQEND
  5
570
  8
L_PLATE
  0
POLYLINE
  5
571
  8
L_PLATE
 66
     1
 10
0.0
 20
0.0
 30
0.0
  0
VERTEX
  5
572
  8
L_PLATE
 10
114.0004001033575
 20
-75.50008001749651
 30
0.0
  0
VERTEX
  5
573
  8
L_PLATE
 10
114.8003512750325
 20
-75.50008001749651
 30
0.0
  0
SEQEND
  5
574
  8
L_PLATE
  0
POLYLINE
  5
575
  8
L_PLATE
 66
     1
 10
0.0
 20
0.0
 30
0.0
  0
VERTEX
  5
576
  8
L_PLATE
 10
114.0004001033575
 20
-83.99913057960786
 30
0.0
  0
VERTEX
  5
577
  8
L_PLATE
 10
114.8003512750325
 20
-83.99913057960786
 30
0.0
  0
SEQEND
  5
578
  8
L_PLATE
  0
POLYLINE
  5
579
  8
L_PLATE
 66
     1
 10
0.0
 20
0.0
 30
0.0
  0
VERTEX
  5
57A
  8
L_PLATE
 10
114.0004001033575
 20
-80.49891356659403
 30
0.0
  0
VERTEX
  5
57B
  8
L_PLATE
 10
114.8003512750325
 20
-80.49891356659403
 30
0.0
  0
SEQEND
  5
57C
  8
L_PLATE
  0
POLYLINE
  5
57D
  8
L_PLATE
 66
     1
 10
0.0
 20
0.0
 30
0.0
  0
VERTEX
  5
57E
  8
L_PLATE
 10
99.99987656085074
 20
-72.0002075140312
 30
0.0
  0
VERTEX
  5
57F
  8
L_PLATE
 10
99.99987656085074
 20
-70.99940727556611
 30
0.0
  0
SEQEND
  5
580
  8
L_PLATE
  0
POLYLINE
  5
581
  8
L_PLATE
 66
     1
 10
0.0
 20
0.0
 30
0.0
  0
VERTEX
  5
582
  8
L_PLATE
 10
99.99987656085074
 20
-84.99958630852441
 30
0.0
  0
VERTEX
  5
583
  8
L_PLATE
 10
99.99987656085074
 20
-83.99913057960786
 30
0.0
  0
SEQEND
  5
584
  8
L_PLATE
  0
POLYLINE
  5
585
  8
L_PLATE
 66
     1
 10
0.0
 20
0.0
 30
0.0
  0
VERTEX
  5
586
  8
L_PLATE
 10
99.99987656085074
 20
-75.50008001749651
 30
0.0
  0
VERTEX
  5
587
  8
L_PLATE
 10
99.99987656085074
 20
-80.49891356659403
 30
0.0
  0
SEQEND
  5
588
  8
L_PLATE
  0
POLYLINE
  5
589
  8
L_PLATE
 66
     1
 10
0.0
 20
0.0
 30
0.0
  0
VERTEX
  5
58A
  8
L_PLATE
 10
99.99987656085074
 20
-84.99958630852441
 30
0.0
  0
VERTEX
  5
58B
  8
L_PLATE
 10
114.0004001033575
 20
-84.99958630852441
 30
0.0
  0
SEQEND
  5
58C
  8
L_PLATE
  0
POLYLINE
  5
58D
  8
L_PLATE
 66
     1
 10
0.0
 20
0.0
 30
0.0
  0
VERTEX
  5
58E
  8
L_PLATE
 10
114.0004001033575
 20
-75.50008001749651
 30
0.0
  0
VERTEX
  5
58F
  8
L_PLATE
 10
114.0004001033575
 20
-80.49891356659403
 30
0.0
  0
SEQEND
  5
590
  8
L_PLATE
  0
POLYLINE
  5
591
  8
L_PLATE
 66
     1
 10
0.0
 20
0.0
 30
0.0
  0
VERTEX
  5
592
  8
L_PLATE
 10
114.0004001033575
 20
-84.99958630852441
 30
0.0
  0
VERTEX
  5
593
  8
L_PLATE
 10
114.0004001033575
 20
-83.99913057960786
 30
0.0
  0
SEQEND
  5
594
  8
L_PLATE
  0
POLYLINE
  5
595
  8
L_PLATE
 66
     1
 10
0.0
 20
0.0
 30
0.0
  0
VERTEX
  5
596
  8
L_PLATE
 10
114.8003512750325
 20
-83.99913057960786
 30
0.0
  0
VERTEX
  5
597
  8
L_PLATE
 10
114.8003512750325
 20
-80.49891356659403
 30
0.0
  0
SEQEND
  5
598
  8
L_PLATE
  0
POLYLINE
  5
599
  8
L_PLATE
 66
     1
 10
0.0
 20
0.0
 30
0.0
  0
VERTEX
  5
59A
  8
L_PLATE
 10
99.19958087962718
 20
-75.50008001749651
 30
0.0
  0
VERTEX
  5
59B
  8
L_PLATE
 10
99.19958087962718
 20
-72.0002075140312
 30
0.0
  0
SEQEND
  5
59C
  8
L_PLATE
  0
POLYLINE
  5
59D
  8
L_PLATE
 66
     1
 10
0.0
 20
0.0
 30
0.0
  0
VERTEX
  5
59E
  8
L_PLATE
 10
114.0004001033575
 20
-72.0002075140312
 30
0.0
  0
VERTEX
  5
59F
  8
L_PLATE
 10
114.0004001033575
 20
-70.99940727556611
 30
0.0
  0
SEQEND
  5
5A0
  8
L_PLATE
  0
POLYLINE
  5
5A1
  8
L_PLATE
 66
     1
 10
0.0
 20
0.0
 30
0.0
  0
VERTEX
  5
5A2
  8
L_PLATE
 10
99.99987656085074
 20
-70.99940727556611
 30
0.0
  0
VERTEX
  5
5A3
  8
L_PLATE
 10
114.0004001033575
 20
-70.99940727556611
 30
0.0
  0
SEQEND
  5
5A4
  8
L_PLATE
  0
POLYLINE
  5
5A5
  8
L_PLATE
 66
     1
 10
0.0
 20
0.0
 30
0.0
  0
VERTEX
  5
5A6
  8
L_PLATE
 10
95.80133869297674
 20
-80.49891356659403
 30
0.0
  0
VERTEX
  5
5A7
  8
L_PLATE
 10
95.80133869297674
 20
-76.99869655358019
 30
0.0
  0
SEQEND
  5
5A8
  8
L_PLATE
  0
POLYLINE
  5
5A9
  8
L_PLATE
 66
     1
 10
0.0
 20
0.0
 30
0.0
  0
VERTEX
  5
5AA
  8
L_PLATE
 10
80.20056829757138
 20
-89.00037569554505
 30
0.0
  0
VERTEX
  5
5AB
  8
L_PLATE
 10
80.20056829757138
 20
-85.50015868253122
 30
0.0
  0
SEQEND
  5
5AC
  8
L_PLATE
  0
POLYLINE
  5
5AD
  8
L_PLATE
 66
     1
 10
0.0
 20
0.0
 30
0.0
  0
VERTEX
  5
5AE
  8
L_PLATE
 10
80.20056829757138
 20
-85.50015868253122
 30
0.0
  0
VERTEX
  5
5AF
  8
L_PLATE
 10
81.0005194692464
 20
-85.50015868253122
 30
0.0
  0
SEQEND
  5
5B0
  8
L_PLATE
  0
POLYLINE
  5
5B1
  8
L_PLATE
 66
     1
 10
0.0
 20
0.0
 30
0.0
  0
VERTEX
  5
5B2
  8
L_PLATE
 10
80.20056829757138
 20
-89.00037569554505
 30
0.0
  0
VERTEX
  5
5B3
  8
L_PLATE
 10
81.0005194692464
 20
-89.00037569554505
 30
0.0
  0
SEQEND
  5
5B4
  8
L_PLATE
  0
POLYLINE
  5
5B5
  8
L_PLATE
 66
     1
 10
0.0
 20
0.0
 30
0.0
  0
VERTEX
  5
5B6
  8
L_PLATE
 10
80.20056829757138
 20
-80.49891356659403
 30
0.0
  0
VERTEX
  5
5B7
  8
L_PLATE
 10
81.0005194692464
 20
-80.49891356659403
 30
0.0
  0
SEQEND
  5
5B8
  8
L_PLATE
  0
POLYLINE
  5
5B9
  8
L_PLATE
 66
     1
 10
0.0
 20
0.0
 30
0.0
  0
VERTEX
  5
5BA
  8
L_PLATE
 10
80.20056829757138
 20
-76.99869655358019
 30
0.0
  0
VERTEX
  5
5BB
  8
L_PLATE
 10
81.0005194692464
 20
-76.99869655358019
 30
0.0
  0
SEQEND
  5
5BC
  8
L_PLATE
  0
POLYLINE
  5
5BD
  8
L_PLATE
 66
     1
 10
0.0
 20
0.0
 30
0.0
  0
VERTEX
  5
5BE
  8
L_PLATE
 10
95.00104301175321
 20
-76.99869655358019
 30
0.0
  0
VERTEX
  5
5BF
  8
L_PLATE
 10
95.80133869297674
 20
-76.99869655358019
 30
0.0
  0
SEQEND
  5
5C0
  8
L_PLATE
  0
POLYLINE
  5
5C1
  8
L_PLATE
 66
     1
 10
0.0
 20
0.0
 30
0.0
  0
VERTEX
  5
5C2
  8
L_PLATE
 10
95.00104301175321
 20
-80.49891356659403
 30
0.0
  0
VERTEX
  5
5C3
  8
L_PLATE
 10
95.80133869297674
 20
-80.49891356659403
 30
0.0
  0
SEQEND
  5
5C4
  8
L_PLATE
  0
POLYLINE
  5
5C5
  8
L_PLATE
 66
     1
 10
0.0
 20
0.0
 30
0.0
  0
VERTEX
  5
5C6
  8
L_PLATE
 10
95.00104301175321
 20
-89.00037569554505
 30
0.0
  0
VERTEX
  5
5C7
  8
L_PLATE
 10
95.80133869297674
 20
-89.00037569554505
 30
0.0
  0
SEQEND
  5
5C8
  8
L_PLATE
  0
POLYLINE
  5
5C9
  8
L_PLATE
 66
     1
 10
0.0
 20
0.0
 30
0.0
  0
VERTEX
  5
5CA
  8
L_PLATE
 10
95.00104301175321
 20
-85.50015868253122
 30
0.0
  0
VERTEX
  5
5CB
  8
L_PLATE
 10
95.80133869297674
 20
-85.50015868253122
 30
0.0
  0
SEQEND
  5
5CC
  8
L_PLATE
  0
POLYLINE
  5
5CD
  8
L_PLATE
 66
     1
 10
0.0
 20
0.0
 30
0.0
  0
VERTEX
  5
5CE
  8
L_PLATE
 10
81.0005194692464
 20
-76.99869655358019
 30
0.0
  0
VERTEX
  5
5CF
  8
L_PLATE
 10
81.0005194692464
 20
-76.00065239150331
 30
0.0
  0
SEQEND
  5
5D0
  8
L_PLATE
  0
POLYLINE
  5
5D1
  8
L_PLATE
 66
     1
 10
0.0
 20
0.0
 30
0.0
  0
VERTEX
  5
5D2
  8
L_PLATE
 10
81.0005194692464
 20
-89.99841985762193
 30
0.0
  0
VERTEX
  5
5D3
  8
L_PLATE
 10
81.0005194692464
 20
-89.00037569554505
 30
0.0
  0
SEQEND
  5
5D4
  8
L_PLATE
  0
POLYLINE
  5
5D5
  8
L_PLATE
 66
     1
 10
0.0
 20
0.0
 30
0.0
  0
VERTEX
  5
5D6
  8
L_PLATE
 10
81.0005194692464
 20
-80.49891356659403
 30
0.0
  0
VERTEX
  5
5D7
  8
L_PLATE
 10
81.0005194692464
 20
-85.50015868253122
 30
0.0
  0
SEQEND
  5
5D8
  8
L_PLATE
  0
POLYLINE
  5
5D9
  8
L_PLATE
 66
     1
 10
0.0
 20
0.0
 30
0.0
  0
VERTEX
  5
5DA
  8
L_PLATE
 10
81.0005194692464
 20
-89.99841985762193
 30
0.0
  0
VERTEX
  5
5DB
  8
L_PLATE
 10
95.00104301175321
 20
-89.99841985762193
 30
0.0
  0
SEQEND
  5
5DC
  8
L_PLATE
  0
POLYLINE
  5
5DD
  8
L_PLATE
 66
     1
 10
0.0
 20
0.0
 30
0.0
  0
VERTEX
  5
5DE
  8
L_PLATE
 10
95.00104301175321
 20
-80.49891356659403
 30
0.0
  0
VERTEX
  5
5DF
  8
L_PLATE
 10
95.00104301175321
 20
-85.50015868253122
 30
0.0
  0
SEQEND
  5
5E0
  8
L_PLATE
  0
POLYLINE
  5
5E1
  8
L_PLATE
 66
     1
 10
0.0
 20
0.0
 30
0.0
  0
VERTEX
  5
5E2
  8
L_PLATE
 10
95.00104301175321
 20
-89.99841985762193
 30
0.0
  0
VERTEX
  5
5E3
  8
L_PLATE
 10
95.00104301175321
 20
-89.00037569554505
 30
0.0
  0
SEQEND
  5
5E4
  8
L_PLATE
  0
POLYLINE
  5
5E5
  8
L_PLATE
 66
     1
 10
0.0
 20
0.0
 30
0.0
  0
VERTEX
  5
5E6
  8
L_PLATE
 10
95.80133869297674
 20
-89.00037569554505
 30
0.0
  0
VERTEX
  5
5E7
  8
L_PLATE
 10
95.80133869297674
 20
-85.50015868253122
 30
0.0
  0
SEQEND
  5
5E8
  8
L_PLATE
  0
POLYLINE
  5
5E9
  8
L_PLATE
 66
     1
 10
0.0
 20
0.0
 30
0.0
  0
VERTEX
  5
5EA
  8
L_PLATE
 10
80.20056829757138
 20
-80.49891356659403
 30
0.0
  0
VERTEX
  5
5EB
  8
L_PLATE
 10
80.20056829757138
 20
-76.99869655358019
 30
0.0
  0
SEQEND
  5
5EC
  8
L_PLATE
  0
POLYLINE
  5
5ED
  8
L_PLATE
 66
     1
 10
0.0
 20
0.0
 30
0.0
  0
VERTEX
  5
5EE
  8
L_PLATE
 10
95.00104301175321
 20
-76.99869655358019
 30
0.0
  0
VERTEX
  5
5EF
  8
L_PLATE
 10
95.00104301175321
 20
-76.00065239150331
 30
0.0
  0
SEQEND
  5
5F0
  8
L_PLATE
  0
POLYLINE
  5
5F1
  8
L_PLATE
 66
     1
 10
0.0
 20
0.0
 30
0.0
  0
VERTEX
  5
5F2
  8
L_PLATE
 10
81.0005194692464
 20
-76.00065239150331
 30
0.0
  0
VERTEX
  5
5F3
  8
L_PLATE
 10
95.00104301175321
 20
-76.00065239150331
 30
0.0
  0
SEQEND
  5
5F4
  8
L_PLATE
  0
POLYLINE
  5
5F5
  8
L_PLATE
 66
     1
 10
0.0
 20
0.0
 30
0.0
  0
VERTEX
  5
5F6
  8
L_PLATE
 10
76.79957003453275
 20
-85.50015868253122
 30
0.0
  0
VERTEX
  5
5F7
  8
L_PLATE
 10
76.79957003453275
 20
-81.99994166951738
 30
0.0
  0
SEQEND
  5
5F8
  8
L_PLATE
  0
POLYLINE
  5
5F9
  8
L_PLATE
 66
     1
 10
0.0
 20
0.0
 30
0.0
  0
VERTEX
  5
5FA
  8
L_PLATE
 10
61.20155571551558
 20
-93.99886473509405
 30
0.0
  0
VERTEX
  5
5FB
  8
L_PLATE
 10
61.20155571551558
 20
-90.49899223162873
 30
0.0
  0
SEQEND
  5
5FC
  8
L_PLATE
  0
POLYLINE
  5
5FD
  8
L_PLATE
 66
     1
 10
0.0
 20
0.0
 30
0.0
  0
VERTEX
  5
5FE
  8
L_PLATE
 10
61.20155571551558
 20
-90.49899223162873
 30
0.0
  0
VERTEX
  5
5FF
  8
L_PLATE
 10
61.99909532035092
 20
-90.49899223162873
 30
0.0
  0
SEQEND
  5
600
  8
L_PLATE
  0
POLYLINE
  5
601
  8
L_PLATE
 66
     1
 10
0.0
 20
0.0
 30
0.0
  0
VERTEX
  5
602
  8
L_PLATE
 10
61.20155571551558
 20
-93.99886473509405
 30
0.0
  0
VERTEX
  5
603
  8
L_PLATE
 10
61.99909532035092
 20
-93.99886473509405
 30
0.0
  0
SEQEND
  5
604
  8
L_PLATE
  0
POLYLINE
  5
605
  8
L_PLATE
 66
     1
 10
0.0
 20
0.0
 30
0.0
  0
VERTEX
  5
606
  8
L_PLATE
 10
61.20155571551558
 20
-85.50015868253122
 30
0.0
  0
VERTEX
  5
607
  8
L_PLATE
 10
61.99909532035092
 20
-85.50015868253122
 30
0.0
  0
SEQEND
  5
608
  8
L_PLATE
  0
POLYLINE
  5
609
  8
L_PLATE
 66
     1
 10
0.0
 20
0.0
 30
0.0
  0
VERTEX
  5
60A
  8
L_PLATE
 10
61.20155571551558
 20
-81.99994166951738
 30
0.0
  0
VERTEX
  5
60B
  8
L_PLATE
 10
61.99909532035092
 20
-81.99994166951738
 30
0.0
  0
SEQEND
  5
60C
  8
L_PLATE
  0
POLYLINE
  5
60D
  8
L_PLATE
 66
     1
 10
0.0
 20
0.0
 30
0.0
  0
VERTEX
  5
60E
  8
L_PLATE
 10
75.9992743533092
 20
-81.99994166951738
 30
0.0
  0
VERTEX
  5
60F
  8
L_PLATE
 10
76.79957003453275
 20
-81.99994166951738
 30
0.0
  0
SEQEND
  5
610
  8
L_PLATE
  0
POLYLINE
  5
611
  8
L_PLATE
 66
     1
 10
0.0
 20
0.0
 30
0.0
  0
VERTEX
  5
612
  8
L_PLATE
 10
75.9992743533092
 20
-85.50015868253122
 30
0.0
  0
VERTEX
  5
613
  8
L_PLATE
 10
76.79957003453275
 20
-85.50015868253122
 30
0.0
  0
SEQEND
  5
614
  8
L_PLATE
  0
POLYLINE
  5
615
  8
L_PLATE
 66
     1
 10
0.0
 20
0.0
 30
0.0
  0
VERTEX
  5
616
  8
L_PLATE
 10
75.9992743533092
 20
-93.99886473509405
 30
0.0
  0
VERTEX
  5
617
  8
L_PLATE
 10
76.79957003453275
 20
-93.99886473509405
 30
0.0
  0
SEQEND
  5
618
  8
L_PLATE
  0
POLYLINE
  5
619
  8
L_PLATE
 66
     1
 10
0.0
 20
0.0
 30
0.0
  0
VERTEX
  5
61A
  8
L_PLATE
 10
75.9992743533092
 20
-90.49899223162873
 30
0.0
  0
VERTEX
  5
61B
  8
L_PLATE
 10
76.79957003453275
 20
-90.49899223162873
 30
0.0
  0
SEQEND
  5
61C
  8
L_PLATE
  0
POLYLINE
  5
61D
  8
L_PLATE
 66
     1
 10
0.0
 20
0.0
 30
0.0
  0
VERTEX
  5
61E
  8
L_PLATE
 10
61.99909532035092
 20
-81.99994166951738
 30
0.0
  0
VERTEX
  5
61F
  8
L_PLATE
 10
61.99909532035092
 20
-80.99914143105231
 30
0.0
  0
SEQEND
  5
620
  8
L_PLATE
  0
POLYLINE
  5
621
  8
L_PLATE
 66
     1
 10
0.0
 20
0.0
 30
0.0
  0
VERTEX
  5
622
  8
L_PLATE
 10
61.99909532035092
 20
-94.99966497355912
 30
0.0
  0
VERTEX
  5
623
  8
L_PLATE
 10
61.99909532035092
 20
-93.99886473509405
 30
0.0
  0
SEQEND
  5
624
  8
L_PLATE
  0
POLYLINE
  5
625
  8
L_PLATE
 66
     1
 10
0.0
 20
0.0
 30
0.0
  0
VERTEX
  5
626
  8
L_PLATE
 10
61.99909532035092
 20
-85.50015868253122
 30
0.0
  0
VERTEX
  5
627
  8
L_PLATE
 10
61.99909532035092
 20
-90.49899223162873
 30
0.0
  0
SEQEND
  5
628
  8
L_PLATE
  0
POLYLINE
  5
629
  8
L_PLATE
 66
     1
 10
0.0
 20
0.0
 30
0.0
  0
VERTEX
  5
62A
  8
L_PLATE
 10
61.99909532035092
 20
-94.99966497355912
 30
0.0
  0
VERTEX
  5
62B
  8
L_PLATE
 10
75.9992743533092
 20
-94.99966497355912
 30
0.0
  0
SEQEND
  5
62C
  8
L_PLATE
  0
POLYLINE
  5
62D
  8
L_PLATE
 66
     1
 10
0.0
 20
0.0
 30
0.0
  0
VERTEX
  5
62E
  8
L_PLATE
 10
75.9992743533092
 20
-85.50015868253122
 30
0.0
  0
VERTEX
  5
62F
  8
L_PLATE
 10
75.9992743533092
 20
-90.49899223162873
 30
0.0
  0
SEQEND
  5
630
  8
L_PLATE
  0
POLYLINE
  5
631
  8
L_PLATE
 66
     1
 10
0.0
 20
0.0
 30
0.0
  0
VERTEX
  5
632
  8
L_PLATE
 10
75.9992743533092
 20
-94.99966497355912
 30
0.0
  0
VERTEX
  5
633
  8
L_PLATE
 10
75.9992743533092
 20
-93.99886473509405
 30
0.0
  0
SEQEND
  5
634
  8
L_PLATE
  0
POLYLINE
  5
635
  8
L_PLATE
 66
     1
 10
0.0
 20
0.0
 30
0.0
  0
VERTEX
  5
636
  8
L_PLATE
 10
76.79957003453275
 20
-93.99886473509405
 30
0.0
  0
VERTEX
  5
637
  8
L_PLATE
 10
76.79957003453275
 20
-90.49899223162873
 30
0.0
  0
SEQEND
  5
638
  8
L_PLATE
  0
POLYLINE
  5
639
  8
L_PLATE
 66
     1
 10
0.0
 20
0.0
 30
0.0
  0
VERTEX
  5
63A
  8
L_PLATE
 10
61.20155571551558
 20
-85.50015868253122
 30
0.0
  0
VERTEX
  5
63B
  8
L_PLATE
 10
61.20155571551558
 20
-81.99994166951738
 30
0.0
  0
SEQEND
  5
63C
  8
L_PLATE
  0
POLYLINE
  5
63D
  8
L_PLATE
 66
     1
 10
0.0
 20
0.0
 30
0.0
  0
VERTEX
  5
63E
  8
L_PLATE
 10
75.9992743533092
 20
-81.99994166951738
 30
0.0
  0
VERTEX
  5
63F
  8
L_PLATE
 10
75.9992743533092
 20
-80.99914143105231
 30
0.0
  0
SEQEND
  5
640
  8
L_PLATE
  0
POLYLINE
  5
641
  8
L_PLATE
 66
     1
 10
0.0
 20
0.0
 30
0.0
  0
VERTEX
  5
642
  8
L_PLATE
 10
61.99909532035092
 20
-80.99914143105231
 30
0.0
  0
VERTEX
  5
643
  8
L_PLATE
 10
75.9992743533092
 20
-80.99914143105231
 30
0.0
  0
SEQEND
  5
644
  8
L_PLATE
  0
POLYLINE
  5
645
  8
L_PLATE
 66
     1
 10
0.0
 20
0.0
 30
0.0
  0
VERTEX
  5
646
  8
L_PLATE
 10
152.8011325155324
 20
-67.4991902625523
 30
0.0
  0
VERTEX
  5
647
  8
L_PLATE
 10
152.8011325155324
 20
-63.99897324953847
 30
0.0
  0
SEQEND
  5
648
  8
L_PLATE
  0
POLYLINE
  5
649
  8
L_PLATE
 66
     1
 10
0.0
 20
0.0
 30
0.0
  0
VERTEX
  5
64A
  8
L_PLATE
 10
137.2007066296755
 20
-76.00065239150331
 30
0.0
  0
VERTEX
  5
64B
  8
L_PLATE
 10
137.2007066296755
 20
-72.50043537848948
 30
0.0
  0
SEQEND
  5
64C
  8
L_PLATE
  0
POLYLINE
  5
64D
  8
L_PLATE
 66
     1
 10
0.0
 20
0.0
 30
0.0
  0
VERTEX
  5
64E
  8
L_PLATE
 10
137.2007066296755
 20
-72.50043537848948
 30
0.0
  0
VERTEX
  5
64F
  8
L_PLATE
 10
138.0006578013505
 20
-72.50043537848948
 30
0.0
  0
SEQEND
  5
650
  8
L_PLATE
  0
POLYLINE
  5
651
  8
L_PLATE
 66
     1
 10
0.0
 20
0.0
 30
0.0
  0
VERTEX
  5
652
  8
L_PLATE
 10
137.2007066296755
 20
-76.00065239150331
 30
0.0
  0
VERTEX
  5
653
  8
L_PLATE
 10
138.0006578013505
 20
-76.00065239150331
 30
0.0
  0
SEQEND
  5
654
  8
L_PLATE
  0
POLYLINE
  5
655
  8
L_PLATE
 66
     1
 10
0.0
 20
0.0
 30
0.0
  0
VERTEX
  5
656
  8
L_PLATE
 10
137.2007066296755
 20
-67.4991902625523
 30
0.0
  0
VERTEX
  5
657
  8
L_PLATE
 10
138.0006578013505
 20
-67.4991902625523
 30
0.0
  0
SEQEND
  5
658
  8
L_PLATE
  0
POLYLINE
  5
659
  8
L_PLATE
 66
     1
 10
0.0
 20
0.0
 30
0.0
  0
VERTEX
  5
65A
  8
L_PLATE
 10
137.2007066296755
 20
-63.99897324953847
 30
0.0
  0
VERTEX
  5
65B
  8
L_PLATE
 10
138.0006578013505
 20
-63.99897324953847
 30
0.0
  0
SEQEND
  5
65C
  8
L_PLATE
  0
POLYLINE
  5
65D
  8
L_PLATE
 66
     1
 10
0.0
 20
0.0
 30
0.0
  0
VERTEX
  5
65E
  8
L_PLATE
 10
152.0011813438574
 20
-63.99897324953847
 30
0.0
  0
VERTEX
  5
65F
  8
L_PLATE
 10
152.8011325155324
 20
-63.99897324953847
 30
0.0
  0
SEQEND
  5
660
  8
L_PLATE
  0
POLYLINE
  5
661
  8
L_PLATE
 66
     1
 10
0.0
 20
0.0
 30
0.0
  0
VERTEX
  5
662
  8
L_PLATE
 10
152.0011813438574
 20
-67.4991902625523
 30
0.0
  0
VERTEX
  5
663
  8
L_PLATE
 10
152.8011325155324
 20
-67.4991902625523
 30
0.0
  0
SEQEND
  5
664
  8
L_PLATE
  0
POLYLINE
  5
665
  8
L_PLATE
 66
     1
 10
0.0
 20
0.0
 30
0.0
  0
VERTEX
  5
666
  8
L_PLATE
 10
152.0011813438574
 20
-76.00065239150331
 30
0.0
  0
VERTEX
  5
667
  8
L_PLATE
 10
152.8011325155324
 20
-76.00065239150331
 30
0.0
  0
SEQEND
  5
668
  8
L_PLATE
  0
POLYLINE
  5
669
  8
L_PLATE
 66
     1
 10
0.0
 20
0.0
 30
0.0
  0
VERTEX
  5
66A
  8
L_PLATE
 10
152.0011813438574
 20
-72.50043537848948
 30
0.0
  0
VERTEX
  5
66B
  8
L_PLATE
 10
152.8011325155324
 20
-72.50043537848948
 30
0.0
  0
SEQEND
  5
66C
  8
L_PLATE
  0
POLYLINE
  5
66D
  8
L_PLATE
 66
     1
 10
0.0
 20
0.0
 30
0.0
  0
VERTEX
  5
66E
  8
L_PLATE
 10
138.0006578013505
 20
-63.99897324953847
 30
0.0
  0
VERTEX
  5
66F
  8
L_PLATE
 10
138.0006578013505
 20
-63.00092908746157
 30
0.0
  0
SEQEND
  5
670
  8
L_PLATE
  0
POLYLINE
  5
671
  8
L_PLATE
 66
     1
 10
0.0
 20
0.0
 30
0.0
  0
VERTEX
  5
672
  8
L_PLATE
 10
138.0006578013505
 20
-76.99869655358019
 30
0.0
  0
VERTEX
  5
673
  8
L_PLATE
 10
138.0006578013505
 20
-76.00065239150331
 30
0.0
  0
SEQEND
  5
674
  8
L_PLATE
  0
POLYLINE
  5
675
  8
L_PLATE
 66
     1
 10
0.0
 20
0.0
 30
0.0
  0
VERTEX
  5
676
  8
L_PLATE
 10
138.0006578013505
 20
-67.4991902625523
 30
0.0
  0
VERTEX
  5
677
  8
L_PLATE
 10
138.0006578013505
 20
-72.50043537848948
 30
0.0
  0
SEQEND
  5
678
  8
L_PLATE
  0
POLYLINE
  5
679
  8
L_PLATE
 66
     1
 10
0.0
 20
0.0
 30
0.0
  0
VERTEX
  5
67A
  8
L_PLATE
 10
138.0006578013505
 20
-76.99869655358019
 30
0.0
  0
VERTEX
  5
67B
  8
L_PLATE
 10
152.0011813438574
 20
-76.99869655358019
 30
0.0
  0
SEQEND
  5
67C
  8
L_PLATE
  0
POLYLINE
  5
67D
  8
L_PLATE
 66
     1
 10
0.0
 20
0.0
 30
0.0
  0
VERTEX
  5
67E
  8
L_PLATE
 10
152.0011813438574
 20
-67.4991902625523
 30
0.0
  0
VERTEX
  5
67F
  8
L_PLATE
 10
152.0011813438574
 20
-72.50043537848948
 30
0.0
  0
SEQEND
  5
680
  8
L_PLATE
  0
POLYLINE
  5
681
  8
L_PLATE
 66
     1
 10
0.0
 20
0.0
 30
0.0
  0
VERTEX
  5
682
  8
L_PLATE
 10
152.0011813438574
 20
-76.99869655358019
 30
0.0
  0
VERTEX
  5
683
  8
L_PLATE
 10
152.0011813438574
 20
-76.00065239150331
 30
0.0
  0
SEQEND
  5
684
  8
L_PLATE
  0
POLYLINE
  5
685
  8
L_PLATE
 66
     1
 10
0.0
 20
0.0
 30
0.0
  0
VERTEX
  5
686
  8
L_PLATE
 10
152.8011325155324
 20
-76.00065239150331
 30
0.0
  0
VERTEX
  5
687
  8
L_PLATE
 10
152.8011325155324
 20
-72.50043537848948
 30
0.0
  0
SEQEND
  5
688
  8
L_PLATE
  0
POLYLINE
  5
689
  8
L_PLATE
 66
     1
 10
0.0
 20
0.0
 30
0.0
  0
VERTEX
  5
68A
  8
L_PLATE
 10
137.2007066296755
 20
-67.4991902625523
 30
0.0
  0
VERTEX
  5
68B
  8
L_PLATE
 10
137.2007066296755
 20
-63.99897324953847
 30
0.0
  0
SEQEND
  5
68C
  8
L_PLATE
  0
POLYLINE
  5
68D
  8
L_PLATE
 66
     1
 10
0.0
 20
0.0
 30
0.0
  0
VERTEX
  5
68E
  8
L_PLATE
 10
152.0011813438574
 20
-63.99897324953847
 30
0.0
  0
VERTEX
  5
68F
  8
L_PLATE
 10
152.0011813438574
 20
-63.00092908746157
 30
0.0
  0
SEQEND
  5
690
  8
L_PLATE
  0
POLYLINE
  5
691
  8
L_PLATE
 66
     1
 10
0.0
 20
0.0
 30
0.0
  0
VERTEX
  5
692
  8
L_PLATE
 10
138.0006578013505
 20
-63.00092908746157
 30
0.0
  0
VERTEX
  5
693
  8
L_PLATE
 10
152.0011813438574
 20
-63.00092908746157
 30
0.0
  0
SEQEND
  5
694
  8
L_PLATE
  0
POLYLINE
  5
695
  8
L_PLATE
 66
     1
 10
0.0
 20
0.0
 30
0.0
  0
VERTEX
  5
696
  8
L_PLATE
 10
133.7993638570884
 20
-63.49874538508018
 30
0.0
  0
VERTEX
  5
697
  8
L_PLATE
 10
133.7993638570884
 20
-59.99852837206635
 30
0.0
  0
SEQEND
  5
698
  8
L_PLATE
  0
POLYLINE
  5
699
  8
L_PLATE
 66
     1
 10
0.0
 20
0.0
 30
0.0
  0
VERTEX
  5
69A
  8
L_PLATE
 10
118.1989379712315
 20
-72.0002075140312
 30
0.0
  0
VERTEX
  5
69B
  8
L_PLATE
 10
118.1989379712315
 20
-68.49999050101738
 30
0.0
  0
SEQEND
  5
69C
  8
L_PLATE
  0
POLYLINE
  5
69D
  8
L_PLATE
 66
     1
 10
0.0
 20
0.0
 30
0.0
  0
VERTEX
  5
69E
  8
L_PLATE
 10
118.1989379712315
 20
-68.49999050101738
 30
0.0
  0
VERTEX
  5
69F
  8
L_PLATE
 10
118.9988891429065
 20
-68.49999050101738
 30
0.0
  0
SEQEND
  5
6A0
  8
L_PLATE
  0
POLYLINE
  5
6A1
  8
L_PLATE
 66
     1
 10
0.0
 20
0.0
 30
0.0
  0
VERTEX
  5
6A2
  8
L_PLATE
 10
118.1989379712315
 20
-72.0002075140312
 30
0.0
  0
VERTEX
  5
6A3
  8
L_PLATE
 10
118.9988891429065
 20
-72.0002075140312
 30
0.0
  0
SEQEND
  5
6A4
  8
L_PLATE
  0
POLYLINE
  5
6A5
  8
L_PLATE
 66
     1
 10
0.0
 20
0.0
 30
0.0
  0
VERTEX
  5
6A6
  8
L_PLATE
 10
118.1989379712315
 20
-63.49874538508018
 30
0.0
  0
VERTEX
  5
6A7
  8
L_PLATE
 10
118.9988891429065
 20
-63.49874538508018
 30
0.0
  0
SEQEND
  5
6A8
  8
L_PLATE
  0
POLYLINE
  5
6A9
  8
L_PLATE
 66
     1
 10
0.0
 20
0.0
 30
0.0
  0
VERTEX
  5
6AA
  8
L_PLATE
 10
118.1989379712315
 20
-59.99852837206635
 30
0.0
  0
VERTEX
  5
6AB
  8
L_PLATE
 10
118.9988891429065
 20
-59.99852837206635
 30
0.0
  0
SEQEND
  5
6AC
  8
L_PLATE
  0
POLYLINE
  5
6AD
  8
L_PLATE
 66
     1
 10
0.0
 20
0.0
 30
0.0
  0
VERTEX
  5
6AE
  8
L_PLATE
 10
132.9994126854133
 20
-59.99852837206635
 30
0.0
  0
VERTEX
  5
6AF
  8
L_PLATE
 10
133.7993638570884
 20
-59.99852837206635
 30
0.0
  0
SEQEND
  5
6B0
  8
L_PLATE
  0
POLYLINE
  5
6B1
  8
L_PLATE
 66
     1
 10
0.0
 20
0.0
 30
0.0
  0
VERTEX
  5
6B2
  8
L_PLATE
 10
132.9994126854133
 20
-63.49874538508018
 30
0.0
  0
VERTEX
  5
6B3
  8
L_PLATE
 10
133.7993638570884
 20
-63.49874538508018
 30
0.0
  0
SEQEND
  5
6B4
  8
L_PLATE
  0
POLYLINE
  5
6B5
  8
L_PLATE
 66
     1
 10
0.0
 20
0.0
 30
0.0
  0
VERTEX
  5
6B6
  8
L_PLATE
 10
132.9994126854133
 20
-72.0002075140312
 30
0.0
  0
VERTEX
  5
6B7
  8
L_PLATE
 10
133.7993638570884
 20
-72.0002075140312
 30
0.0
  0
SEQEND
  5
6B8
  8
L_PLATE
  0
POLYLINE
  5
6B9
  8
L_PLATE
 66
     1
 10
0.0
 20
0.0
 30
0.0
  0
VERTEX
  5
6BA
  8
L_PLATE
 10
132.9994126854133
 20
-68.49999050101738
 30
0.0
  0
VERTEX
  5
6BB
  8
L_PLATE
 10
133.7993638570884
 20
-68.49999050101738
 30
0.0
  0
SEQEND
  5
6BC
  8
L_PLATE
  0
POLYLINE
  5
6BD
  8
L_PLATE
 66
     1
 10
0.0
 20
0.0
 30
0.0
  0
VERTEX
  5
6BE
  8
L_PLATE
 10
118.9988891429065
 20
-59.99852837206635
 30
0.0
  0
VERTEX
  5
6BF
  8
L_PLATE
 10
118.9988891429065
 20
-59.00048420998948
 30
0.0
  0
SEQEND
  5
6C0
  8
L_PLATE
  0
POLYLINE
  5
6C1
  8
L_PLATE
 66
     1
 10
0.0
 20
0.0
 30
0.0
  0
VERTEX
  5
6C2
  8
L_PLATE
 10
118.9988891429065
 20
-73.00066324294775
 30
0.0
  0
VERTEX
  5
6C3
  8
L_PLATE
 10
118.9988891429065
 20
-72.0002075140312
 30
0.0
  0
SEQEND
  5
6C4
  8
L_PLATE
  0
POLYLINE
  5
6C5
  8
L_PLATE
 66
     1
 10
0.0
 20
0.0
 30
0.0
  0
VERTEX
  5
6C6
  8
L_PLATE
 10
118.9988891429065
 20
-63.49874538508018
 30
0.0
  0
VERTEX
  5
6C7
  8
L_PLATE
 10
118.9988891429065
 20
-68.49999050101738
 30
0.0
  0
SEQEND
  5
6C8
  8
L_PLATE
  0
POLYLINE
  5
6C9
  8
L_PLATE
 66
     1
 10
0.0
 20
0.0
 30
0.0
  0
VERTEX
  5
6CA
  8
L_PLATE
 10
118.9988891429065
 20
-73.00066324294775
 30
0.0
  0
VERTEX
  5
6CB
  8
L_PLATE
 10
132.9994126854133
 20
-73.00066324294775
 30
0.0
  0
SEQEND
  5
6CC
  8
L_PLATE
  0
POLYLINE
  5
6CD
  8
L_PLATE
 66
     1
 10
0.0
 20
0.0
 30
0.0
  0
VERTEX
  5
6CE
  8
L_PLATE
 10
132.9994126854133
 20
-63.49874538508018
 30
0.0
  0
VERTEX
  5
6CF
  8
L_PLATE
 10
132.9994126854133
 20
-68.49999050101738
 30
0.0
  0
SEQEND
  5
6D0
  8
L_PLATE
  0
POLYLINE
  5
6D1
  8
L_PLATE
 66
     1
 10
0.0
 20
0.0
 30
0.0
  0
VERTEX
  5
6D2
  8
L_PLATE
 10
132.9994126854133
 20
-73.00066324294775
 30
0.0
  0
VERTEX
  5
6D3
  8
L_PLATE
 10
132.9994126854133
 20
-72.0002075140312
 30
0.0
  0
SEQEND
  5
6D4
  8
L_PLATE
  0
POLYLINE
  5
6D5
  8
L_PLATE
 66
     1
 10
0.0
 20
0.0
 30
0.0
  0
VERTEX
  5
6D6
  8
L_PLATE
 10
133.7993638570884
 20
-72.0002075140312
 30
0.0
  0
VERTEX
  5
6D7
  8
L_PLATE
 10
133.7993638570884
 20
-68.49999050101738
 30
0.0
  0
SEQEND
  5
6D8
  8
L_PLATE
  0
POLYLINE
  5
6D9
  8
L_PLATE
 66
     1
 10
0.0
 20
0.0
 30
0.0
  0
VERTEX
  5
6DA
  8
L_PLATE
 10
118.1989379712315
 20
-63.49874538508018
 30
0.0
  0
VERTEX
  5
6DB
  8
L_PLATE
 10
118.1989379712315
 20
-59.99852837206635
 30
0.0
  0
SEQEND
  5
6DC
  8
L_PLATE
  0
POLYLINE
  5
6DD
  8
L_PLATE
 66
     1
 10
0.0
 20
0.0
 30
0.0
  0
VERTEX
  5
6DE
  8
L_PLATE
 10
132.9994126854133
 20
-59.99852837206635
 30
0.0
  0
VERTEX
  5
6DF
  8
L_PLATE
 10
132.9994126854133
 20
-59.00048420998948
 30
0.0
  0
SEQEND
  5
6E0
  8
L_PLATE
  0
POLYLINE
  5
6E1
  8
L_PLATE
 66
     1
 10
0.0
 20
0.0
 30
0.0
  0
VERTEX
  5
6E2
  8
L_PLATE
 10
118.9988891429065
 20
-59.00048420998948
 30
0.0
  0
VERTEX
  5
6E3
  8
L_PLATE
 10
132.9994126854133
 20
-59.00048420998948
 30
0.0
  0
SEQEND
  5
6E4
  8
L_PLATE
  0
POLYLINE
  5
6E5
  8
L_PLATE
 66
     1
 10
0.0
 20
0.0
 30
0.0
  0
VERTEX
  5
6E6
  8
L_PLATE
 10
114.8003512750325
 20
-56.49865586860105
 30
0.0
  0
VERTEX
  5
6E7
  8
L_PLATE
 10
114.8003512750325
 20
-53.00085042242688
 30
0.0
  0
SEQEND
  5
6E8
  8
L_PLATE
  0
POLYLINE
  5
6E9
  8
L_PLATE
 66
     1
 10
0.0
 20
0.0
 30
0.0
  0
VERTEX
  5
6EA
  8
L_PLATE
 10
99.19958087962718
 20
-64.99977348800354
 30
0.0
  0
VERTEX
  5
6EB
  8
L_PLATE
 10
99.19958087962718
 20
-61.49990098453821
 30
0.0
  0
SEQEND
  5
6EC
  8
L_PLATE
  0
POLYLINE
  5
6ED
  8
L_PLATE
 66
     1
 10
0.0
 20
0.0
 30
0.0
  0
VERTEX
  5
6EE
  8
L_PLATE
 10
99.19958087962718
 20
-61.49990098453821
 30
0.0
  0
VERTEX
  5
6EF
  8
L_PLATE
 10
99.99987656085074
 20
-61.49990098453821
 30
0.0
  0
SEQEND
  5
6F0
  8
L_PLATE
  0
POLYLINE
  5
6F1
  8
L_PLATE
 66
     1
 10
0.0
 20
0.0
 30
0.0
  0
VERTEX
  5
6F2
  8
L_PLATE
 10
99.19958087962718
 20
-64.99977348800354
 30
0.0
  0
VERTEX
  5
6F3
  8
L_PLATE
 10
99.99987656085074
 20
-64.99977348800354
 30
0.0
  0
SEQEND
  5
6F4
  8
L_PLATE
  0
POLYLINE
  5
6F5
  8
L_PLATE
 66
     1
 10
0.0
 20
0.0
 30
0.0
  0
VERTEX
  5
6F6
  8
L_PLATE
 10
99.19958087962718
 20
-56.49865586860105
 30
0.0
  0
VERTEX
  5
6F7
  8
L_PLATE
 10
99.99987656085074
 20
-56.49865586860105
 30
0.0
  0
SEQEND
  5
6F8
  8
L_PLATE
  0
POLYLINE
  5
6F9
  8
L_PLATE
 66
     1
 10
0.0
 20
0.0
 30
0.0
  0
VERTEX
  5
6FA
  8
L_PLATE
 10
99.19958087962718
 20
-53.00085042242688
 30
0.0
  0
VERTEX
  5
6FB
  8
L_PLATE
 10
99.99987656085074
 20
-53.00085042242688
 30
0.0
  0
SEQEND
  5
6FC
  8
L_PLATE
  0
POLYLINE
  5
6FD
  8
L_PLATE
 66
     1
 10
0.0
 20
0.0
 30
0.0
  0
VERTEX
  5
6FE
  8
L_PLATE
 10
114.0004001033575
 20
-53.00085042242688
 30
0.0
  0
VERTEX
  5
6FF
  8
L_PLATE
 10
114.8003512750325
 20
-53.00085042242688
 30
0.0
  0
SEQEND
  5
700
  8
L_PLATE
  0
POLYLINE
  5
701
  8
L_PLATE
 66
     1
 10
0.0
 20
0.0
 30
0.0
  0
VERTEX
  5
702
  8
L_PLATE
 10
114.0004001033575
 20
-56.49865586860105
 30
0.0
  0
VERTEX
  5
703
  8
L_PLATE
 10
114.8003512750325
 20
-56.49865586860105
 30
0.0
  0
SEQEND
  5
704
  8
L_PLATE
  0
POLYLINE
  5
705
  8
L_PLATE
 66
     1
 10
0.0
 20
0.0
 30
0.0
  0
VERTEX
  5
706
  8
L_PLATE
 10
114.0004001033575
 20
-64.99977348800354
 30
0.0
  0
VERTEX
  5
707
  8
L_PLATE
 10
114.8003512750325
 20
-64.99977348800354
 30
0.0
  0
SEQEND
  5
708
  8
L_PLATE
  0
POLYLINE
  5
709
  8
L_PLATE
 66
     1
 10
0.0
 20
0.0
 30
0.0
  0
VERTEX
  5
70A
  8
L_PLATE
 10
114.0004001033575
 20
-61.49990098453821
 30
0.0
  0
VERTEX
  5
70B
  8
L_PLATE
 10
114.8003512750325
 20
-61.49990098453821
 30
0.0
  0
SEQEND
  5
70C
  8
L_PLATE
  0
POLYLINE
  5
70D
  8
L_PLATE
 66
     1
 10
0.0
 20
0.0
 30
0.0
  0
VERTEX
  5
70E
  8
L_PLATE
 10
99.99987656085074
 20
-53.00085042242688
 30
0.0
  0
VERTEX
  5
70F
  8
L_PLATE
 10
99.99987656085074
 20
-52.0000501839618
 30
0.0
  0
SEQEND
  5
710
  8
L_PLATE
  0
POLYLINE
  5
711
  8
L_PLATE
 66
     1
 10
0.0
 20
0.0
 30
0.0
  0
VERTEX
  5
712
  8
L_PLATE
 10
99.99987656085074
 20
-66.00057372646862
 30
0.0
  0
VERTEX
  5
713
  8
L_PLATE
 10
99.99987656085074
 20
-64.99977348800354
 30
0.0
  0
SEQEND
  5
714
  8
L_PLATE
  0
POLYLINE
  5
715
  8
L_PLATE
 66
     1
 10
0.0
 20
0.0
 30
0.0
  0
VERTEX
  5
716
  8
L_PLATE
 10
99.99987656085074
 20
-56.49865586860105
 30
0.0
  0
VERTEX
  5
717
  8
L_PLATE
 10
99.99987656085074
 20
-61.49990098453821
 30
0.0
  0
SEQEND
  5
718
  8
L_PLATE
  0
POLYLINE
  5
719
  8
L_PLATE
 66
     1
 10
0.0
 20
0.0
 30
0.0
  0
VERTEX
  5
71A
  8
L_PLATE
 10
99.99987656085074
 20
-66.00057372646862
 30
0.0
  0
VERTEX
  5
71B
  8
L_PLATE
 10
114.0004001033575
 20
-66.00057372646862
 30
0.0
  0
SEQEND
  5
71C
  8
L_PLATE
  0
POLYLINE
  5
71D
  8
L_PLATE
 66
     1
 10
0.0
 20
0.0
 30
0.0
  0
VERTEX
  5
71E
  8
L_PLATE
 10
114.0004001033575
 20
-56.49865586860105
 30
0.0
  0
VERTEX
  5
71F
  8
L_PLATE
 10
114.0004001033575
 20
-61.49990098453821
 30
0.0
  0
SEQEND
  5
720
  8
L_PLATE
  0
POLYLINE
  5
721
  8
L_PLATE
 66
     1
 10
0.0
 20
0.0
 30
0.0
  0
VERTEX
  5
722
  8
L_PLATE
 10
114.0004001033575
 20
-66.00057372646862
 30
0.0
  0
VERTEX
  5
723
  8
L_PLATE
 10
114.0004001033575
 20
-64.99977348800354
 30
0.0
  0
SEQEND
  5
724
  8
L_PLATE
  0
POLYLINE
  5
725
  8
L_PLATE
 66
     1
 10
0.0
 20
0.0
 30
0.0
  0
VERTEX
  5
726
  8
L_PLATE
 10
114.8003512750325
 20
-64.99977348800354
 30
0.0
  0
VERTEX
  5
727
  8
L_PLATE
 10
114.8003512750325
 20
-61.49990098453821
 30
0.0
  0
SEQEND
  5
728
  8
L_PLATE
  0
POLYLINE
  5
729
  8
L_PLATE
 66
     1
 10
0.0
 20
0.0
 30
0.0
  0
VERTEX
  5
72A
  8
L_PLATE
 10
99.19958087962718
 20
-56.49865586860105
 30
0.0
  0
VERTEX
  5
72B
  8
L_PLATE
 10
99.19958087962718
 20
-53.00085042242688
 30
0.0
  0
SEQEND
  5
72C
  8
L_PLATE
  0
POLYLINE
  5
72D
  8
L_PLATE
 66
     1
 10
0.0
 20
0.0
 30
0.0
  0
VERTEX
  5
72E
  8
L_PLATE
 10
114.0004001033575
 20
-53.00085042242688
 30
0.0
  0
VERTEX
  5
72F
  8
L_PLATE
 10
114.0004001033575
 20
-52.0000501839618
 30
0.0
  0
SEQEND
  5
730
  8
L_PLATE
  0
POLYLINE
  5
731
  8
L_PLATE
 66
     1
 10
0.0
 20
0.0
 30
0.0
  0
VERTEX
  5
732
  8
L_PLATE
 10
99.99987656085074
 20
-52.0000501839618
 30
0.0
  0
VERTEX
  5
733
  8
L_PLATE
 10
114.0004001033575
 20
-52.0000501839618
 30
0.0
  0
SEQEND
  5
734
  8
L_PLATE
  0
POLYLINE
  5
735
  8
L_PLATE
 66
     1
 10
0.0
 20
0.0
 30
0.0
  0
VERTEX
  5
736
  8
L_PLATE
 10
95.80133869297674
 20
-61.49990098453821
 30
0.0
  0
VERTEX
  5
737
  8
L_PLATE
 10
95.80133869297674
 20
-57.99968397152438
 30
0.0
  0
SEQEND
  5
738
  8
L_PLATE
  0
POLYLINE
  5
739
  8
L_PLATE
 66
     1
 10
0.0
 20
0.0
 30
0.0
  0
VERTEX
  5
73A
  8
L_PLATE
 10
80.20056829757138
 20
-69.99860703710104
 30
0.0
  0
VERTEX
  5
73B
  8
L_PLATE
 10
80.20056829757138
 20
-66.4983900240872
 30
0.0
  0
SEQEND
  5
73C
  8
L_PLATE
  0
POLYLINE
  5
73D
  8
L_PLATE
 66
     1
 10
0.0
 20
0.0
 30
0.0
  0
VERTEX
  5
73E
  8
L_PLATE
 10
80.20056829757138
 20
-66.4983900240872
 30
0.0
  0
VERTEX
  5
73F
  8
L_PLATE
 10
81.0005194692464
 20
-66.4983900240872
 30
0.0
  0
SEQEND
  5
740
  8
L_PLATE
  0
POLYLINE
  5
741
  8
L_PLATE
 66
     1
 10
0.0
 20
0.0
 30
0.0
  0
VERTEX
  5
742
  8
L_PLATE
 10
80.20056829757138
 20
-69.99860703710104
 30
0.0
  0
VERTEX
  5
743
  8
L_PLATE
 10
81.0005194692464
 20
-69.99860703710104
 30
0.0
  0
SEQEND
  5
744
  8
L_PLATE
  0
POLYLINE
  5
745
  8
L_PLATE
 66
     1
 10
0.0
 20
0.0
 30
0.0
  0
VERTEX
  5
746
  8
L_PLATE
 10
80.20056829757138
 20
-61.49990098453821
 30
0.0
  0
VERTEX
  5
747
  8
L_PLATE
 10
81.0005194692464
 20
-61.49990098453821
 30
0.0
  0
SEQEND
  5
748
  8
L_PLATE
  0
POLYLINE
  5
749
  8
L_PLATE
 66
     1
 10
0.0
 20
0.0
 30
0.0
  0
VERTEX
  5
74A
  8
L_PLATE
 10
80.20056829757138
 20
-57.99968397152438
 30
0.0
  0
VERTEX
  5
74B
  8
L_PLATE
 10
81.0005194692464
 20
-57.99968397152438
 30
0.0
  0
SEQEND
  5
74C
  8
L_PLATE
  0
POLYLINE
  5
74D
  8
L_PLATE
 66
     1
 10
0.0
 20
0.0
 30
0.0
  0
VERTEX
  5
74E
  8
L_PLATE
 10
95.00104301175321
 20
-57.99968397152438
 30
0.0
  0
VERTEX
  5
74F
  8
L_PLATE
 10
95.80133869297674
 20
-57.99968397152438
 30
0.0
  0
SEQEND
  5
750
  8
L_PLATE
  0
POLYLINE
  5
751
  8
L_PLATE
 66
     1
 10
0.0
 20
0.0
 30
0.0
  0
VERTEX
  5
752
  8
L_PLATE
 10
95.00104301175321
 20
-61.49990098453821
 30
0.0
  0
VERTEX
  5
753
  8
L_PLATE
 10
95.80133869297674
 20
-61.49990098453821
 30
0.0
  0
SEQEND
  5
754
  8
L_PLATE
  0
POLYLINE
  5
755
  8
L_PLATE
 66
     1
 10
0.0
 20
0.0
 30
0.0
  0
VERTEX
  5
756
  8
L_PLATE
 10
95.00104301175321
 20
-69.99860703710104
 30
0.0
  0
VERTEX
  5
757
  8
L_PLATE
 10
95.80133869297674
 20
-69.99860703710104
 30
0.0
  0
SEQEND
  5
758
  8
L_PLATE
  0
POLYLINE
  5
759
  8
L_PLATE
 66
     1
 10
0.0
 20
0.0
 30
0.0
  0
VERTEX
  5
75A
  8
L_PLATE
 10
95.00104301175321
 20
-66.4983900240872
 30
0.0
  0
VERTEX
  5
75B
  8
L_PLATE
 10
95.80133869297674
 20
-66.4983900240872
 30
0.0
  0
SEQEND
  5
75C
  8
L_PLATE
  0
POLYLINE
  5
75D
  8
L_PLATE
 66
     1
 10
0.0
 20
0.0
 30
0.0
  0
VERTEX
  5
75E
  8
L_PLATE
 10
81.0005194692464
 20
-57.99968397152438
 30
0.0
  0
VERTEX
  5
75F
  8
L_PLATE
 10
81.0005194692464
 20
-56.9988837330593
 30
0.0
  0
SEQEND
  5
760
  8
L_PLATE
  0
POLYLINE
  5
761
  8
L_PLATE
 66
     1
 10
0.0
 20
0.0
 30
0.0
  0
VERTEX
  5
762
  8
L_PLATE
 10
81.0005194692464
 20
-70.99940727556611
 30
0.0
  0
VERTEX
  5
763
  8
L_PLATE
 10
81.0005194692464
 20
-69.99860703710104
 30
0.0
  0
SEQEND
  5
764
  8
L_PLATE
  0
POLYLINE
  5
765
  8
L_PLATE
 66
     1
 10
0.0
 20
0.0
 30
0.0
  0
VERTEX
  5
766
  8
L_PLATE
 10
81.0005194692464
 20
-61.49990098453821
 30
0.0
  0
VERTEX
  5
767
  8
L_PLATE
 10
81.0005194692464
 20
-66.4983900240872
 30
0.0
  0
SEQEND
  5
768
  8
L_PLATE
  0
POLYLINE
  5
769
  8
L_PLATE
 66
     1
 10
0.0
 20
0.0
 30
0.0
  0
VERTEX
  5
76A
  8
L_PLATE
 10
81.0005194692464
 20
-70.99940727556611
 30
0.0
  0
VERTEX
  5
76B
  8
L_PLATE
 10
95.00104301175321
 20
-70.99940727556611
 30
0.0
  0
SEQEND
  5
76C
  8
L_PLATE
  0
POLYLINE
  5
76D
  8
L_PLATE
 66
     1
 10
0.0
 20
0.0
 30
0.0
  0
VERTEX
  5
76E
  8
L_PLATE
 10
95.00104301175321
 20
-61.49990098453821
 30
0.0
  0
VERTEX
  5
76F
  8
L_PLATE
 10
95.00104301175321
 20
-66.4983900240872
 30
0.0
  0
SEQEND
  5
770
  8
L_PLATE
  0
POLYLINE
  5
771
  8
L_PLATE
 66
     1
 10
0.0
 20
0.0
 30
0.0
  0
VERTEX
  5
772
  8
L_PLATE
 10
95.00104301175321
 20
-70.99940727556611
 30
0.0
  0
VERTEX
  5
773
  8
L_PLATE
 10
95.00104301175321
 20
-69.99860703710104
 30
0.0
  0
SEQEND
  5
774
  8
L_PLATE
  0
POLYLINE
  5
775
  8
L_PLATE
 66
     1
 10
0.0
 20
0.0
 30
0.0
  0
VERTEX
  5
776
  8
L_PLATE
 10
95.80133869297674
 20
-69.99860703710104
 30
0.0
  0
VERTEX
  5
777
  8
L_PLATE
 10
95.80133869297674
 20
-66.4983900240872
 30
0.0
  0
SEQEND
  5
778
  8
L_PLATE
  0
POLYLINE
  5
779
  8
L_PLATE
 66
     1
 10
0.0
 20
0.0
 30
0.0
  0
VERTEX
  5
77A
  8
L_PLATE
 10
80.20056829757138
 20
-61.49990098453821
 30
0.0
  0
VERTEX
  5
77B
  8
L_PLATE
 10
80.20056829757138
 20
-57.99968397152438
 30
0.0
  0
SEQEND
  5
77C
  8
L_PLATE
  0
POLYLINE
  5
77D
  8
L_PLATE
 66
     1
 10
0.0
 20
0.0
 30
0.0
  0
VERTEX
  5
77E
  8
L_PLATE
 10
95.00104301175321
 20
-57.99968397152438
 30
0.0
  0
VERTEX
  5
77F
  8
L_PLATE
 10
95.00104301175321
 20
-56.9988837330593
 30
0.0
  0
SEQEND
  5
780
  8
L_PLATE
  0
POLYLINE
  5
781
  8
L_PLATE
 66
     1
 10
0.0
 20
0.0
 30
0.0
  0
VERTEX
  5
782
  8
L_PLATE
 10
81.0005194692464
 20
-56.9988837330593
 30
0.0
  0
VERTEX
  5
783
  8
L_PLATE
 10
95.00104301175321
 20
-56.9988837330593
 30
0.0
  0
SEQEND
  5
784
  8
L_PLATE
  0
POLYLINE
  5
785
  8
L_PLATE
 66
     1
 10
0.0
 20
0.0
 30
0.0
  0
VERTEX
  5
786
  8
L_PLATE
 10
76.79957003453275
 20
-66.4983900240872
 30
0.0
  0
VERTEX
  5
787
  8
L_PLATE
 10
76.79957003453275
 20
-63.00092908746157
 30
0.0
  0
SEQEND
  5
788
  8
L_PLATE
  0
POLYLINE
  5
789
  8
L_PLATE
 66
     1
 10
0.0
 20
0.0
 30
0.0
  0
VERTEX
  5
78A
  8
L_PLATE
 10
61.20155571551558
 20
-74.99985215303823
 30
0.0
  0
VERTEX
  5
78B
  8
L_PLATE
 10
61.20155571551558
 20
-71.4996351400244
 30
0.0
  0
SEQEND
  5
78C
  8
L_PLATE
  0
POLYLINE
  5
78D
  8
L_PLATE
 66
     1
 10
0.0
 20
0.0
 30
0.0
  0
VERTEX
  5
78E
  8
L_PLATE
 10
61.20155571551558
 20
-71.4996351400244
 30
0.0
  0
VERTEX
  5
78F
  8
L_PLATE
 10
61.99909532035092
 20
-71.4996351400244
 30
0.0
  0
SEQEND
  5
790
  8
L_PLATE
  0
POLYLINE
  5
791
  8
L_PLATE
 66
     1
 10
0.0
 20
0.0
 30
0.0
  0
VERTEX
  5
792
  8
L_PLATE
 10
61.20155571551558
 20
-74.99985215303823
 30
0.0
  0
VERTEX
  5
793
  8
L_PLATE
 10
61.99909532035092
 20
-74.99985215303823
 30
0.0
  0
SEQEND
  5
794
  8
L_PLATE
  0
POLYLINE
  5
795
  8
L_PLATE
 66
     1
 10
0.0
 20
0.0
 30
0.0
  0
VERTEX
  5
796
  8
L_PLATE
 10
61.20155571551558
 20
-66.4983900240872
 30
0.0
  0
VERTEX
  5
797
  8
L_PLATE
 10
61.99909532035092
 20
-66.4983900240872
 30
0.0
  0
SEQEND
  5
798
  8
L_PLATE
  0
POLYLINE
  5
799
  8
L_PLATE
 66
     1
 10
0.0
 20
0.0
 30
0.0
  0
VERTEX
  5
79A
  8
L_PLATE
 10
61.20155571551558
 20
-63.00092908746157
 30
0.0
  0
VERTEX
  5
79B
  8
L_PLATE
 10
61.99909532035092
 20
-63.00092908746157
 30
0.0
  0
SEQEND
  5
79C
  8
L_PLATE
  0
POLYLINE
  5
79D
  8
L_PLATE
 66
     1
 10
0.0
 20
0.0
 30
0.0
  0
VERTEX
  5
79E
  8
L_PLATE
 10
75.9992743533092
 20
-63.00092908746157
 30
0.0
  0
VERTEX
  5
79F
  8
L_PLATE
 10
76.79957003453275
 20
-63.00092908746157
 30
0.0
  0
SEQEND
  5
7A0
  8
L_PLATE
  0
POLYLINE
  5
7A1
  8
L_PLATE
 66
     1
 10
0.0
 20
0.0
 30
0.0
  0
VERTEX
  5
7A2
  8
L_PLATE
 10
75.9992743533092
 20
-66.4983900240872
 30
0.0
  0
VERTEX
  5
7A3
  8
L_PLATE
 10
76.79957003453275
 20
-66.4983900240872
 30
0.0
  0
SEQEND
  5
7A4
  8
L_PLATE
  0
POLYLINE
  5
7A5
  8
L_PLATE
 66
     1
 10
0.0
 20
0.0
 30
0.0
  0
VERTEX
  5
7A6
  8
L_PLATE
 10
75.9992743533092
 20
-74.99985215303823
 30
0.0
  0
VERTEX
  5
7A7
  8
L_PLATE
 10
76.79957003453275
 20
-74.99985215303823
 30
0.0
  0
SEQEND
  5
7A8
  8
L_PLATE
  0
POLYLINE
  5
7A9
  8
L_PLATE
 66
     1
 10
0.0
 20
0.0
 30
0.0
  0
VERTEX
  5
7AA
  8
L_PLATE
 10
75.9992743533092
 20
-71.4996351400244
 30
0.0
  0
VERTEX
  5
7AB
  8
L_PLATE
 10
76.79957003453275
 20
-71.4996351400244
 30
0.0
  0
SEQEND
  5
7AC
  8
L_PLATE
  0
POLYLINE
  5
7AD
  8
L_PLATE
 66
     1
 10
0.0
 20
0.0
 30
0.0
  0
VERTEX
  5
7AE
  8
L_PLATE
 10
61.99909532035092
 20
-63.00092908746157
 30
0.0
  0
VERTEX
  5
7AF
  8
L_PLATE
 10
61.99909532035092
 20
-62.0001288489965
 30
0.0
  0
SEQEND
  5
7B0
  8
L_PLATE
  0
POLYLINE
  5
7B1
  8
L_PLATE
 66
     1
 10
0.0
 20
0.0
 30
0.0
  0
VERTEX
  5
7B2
  8
L_PLATE
 10
61.99909532035092
 20
-76.00065239150331
 30
0.0
  0
VERTEX
  5
7B3
  8
L_PLATE
 10
61.99909532035092
 20
-74.99985215303823
 30
0.0
  0
SEQEND
  5
7B4
  8
L_PLATE
  0
POLYLINE
  5
7B5
  8
L_PLATE
 66
     1
 10
0.0
 20
0.0
 30
0.0
  0
VERTEX
  5
7B6
  8
L_PLATE
 10
61.99909532035092
 20
-66.4983900240872
 30
0.0
  0
VERTEX
  5
7B7
  8
L_PLATE
 10
61.99909532035092
 20
-71.4996351400244
 30
0.0
  0
SEQEND
  5
7B8
  8
L_PLATE
  0
POLYLINE
  5
7B9
  8
L_PLATE
 66
     1
 10
0.0
 20
0.0
 30
0.0
  0
VERTEX
  5
7BA
  8
L_PLATE
 10
61.99909532035092
 20
-76.00065239150331
 30
0.0
  0
VERTEX
  5
7BB
  8
L_PLATE
 10
75.9992743533092
 20
-76.00065239150331
 30
0.0
  0
SEQEND
  5
7BC
  8
L_PLATE
  0
POLYLINE
  5
7BD
  8
L_PLATE
 66
     1
 10
0.0
 20
0.0
 30
0.0
  0
VERTEX
  5
7BE
  8
L_PLATE
 10
75.9992743533092
 20
-66.4983900240872
 30
0.0
  0
VERTEX
  5
7BF
  8
L_PLATE
 10
75.9992743533092
 20
-71.4996351400244
 30
0.0
  0
SEQEND
  5
7C0
  8
L_PLATE
  0
POLYLINE
  5
7C1
  8
L_PLATE
 66
     1
 10
0.0
 20
0.0
 30
0.0
  0
VERTEX
  5
7C2
  8
L_PLATE
 10
75.9992743533092
 20
-76.00065239150331
 30
0.0
  0
VERTEX
  5
7C3
  8
L_PLATE
 10
75.9992743533092
 20
-74.99985215303823
 30
0.0
  0
SEQEND
  5
7C4
  8
L_PLATE
  0
POLYLINE
  5
7C5
  8
L_PLATE
 66
     1
 10
0.0
 20
0.0
 30
0.0
  0
VERTEX
  5
7C6
  8
L_PLATE
 10
76.79957003453275
 20
-74.99985215303823
 30
0.0
  0
VERTEX
  5
7C7
  8
L_PLATE
 10
76.79957003453275
 20
-71.4996351400244
 30
0.0
  0
SEQEND
  5
7C8
  8
L_PLATE
  0
POLYLINE
  5
7C9
  8
L_PLATE
 66
     1
 10
0.0
 20
0.0
 30
0.0
  0
VERTEX
  5
7CA
  8
L_PLATE
 10
61.20155571551558
 20
-66.4983900240872
 30
0.0
  0
VERTEX
  5
7CB
  8
L_PLATE
 10
61.20155571551558
 20
-63.00092908746157
 30
0.0
  0
SEQEND
  5
7CC
  8
L_PLATE
  0
POLYLINE
  5
7CD
  8
L_PLATE
 66
     1
 10
0.0
 20
0.0
 30
0.0
  0
VERTEX
  5
7CE
  8
L_PLATE
 10
75.9992743533092
 20
-63.00092908746157
 30
0.0
  0
VERTEX
  5
7CF
  8
L_PLATE
 10
75.9992743533092
 20
-62.0001288489965
 30
0.0
  0
SEQEND
  5
7D0
  8
L_PLATE
  0
POLYLINE
  5
7D1
  8
L_PLATE
 66
     1
 10
0.0
 20
0.0
 30
0.0
  0
VERTEX
  5
7D2
  8
L_PLATE
 10
61.99909532035092
 20
-62.0001288489965
 30
0.0
  0
VERTEX
  5
7D3
  8
L_PLATE
 10
75.9992743533092
 20
-62.0001288489965
 30
0.0
  0
SEQEND
  5
7D4
  8
L_PLATE
  0
POLYLINE
  5
7D5
  8
L_PLATE
 66
     1
 10
0.0
 20
0.0
 30
0.0
  0
VERTEX
  5
7D6
  8
L_PLATE
 10
57.80021294292843
 20
-66.4983900240872
 30
0.0
  0
VERTEX
  5
7D7
  8
L_PLATE
 10
57.80021294292843
 20
-63.00092908746157
 30
0.0
  0
SEQEND
  5
7D8
  8
L_PLATE
  0
POLYLINE
  5
7D9
  8
L_PLATE
 66
     1
 10
0.0
 20
0.0
 30
0.0
  0
VERTEX
  5
7DA
  8
L_PLATE
 10
42.19978705707157
 20
-74.99985215303823
 30
0.0
  0
VERTEX
  5
7DB
  8
L_PLATE
 10
42.19978705707157
 20
-71.4996351400244
 30
0.0
  0
SEQEND
  5
7DC
  8
L_PLATE
  0
POLYLINE
  5
7DD
  8
L_PLATE
 66
     1
 10
0.0
 20
0.0
 30
0.0
  0
VERTEX
  5
7DE
  8
L_PLATE
 10
42.19978705707157
 20
-71.4996351400244
 30
0.0
  0
VERTEX
  5
7DF
  8
L_PLATE
 10
42.99973822874659
 20
-71.4996351400244
 30
0.0
  0
SEQEND
  5
7E0
  8
L_PLATE
  0
POLYLINE
  5
7E1
  8
L_PLATE
 66
     1
 10
0.0
 20
0.0
 30
0.0
  0
VERTEX
  5
7E2
  8
L_PLATE
 10
42.19978705707157
 20
-74.99985215303823
 30
0.0
  0
VERTEX
  5
7E3
  8
L_PLATE
 10
42.99973822874659
 20
-74.99985215303823
 30
0.0
  0
SEQEND
  5
7E4
  8
L_PLATE
  0
POLYLINE
  5
7E5
  8
L_PLATE
 66
     1
 10
0.0
 20
0.0
 30
0.0
  0
VERTEX
  5
7E6
  8
L_PLATE
 10
42.19978705707157
 20
-66.4983900240872
 30
0.0
  0
VERTEX
  5
7E7
  8
L_PLATE
 10
42.99973822874659
 20
-66.4983900240872
 30
0.0
  0
SEQEND
  5
7E8
  8
L_PLATE
  0
POLYLINE
  5
7E9
  8
L_PLATE
 66
     1
 10
0.0
 20
0.0
 30
0.0
  0
VERTEX
  5
7EA
  8
L_PLATE
 10
42.19978705707157
 20
-63.00092908746157
 30
0.0
  0
VERTEX
  5
7EB
  8
L_PLATE
 10
42.99973822874659
 20
-63.00092908746157
 30
0.0
  0
SEQEND
  5
7EC
  8
L_PLATE
  0
POLYLINE
  5
7ED
  8
L_PLATE
 66
     1
 10
0.0
 20
0.0
 30
0.0
  0
VERTEX
  5
7EE
  8
L_PLATE
 10
57.00026177125341
 20
-63.00092908746157
 30
0.0
  0
VERTEX
  5
7EF
  8
L_PLATE
 10
57.80021294292843
 20
-63.00092908746157
 30
0.0
  0
SEQEND
  5
7F0
  8
L_PLATE
  0
POLYLINE
  5
7F1
  8
L_PLATE
 66
     1
 10
0.0
 20
0.0
 30
0.0
  0
VERTEX
  5
7F2
  8
L_PLATE
 10
57.00026177125341
 20
-66.4983900240872
 30
0.0
  0
VERTEX
  5
7F3
  8
L_PLATE
 10
57.80021294292843
 20
-66.4983900240872
 30
0.0
  0
SEQEND
  5
7F4
  8
L_PLATE
  0
POLYLINE
  5
7F5
  8
L_PLATE
 66
     1
 10
0.0
 20
0.0
 30
0.0
  0
VERTEX
  5
7F6
  8
L_PLATE
 10
57.00026177125341
 20
-74.99985215303823
 30
0.0
  0
VERTEX
  5
7F7
  8
L_PLATE
 10
57.80021294292843
 20
-74.99985215303823
 30
0.0
  0
SEQEND
  5
7F8
  8
L_PLATE
  0
POLYLINE
  5
7F9
  8
L_PLATE
 66
     1
 10
0.0
 20
0.0
 30
0.0
  0
VERTEX
  5
7FA
  8
L_PLATE
 10
57.00026177125341
 20
-71.4996351400244
 30
0.0
  0
VERTEX
  5
7FB
  8
L_PLATE
 10
57.80021294292843
 20
-71.4996351400244
 30
0.0
  0
SEQEND
  5
7FC
  8
L_PLATE
  0
POLYLINE
  5
7FD
  8
L_PLATE
 66
     1
 10
0.0
 20
0.0
 30
0.0
  0
VERTEX
  5
7FE
  8
L_PLATE
 10
42.99973822874659
 20
-63.00092908746157
 30
0.0
  0
VERTEX
  5
7FF
  8
L_PLATE
 10
42.99973822874659
 20
-62.0001288489965
 30
0.0
  0
SEQEND
  5
800
  8
L_PLATE
  0
POLYLINE
  5
801
  8
L_PLATE
 66
     1
 10
0.0
 20
0.0
 30
0.0
  0
VERTEX
  5
802
  8
L_PLATE
 10
42.99973822874659
 20
-76.00065239150331
 30
0.0
  0
VERTEX
  5
803
  8
L_PLATE
 10
42.99973822874659
 20
-74.99985215303823
 30
0.0
  0
SEQEND
  5
804
  8
L_PLATE
  0
POLYLINE
  5
805
  8
L_PLATE
 66
     1
 10
0.0
 20
0.0
 30
0.0
  0
VERTEX
  5
806
  8
L_PLATE
 10
42.99973822874659
 20
-66.4983900240872
 30
0.0
  0
VERTEX
  5
807
  8
L_PLATE
 10
42.99973822874659
 20
-71.4996351400244
 30
0.0
  0
SEQEND
  5
808
  8
L_PLATE
  0
POLYLINE
  5
809
  8
L_PLATE
 66
     1
 10
0.0
 20
0.0
 30
0.0
  0
VERTEX
  5
80A
  8
L_PLATE
 10
42.99973822874659
 20
-76.00065239150331
 30
0.0
  0
VERTEX
  5
80B
  8
L_PLATE
 10
57.00026177125341
 20
-76.00065239150331
 30
0.0
  0
SEQEND
  5
80C
  8
L_PLATE
  0
POLYLINE
  5
80D
  8
L_PLATE
 66
     1
 10
0.0
 20
0.0
 30
0.0
  0
VERTEX
  5
80E
  8
L_PLATE
 10
57.00026177125341
 20
-66.4983900240872
 30
0.0
  0
VERTEX
  5
80F
  8
L_PLATE
 10
57.00026177125341
 20
-71.4996351400244
 30
0.0
  0
SEQEND
  5
810
  8
L_PLATE
  0
POLYLINE
  5
811
  8
L_PLATE
 66
     1
 10
0.0
 20
0.0
 30
0.0
  0
VERTEX
  5
812
  8
L_PLATE
 10
57.00026177125341
 20
-76.00065239150331
 30
0.0
  0
VERTEX
  5
813
  8
L_PLATE
 10
57.00026177125341
 20
-74.99985215303823
 30
0.0
  0
SEQEND
  5
814
  8
L_PLATE
  0
POLYLINE
  5
815
  8
L_PLATE
 66
     1
 10
0.0
 20
0.0
 30
0.0
  0
VERTEX
  5
816
  8
L_PLATE
 10
57.80021294292843
 20
-74.99985215303823
 30
0.0
  0
VERTEX
  5
817
  8
L_PLATE
 10
57.80021294292843
 20
-71.4996351400244
 30
0.0
  0
SEQEND
  5
818
  8
L_PLATE
  0
POLYLINE
  5
819
  8
L_PLATE
 66
     1
 10
0.0
 20
0.0
 30
0.0
  0
VERTEX
  5
81A
  8
L_PLATE
 10
42.19978705707157
 20
-66.4983900240872
 30
0.0
  0
VERTEX
  5
81B
  8
L_PLATE
 10
42.19978705707157
 20
-63.00092908746157
 30
0.0
  0
SEQEND
  5
81C
  8
L_PLATE
  0
POLYLINE
  5
81D
  8
L_PLATE
 66
     1
 10
0.0
 20
0.0
 30
0.0
  0
VERTEX
  5
81E
  8
L_PLATE
 10
57.00026177125341
 20
-63.00092908746157
 30
0.0
  0
VERTEX
  5
81F
  8
L_PLATE
 10
57.00026177125341
 20
-62.0001288489965
 30
0.0
  0
SEQEND
  5
820
  8
L_PLATE
  0
POLYLINE
  5
821
  8
L_PLATE
 66
     1
 10
0.0
 20
0.0
 30
0.0
  0
VERTEX
  5
822
  8
L_PLATE
 10
42.99973822874659
 20
-62.0001288489965
 30
0.0
  0
VERTEX
  5
823
  8
L_PLATE
 10
57.00026177125341
 20
-62.0001288489965
 30
0.0
  0
SEQEND
  5
824
  8
L_PLATE
  0
POLYLINE
  5
825
  8
L_PLATE
 66
     1
 10
0.0
 20
0.0
 30
0.0
  0
VERTEX
  5
826
  8
L_PLATE
 10
152.8011325155324
 20
-48.50017768049648
 30
0.0
  0
VERTEX
  5
827
  8
L_PLATE
 10
152.8011325155324
 20
-44.99996066748264
 30
0.0
  0
SEQEND
  5
828
  8
L_PLATE
  0
POLYLINE
  5
829
  8
L_PLATE
 66
     1
 10
0.0
 20
0.0
 30
0.0
  0
VERTEX
  5
82A
  8
L_PLATE
 10
137.2007066296755
 20
-56.9988837330593
 30
0.0
  0
VERTEX
  5
82B
  8
L_PLATE
 10
137.2007066296755
 20
-53.49866672004546
 30
0.0
  0
SEQEND
  5
82C
  8
L_PLATE
  0
POLYLINE
  5
82D
  8
L_PLATE
 66
     1
 10
0.0
 20
0.0
 30
0.0
  0
VERTEX
  5
82E
  8
L_PLATE
 10
137.2007066296755
 20
-53.49866672004546
 30
0.0
  0
VERTEX
  5
82F
  8
L_PLATE
 10
138.0006578013505
 20
-53.49866672004546
 30
0.0
  0
SEQEND
  5
830
  8
L_PLATE
  0
POLYLINE
  5
831
  8
L_PLATE
 66
     1
 10
0.0
 20
0.0
 30
0.0
  0
VERTEX
  5
832
  8
L_PLATE
 10
137.2007066296755
 20
-56.9988837330593
 30
0.0
  0
VERTEX
  5
833
  8
L_PLATE
 10
138.0006578013505
 20
-56.9988837330593
 30
0.0
  0
SEQEND
  5
834
  8
L_PLATE
  0
POLYLINE
  5
835
  8
L_PLATE
 66
     1
 10
0.0
 20
0.0
 30
0.0
  0
VERTEX
  5
836
  8
L_PLATE
 10
137.2007066296755
 20
-48.50017768049648
 30
0.0
  0
VERTEX
  5
837
  8
L_PLATE
 10
138.0006578013505
 20
-48.50017768049648
 30
0.0
  0
SEQEND
  5
838
  8
L_PLATE
  0
POLYLINE
  5
839
  8
L_PLATE
 66
     1
 10
0.0
 20
0.0
 30
0.0
  0
VERTEX
  5
83A
  8
L_PLATE
 10
137.2007066296755
 20
-44.99996066748264
 30
0.0
  0
VERTEX
  5
83B
  8
L_PLATE
 10
138.0006578013505
 20
-44.99996066748264
 30
0.0
  0
SEQEND
  5
83C
  8
L_PLATE
  0
POLYLINE
  5
83D
  8
L_PLATE
 66
     1
 10
0.0
 20
0.0
 30
0.0
  0
VERTEX
  5
83E
  8
L_PLATE
 10
152.0011813438574
 20
-44.99996066748264
 30
0.0
  0
VERTEX
  5
83F
  8
L_PLATE
 10
152.8011325155324
 20
-44.99996066748264
 30
0.0
  0
SEQEND
  5
840
  8
L_PLATE
  0
POLYLINE
  5
841
  8
L_PLATE
 66
     1
 10
0.0
 20
0.0
 30
0.0
  0
VERTEX
  5
842
  8
L_PLATE
 10
152.0011813438574
 20
-48.50017768049648
 30
0.0
  0
VERTEX
  5
843
  8
L_PLATE
 10
152.8011325155324
 20
-48.50017768049648
 30
0.0
  0
SEQEND
  5
844
  8
L_PLATE
  0
POLYLINE
  5
845
  8
L_PLATE
 66
     1
 10
0.0
 20
0.0
 30
0.0
  0
VERTEX
  5
846
  8
L_PLATE
 10
152.0011813438574
 20
-56.9988837330593
 30
0.0
  0
VERTEX
  5
847
  8
L_PLATE
 10
152.8011325155324
 20
-56.9988837330593
 30
0.0
  0
SEQEND
  5
848
  8
L_PLATE
  0
POLYLINE
  5
849
  8
L_PLATE
 66
     1
 10
0.0
 20
0.0
 30
0.0
  0
VERTEX
  5
84A
  8
L_PLATE
 10
152.0011813438574
 20
-53.49866672004546
 30
0.0
  0
VERTEX
  5
84B
  8
L_PLATE
 10
152.8011325155324
 20
-53.49866672004546
 30
0.0
  0
SEQEND
  5
84C
  8
L_PLATE
  0
POLYLINE
  5
84D
  8
L_PLATE
 66
     1
 10
0.0
 20
0.0
 30
0.0
  0
VERTEX
  5
84E
  8
L_PLATE
 10
138.0006578013505
 20
-44.99996066748264
 30
0.0
  0
VERTEX
  5
84F
  8
L_PLATE
 10
138.0006578013505
 20
-43.99916042901756
 30
0.0
  0
SEQEND
  5
850
  8
L_PLATE
  0
POLYLINE
  5
851
  8
L_PLATE
 66
     1
 10
0.0
 20
0.0
 30
0.0
  0
VERTEX
  5
852
  8
L_PLATE
 10
138.0006578013505
 20
-57.99968397152438
 30
0.0
  0
VERTEX
  5
853
  8
L_PLATE
 10
138.0006578013505
 20
-56.9988837330593
 30
0.0
  0
SEQEND
  5
854
  8
L_PLATE
  0
POLYLINE
  5
855
  8
L_PLATE
 66
     1
 10
0.0
 20
0.0
 30
0.0
  0
VERTEX
  5
856
  8
L_PLATE
 10
138.0006578013505
 20
-48.50017768049648
 30
0.0
  0
VERTEX
  5
857
  8
L_PLATE
 10
138.0006578013505
 20
-53.49866672004546
 30
0.0
  0
SEQEND
  5
858
  8
L_PLATE
  0
POLYLINE
  5
859
  8
L_PLATE
 66
     1
 10
0.0
 20
0.0
 30
0.0
  0
VERTEX
  5
85A
  8
L_PLATE
 10
138.0006578013505
 20
-57.99968397152438
 30
0.0
  0
VERTEX
  5
85B
  8
L_PLATE
 10
152.0011813438574
 20
-57.99968397152438
 30
0.0
  0
SEQEND
  5
85C
  8
L_PLATE
  0
POLYLINE
  5
85D
  8
L_PLATE
 66
     1
 10
0.0
 20
0.0
 30
0.0
  0
VERTEX
  5
85E
  8
L_PLATE
 10
152.0011813438574
 20
-48.50017768049648
 30
0.0
  0
VERTEX
  5
85F
  8
L_PLATE
 10
152.0011813438574
 20
-53.49866672004546
 30
0.0
  0
SEQEND
  5
860
  8
L_PLATE
  0
POLYLINE
  5
861
  8
L_PLATE
 66
     1
 10
0.0
 20
0.0
 30
0.0
  0
VERTEX
  5
862
  8
L_PLATE
 10
152.0011813438574
 20
-57.99968397152438
 30
0.0
  0
VERTEX
  5
863
  8
L_PLATE
 10
152.0011813438574
 20
-56.9988837330593
 30
0.0
  0
SEQEND
  5
864
  8
L_PLATE
  0
POLYLINE
  5
865
  8
L_PLATE
 66
     1
 10
0.0
 20
0.0
 30
0.0
  0
VERTEX
  5
866
  8
L_PLATE
 10
152.8011325155324
 20
-56.9988837330593
 30
0.0
  0
VERTEX
  5
867
  8
L_PLATE
 10
152.8011325155324
 20
-53.49866672004546
 30
0.0
  0
SEQEND
  5
868
  8
L_PLATE
  0
POLYLINE
  5
869
  8
L_PLATE
 66
     1
 10
0.0
 20
0.0
 30
0.0
  0
VERTEX
  5
86A
  8
L_PLATE
 10
137.2007066296755
 20
-48.50017768049648
 30
0.0
  0
VERTEX
  5
86B
  8
L_PLATE
 10
137.2007066296755
 20
-44.99996066748264
 30
0.0
  0
SEQEND
  5
86C
  8
L_PLATE
  0
POLYLINE
  5
86D
  8
L_PLATE
 66
     1
 10
0.0
 20
0.0
 30
0.0
  0
VERTEX
  5
86E
  8
L_PLATE
 10
152.0011813438574
 20
-44.99996066748264
 30
0.0
  0
VERTEX
  5
86F
  8
L_PLATE
 10
152.0011813438574
 20
-43.99916042901756
 30
0.0
  0
SEQEND
  5
870
  8
L_PLATE
  0
POLYLINE
  5
871
  8
L_PLATE
 66
     1
 10
0.0
 20
0.0
 30
0.0
  0
VERTEX
  5
872
  8
L_PLATE
 10
138.0006578013505
 20
-43.99916042901756
 30
0.0
  0
VERTEX
  5
873
  8
L_PLATE
 10
152.0011813438574
 20
-43.99916042901756
 30
0.0
  0
SEQEND
  5
874
  8
L_PLATE
  0
POLYLINE
  5
875
  8
L_PLATE
 66
     1
 10
0.0
 20
0.0
 30
0.0
  0
VERTEX
  5
876
  8
L_PLATE
 10
133.7993638570884
 20
-44.49973280302439
 30
0.0
  0
VERTEX
  5
877
  8
L_PLATE
 10
133.7993638570884
 20
-40.99951579001055
 30
0.0
  0
SEQEND
  5
878
  8
L_PLATE
  0
POLYLINE
  5
879
  8
L_PLATE
 66
     1
 10
0.0
 20
0.0
 30
0.0
  0
VERTEX
  5
87A
  8
L_PLATE
 10
118.1989379712315
 20
-53.00085042242688
 30
0.0
  0
VERTEX
  5
87B
  8
L_PLATE
 10
118.1989379712315
 20
-49.50097791896155
 30
0.0
  0
SEQEND
  5
87C
  8
L_PLATE
  0
POLYLINE
  5
87D
  8
L_PLATE
 66
     1
 10
0.0
 20
0.0
 30
0.0
  0
VERTEX
  5
87E
  8
L_PLATE
 10
118.1989379712315
 20
-49.50097791896155
 30
0.0
  0
VERTEX
  5
87F
  8
L_PLATE
 10
118.9988891429065
 20
-49.50097791896155
 30
0.0
  0
SEQEND
  5
880
  8
L_PLATE
  0
POLYLINE
  5
881
  8
L_PLATE
 66
     1
 10
0.0
 20
0.0
 30
0.0
  0
VERTEX
  5
882
  8
L_PLATE
 10
118.1989379712315
 20
-53.00085042242688
 30
0.0
  0
VERTEX
  5
883
  8
L_PLATE
 10
118.9988891429065
 20
-53.00085042242688
 30
0.0
  0
SEQEND
  5
884
  8
L_PLATE
  0
POLYLINE
  5
885
  8
L_PLATE
 66
     1
 10
0.0
 20
0.0
 30
0.0
  0
VERTEX
  5
886
  8
L_PLATE
 10
118.1989379712315
 20
-44.49973280302439
 30
0.0
  0
VERTEX
  5
887
  8
L_PLATE
 10
118.9988891429065
 20
-44.49973280302439
 30
0.0
  0
SEQEND
  5
888
  8
L_PLATE
  0
POLYLINE
  5
889
  8
L_PLATE
 66
     1
 10
0.0
 20
0.0
 30
0.0
  0
VERTEX
  5
88A
  8
L_PLATE
 10
118.1989379712315
 20
-40.99951579001055
 30
0.0
  0
VERTEX
  5
88B
  8
L_PLATE
 10
118.9988891429065
 20
-40.99951579001055
 30
0.0
  0
SEQEND
  5
88C
  8
L_PLATE
  0
POLYLINE
  5
88D
  8
L_PLATE
 66
     1
 10
0.0
 20
0.0
 30
0.0
  0
VERTEX
  5
88E
  8
L_PLATE
 10
132.9994126854133
 20
-40.99951579001055
 30
0.0
  0
VERTEX
  5
88F
  8
L_PLATE
 10
133.7993638570884
 20
-40.99951579001055
 30
0.0
  0
SEQEND
  5
890
  8
L_PLATE
  0
POLYLINE
  5
891
  8
L_PLATE
 66
     1
 10
0.0
 20
0.0
 30
0.0
  0
VERTEX
  5
892
  8
L_PLATE
 10
132.9994126854133
 20
-44.49973280302439
 30
0.0
  0
VERTEX
  5
893
  8
L_PLATE
 10
133.7993638570884
 20
-44.49973280302439
 30
0.0
  0
SEQEND
  5
894
  8
L_PLATE
  0
POLYLINE
  5
895
  8
L_PLATE
 66
     1
 10
0.0
 20
0.0
 30
0.0
  0
VERTEX
  5
896
  8
L_PLATE
 10
132.9994126854133
 20
-53.00085042242688
 30
0.0
  0
VERTEX
  5
897
  8
L_PLATE
 10
133.7993638570884
 20
-53.00085042242688
 30
0.0
  0
SEQEND
  5
898
  8
L_PLATE
  0
POLYLINE
  5
899
  8
L_PLATE
 66
     1
 10
0.0
 20
0.0
 30
0.0
  0
VERTEX
  5
89A
  8
L_PLATE
 10
132.9994126854133
 20
-49.50097791896155
 30
0.0
  0
VERTEX
  5
89B
  8
L_PLATE
 10
133.7993638570884
 20
-49.50097791896155
 30
0.0
  0
SEQEND
  5
89C
  8
L_PLATE
  0
POLYLINE
  5
89D
  8
L_PLATE
 66
     1
 10
0.0
 20
0.0
 30
0.0
  0
VERTEX
  5
89E
  8
L_PLATE
 10
118.9988891429065
 20
-40.99951579001055
 30
0.0
  0
VERTEX
  5
89F
  8
L_PLATE
 10
118.9988891429065
 20
-39.99871555154547
 30
0.0
  0
SEQEND
  5
8A0
  8
L_PLATE
  0
POLYLINE
  5
8A1
  8
L_PLATE
 66
     1
 10
0.0
 20
0.0
 30
0.0
  0
VERTEX
  5
8A2
  8
L_PLATE
 10
118.9988891429065
 20
-53.99923909405229
 30
0.0
  0
VERTEX
  5
8A3
  8
L_PLATE
 10
118.9988891429065
 20
-53.00085042242688
 30
0.0
  0
SEQEND
  5
8A4
  8
L_PLATE
  0
POLYLINE
  5
8A5
  8
L_PLATE
 66
     1
 10
0.0
 20
0.0
 30
0.0
  0
VERTEX
  5
8A6
  8
L_PLATE
 10
118.9988891429065
 20
-44.49973280302439
 30
0.0
  0
VERTEX
  5
8A7
  8
L_PLATE
 10
118.9988891429065
 20
-49.50097791896155
 30
0.0
  0
SEQEND
  5
8A8
  8
L_PLATE
  0
POLYLINE
  5
8A9
  8
L_PLATE
 66
     1
 10
0.0
 20
0.0
 30
0.0
  0
VERTEX
  5
8AA
  8
L_PLATE
 10
118.9988891429065
 20
-53.99923909405229
 30
0.0
  0
VERTEX
  5
8AB
  8
L_PLATE
 10
132.9994126854133
 20
-53.99923909405229
 30
0.0
  0
SEQEND
  5
8AC
  8
L_PLATE
  0
POLYLINE
  5
8AD
  8
L_PLATE
 66
     1
 10
0.0
 20
0.0
 30
0.0
  0
VERTEX
  5
8AE
  8
L_PLATE
 10
132.9994126854133
 20
-44.49973280302439
 30
0.0
  0
VERTEX
  5
8AF
  8
L_PLATE
 10
132.9994126854133
 20
-49.50097791896155
 30
0.0
  0
SEQEND
  5
8B0
  8
L_PLATE
  0
POLYLINE
  5
8B1
  8
L_PLATE
 66
     1
 10
0.0
 20
0.0
 30
0.0
  0
VERTEX
  5
8B2
  8
L_PLATE
 10
132.9994126854133
 20
-53.99923909405229
 30
0.0
  0
VERTEX
  5
8B3
  8
L_PLATE
 10
132.9994126854133
 20
-53.00085042242688
 30
0.0
  0
SEQEND
  5
8B4
  8
L_PLATE
  0
POLYLINE
  5
8B5
  8
L_PLATE
 66
     1
 10
0.0
 20
0.0
 30
0.0
  0
VERTEX
  5
8B6
  8
L_PLATE
 10
133.7993638570884
 20
-53.00085042242688
 30
0.0
  0
VERTEX
  5
8B7
  8
L_PLATE
 10
133.7993638570884
 20
-49.50097791896155
 30
0.0
  0
SEQEND
  5
8B8
  8
L_PLATE
  0
POLYLINE
  5
8B9
  8
L_PLATE
 66
     1
 10
0.0
 20
0.0
 30
0.0
  0
VERTEX
  5
8BA
  8
L_PLATE
 10
118.1989379712315
 20
-44.49973280302439
 30
0.0
  0
VERTEX
  5
8BB
  8
L_PLATE
 10
118.1989379712315
 20
-40.99951579001055
 30
0.0
  0
SEQEND
  5
8BC
  8
L_PLATE
  0
POLYLINE
  5
8BD
  8
L_PLATE
 66
     1
 10
0.0
 20
0.0
 30
0.0
  0
VERTEX
  5
8BE
  8
L_PLATE
 10
132.9994126854133
 20
-40.99951579001055
 30
0.0
  0
VERTEX
  5
8BF
  8
L_PLATE
 10
132.9994126854133
 20
-39.99871555154547
 30
0.0
  0
SEQEND
  5
8C0
  8
L_PLATE
  0
POLYLINE
  5
8C1
  8
L_PLATE
 66
     1
 10
0.0
 20
0.0
 30
0.0
  0
VERTEX
  5
8C2
  8
L_PLATE
 10
118.9988891429065
 20
-39.99871555154547
 30
0.0
  0
VERTEX
  5
8C3
  8
L_PLATE
 10
132.9994126854133
 20
-39.99871555154547
 30
0.0
  0
SEQEND
  5
8C4
  8
L_PLATE
  0
POLYLINE
  5
8C5
  8
L_PLATE
 66
     1
 10
0.0
 20
0.0
 30
0.0
  0
VERTEX
  5
8C6
  8
L_PLATE
 10
114.8003512750325
 20
-37.49929877699671
 30
0.0
  0
VERTEX
  5
8C7
  8
L_PLATE
 10
114.8003512750325
 20
-33.99908176398287
 30
0.0
  0
SEQEND
  5
8C8
  8
L_PLATE
  0
POLYLINE
  5
8C9
  8
L_PLATE
 66
     1
 10
0.0
 20
0.0
 30
0.0
  0
VERTEX
  5
8CA
  8
L_PLATE
 10
99.19958087962718
 20
-46.00076090594774
 30
0.0
  0
VERTEX
  5
8CB
  8
L_PLATE
 10
99.19958087962718
 20
-42.5005438929339
 30
0.0
  0
SEQEND
  5
8CC
  8
L_PLATE
  0
POLYLINE
  5
8CD
  8
L_PLATE
 66
     1
 10
0.0
 20
0.0
 30
0.0
  0
VERTEX
  5
8CE
  8
L_PLATE
 10
99.19958087962718
 20
-42.5005438929339
 30
0.0
  0
VERTEX
  5
8CF
  8
L_PLATE
 10
99.99987656085074
 20
-42.5005438929339
 30
0.0
  0
SEQEND
  5
8D0
  8
L_PLATE
  0
POLYLINE
  5
8D1
  8
L_PLATE
 66
     1
 10
0.0
 20
0.0
 30
0.0
  0
VERTEX
  5
8D2
  8
L_PLATE
 10
99.19958087962718
 20
-46.00076090594774
 30
0.0
  0
VERTEX
  5
8D3
  8
L_PLATE
 10
99.99987656085074
 20
-46.00076090594774
 30
0.0
  0
SEQEND
  5
8D4
  8
L_PLATE
  0
POLYLINE
  5
8D5
  8
L_PLATE
 66
     1
 10
0.0
 20
0.0
 30
0.0
  0
VERTEX
  5
8D6
  8
L_PLATE
 10
99.19958087962718
 20
-37.49929877699671
 30
0.0
  0
VERTEX
  5
8D7
  8
L_PLATE
 10
99.99987656085074
 20
-37.49929877699671
 30
0.0
  0
SEQEND
  5
8D8
  8
L_PLATE
  0
POLYLINE
  5
8D9
  8
L_PLATE
 66
     1
 10
0.0
 20
0.0
 30
0.0
  0
VERTEX
  5
8DA
  8
L_PLATE
 10
99.19958087962718
 20
-33.99908176398287
 30
0.0
  0
VERTEX
  5
8DB
  8
L_PLATE
 10
99.99987656085074
 20
-33.99908176398287
 30
0.0
  0
SEQEND
  5
8DC
  8
L_PLATE
  0
POLYLINE
  5
8DD
  8
L_PLATE
 66
     1
 10
0.0
 20
0.0
 30
0.0
  0
VERTEX
  5
8DE
  8
L_PLATE
 10
114.0004001033575
 20
-33.99908176398287
 30
0.0
  0
VERTEX
  5
8DF
  8
L_PLATE
 10
114.8003512750325
 20
-33.99908176398287
 30
0.0
  0
SEQEND
  5
8E0
  8
L_PLATE
  0
POLYLINE
  5
8E1
  8
L_PLATE
 66
     1
 10
0.0
 20
0.0
 30
0.0
  0
VERTEX
  5
8E2
  8
L_PLATE
 10
114.0004001033575
 20
-37.49929877699671
 30
0.0
  0
VERTEX
  5
8E3
  8
L_PLATE
 10
114.8003512750325
 20
-37.49929877699671
 30
0.0
  0
SEQEND
  5
8E4
  8
L_PLATE
  0
POLYLINE
  5
8E5
  8
L_PLATE
 66
     1
 10
0.0
 20
0.0
 30
0.0
  0
VERTEX
  5
8E6
  8
L_PLATE
 10
114.0004001033575
 20
-46.00076090594774
 30
0.0
  0
VERTEX
  5
8E7
  8
L_PLATE
 10
114.8003512750325
 20
-46.00076090594774
 30
0.0
  0
SEQEND
  5
8E8
  8
L_PLATE
  0
POLYLINE
  5
8E9
  8
L_PLATE
 66
     1
 10
0.0
 20
0.0
 30
0.0
  0
VERTEX
  5
8EA
  8
L_PLATE
 10
114.0004001033575
 20
-42.5005438929339
 30
0.0
  0
VERTEX
  5
8EB
  8
L_PLATE
 10
114.8003512750325
 20
-42.5005438929339
 30
0.0
  0
SEQEND
  5
8EC
  8
L_PLATE
  0
POLYLINE
  5
8ED
  8
L_PLATE
 66
     1
 10
0.0
 20
0.0
 30
0.0
  0
VERTEX
  5
8EE
  8
L_PLATE
 10
99.99987656085074
 20
-33.99908176398287
 30
0.0
  0
VERTEX
  5
8EF
  8
L_PLATE
 10
99.99987656085074
 20
-32.99862603506631
 30
0.0
  0
SEQEND
  5
8F0
  8
L_PLATE
  0
POLYLINE
  5
8F1
  8
L_PLATE
 66
     1
 10
0.0
 20
0.0
 30
0.0
  0
VERTEX
  5
8F2
  8
L_PLATE
 10
99.99987656085074
 20
-46.99880506802461
 30
0.0
  0
VERTEX
  5
8F3
  8
L_PLATE
 10
99.99987656085074
 20
-46.00076090594774
 30
0.0
  0
SEQEND
  5
8F4
  8
L_PLATE
  0
POLYLINE
  5
8F5
  8
L_PLATE
 66
     1
 10
0.0
 20
0.0
 30
0.0
  0
VERTEX
  5
8F6
  8
L_PLATE
 10
99.99987656085074
 20
-37.49929877699671
 30
0.0
  0
VERTEX
  5
8F7
  8
L_PLATE
 10
99.99987656085074
 20
-42.5005438929339
 30
0.0
  0
SEQEND
  5
8F8
  8
L_PLATE
  0
POLYLINE
  5
8F9
  8
L_PLATE
 66
     1
 10
0.0
 20
0.0
 30
0.0
  0
VERTEX
  5
8FA
  8
L_PLATE
 10
99.99987656085074
 20
-46.99880506802461
 30
0.0
  0
VERTEX
  5
8FB
  8
L_PLATE
 10
114.0004001033575
 20
-46.99880506802461
 30
0.0
  0
SEQEND
  5
8FC
  8
L_PLATE
  0
POLYLINE
  5
8FD
  8
L_PLATE
 66
     1
 10
0.0
 20
0.0
 30
0.0
  0
VERTEX
  5
8FE
  8
L_PLATE
 10
114.0004001033575
 20
-37.49929877699671
 30
0.0
  0
VERTEX
  5
8FF
  8
L_PLATE
 10
114.0004001033575
 20
-42.5005438929339
 30
0.0
  0
SEQEND
  5
900
  8
L_PLATE
  0
POLYLINE
  5
901
  8
L_PLATE
 66
     1
 10
0.0
 20
0.0
 30
0.0
  0
VERTEX
  5
902
  8
L_PLATE
 10
114.0004001033575
 20
-46.99880506802461
 30
0.0
  0
VERTEX
  5
903
  8
L_PLATE
 10
114.0004001033575
 20
-46.00076090594774
 30
0.0
  0
SEQEND
  5
904
  8
L_PLATE
  0
POLYLINE
  5
905
  8
L_PLATE
 66
     1
 10
0.0
 20
0.0
 30
0.0
  0
VERTEX
  5
906
  8
L_PLATE
 10
114.8003512750325
 20
-46.00076090594774
 30
0.0
  0
VERTEX
  5
907
  8
L_PLATE
 10
114.8003512750325
 20
-42.5005438929339
 30
0.0
  0
SEQEND
  5
908
  8
L_PLATE
  0
POLYLINE
  5
909
  8
L_PLATE
 66
     1
 10
0.0
 20
0.0
 30
0.0
  0
VERTEX
  5
90A
  8
L_PLATE
 10
99.19958087962718
 20
-37.49929877699671
 30
0.0
  0
VERTEX
  5
90B
  8
L_PLATE
 10
99.19958087962718
 20
-33.99908176398287
 30
0.0
  0
SEQEND
  5
90C
  8
L_PLATE
  0
POLYLINE
  5
90D
  8
L_PLATE
 66
     1
 10
0.0
 20
0.0
 30
0.0
  0
VERTEX
  5
90E
  8
L_PLATE
 10
114.0004001033575
 20
-33.99908176398287
 30
0.0
  0
VERTEX
  5
90F
  8
L_PLATE
 10
114.0004001033575
 20
-32.99862603506631
 30
0.0
  0
SEQEND
  5
910
  8
L_PLATE
  0
POLYLINE
  5
911
  8
L_PLATE
 66
     1
 10
0.0
 20
0.0
 30
0.0
  0
VERTEX
  5
912
  8
L_PLATE
 10
99.99987656085074
 20
-32.99862603506631
 30
0.0
  0
VERTEX
  5
913
  8
L_PLATE
 10
114.0004001033575
 20
-32.99862603506631
 30
0.0
  0
SEQEND
  5
914
  8
L_PLATE
  0
POLYLINE
  5
915
  8
L_PLATE
 66
     1
 10
0.0
 20
0.0
 30
0.0
  0
VERTEX
  5
916
  8
L_PLATE
 10
95.80133869297674
 20
-42.5005438929339
 30
0.0
  0
VERTEX
  5
917
  8
L_PLATE
 10
95.80133869297674
 20
-39.00032687992007
 30
0.0
  0
SEQEND
  5
918
  8
L_PLATE
  0
POLYLINE
  5
919
  8
L_PLATE
 66
     1
 10
0.0
 20
0.0
 30
0.0
  0
VERTEX
  5
91A
  8
L_PLATE
 10
80.20056829757138
 20
-50.99924994549673
 30
0.0
  0
VERTEX
  5
91B
  8
L_PLATE
 10
80.20056829757138
 20
-47.4993774420314
 30
0.0
  0
SEQEND
  5
91C
  8
L_PLATE
  0
POLYLINE
  5
91D
  8
L_PLATE
 66
     1
 10
0.0
 20
0.0
 30
0.0
  0
VERTEX
  5
91E
  8
L_PLATE
 10
80.20056829757138
 20
-47.4993774420314
 30
0.0
  0
VERTEX
  5
91F
  8
L_PLATE
 10
81.0005194692464
 20
-47.4993774420314
 30
0.0
  0
SEQEND
  5
920
  8
L_PLATE
  0
POLYLINE
  5
921
  8
L_PLATE
 66
     1
 10
0.0
 20
0.0
 30
0.0
  0
VERTEX
  5
922
  8
L_PLATE
 10
80.20056829757138
 20
-50.99924994549673
 30
0.0
  0
VERTEX
  5
923
  8
L_PLATE
 10
81.0005194692464
 20
-50.99924994549673
 30
0.0
  0
SEQEND
  5
924
  8
L_PLATE
  0
POLYLINE
  5
925
  8
L_PLATE
 66
     1
 10
0.0
 20
0.0
 30
0.0
  0
VERTEX
  5
926
  8
L_PLATE
 10
80.20056829757138
 20
-42.5005438929339
 30
0.0
  0
VERTEX
  5
927
  8
L_PLATE
 10
81.0005194692464
 20
-42.5005438929339
 30
0.0
  0
SEQEND
  5
928
  8
L_PLATE
  0
POLYLINE
  5
929
  8
L_PLATE
 66
     1
 10
0.0
 20
0.0
 30
0.0
  0
VERTEX
  5
92A
  8
L_PLATE
 10
80.20056829757138
 20
-39.00032687992007
 30
0.0
  0
VERTEX
  5
92B
  8
L_PLATE
 10
81.0005194692464
 20
-39.00032687992007
 30
0.0
  0
SEQEND
  5
92C
  8
L_PLATE
  0
POLYLINE
  5
92D
  8
L_PLATE
 66
     1
 10
0.0
 20
0.0
 30
0.0
  0
VERTEX
  5
92E
  8
L_PLATE
 10
95.00104301175321
 20
-39.00032687992007
 30
0.0
  0
VERTEX
  5
92F
  8
L_PLATE
 10
95.80133869297674
 20
-39.00032687992007
 30
0.0
  0
SEQEND
  5
930
  8
L_PLATE
  0
POLYLINE
  5
931
  8
L_PLATE
 66
     1
 10
0.0
 20
0.0
 30
0.0
  0
VERTEX
  5
932
  8
L_PLATE
 10
95.00104301175321
 20
-42.5005438929339
 30
0.0
  0
VERTEX
  5
933
  8
L_PLATE
 10
95.80133869297674
 20
-42.5005438929339
 30
0.0
  0
SEQEND
  5
934
  8
L_PLATE
  0
POLYLINE
  5
935
  8
L_PLATE
 66
     1
 10
0.0
 20
0.0
 30
0.0
  0
VERTEX
  5
936
  8
L_PLATE
 10
95.00104301175321
 20
-50.99924994549673
 30
0.0
  0
VERTEX
  5
937
  8
L_PLATE
 10
95.80133869297674
 20
-50.99924994549673
 30
0.0
  0
SEQEND
  5
938
  8
L_PLATE
  0
POLYLINE
  5
939
  8
L_PLATE
 66
     1
 10
0.0
 20
0.0
 30
0.0
  0
VERTEX
  5
93A
  8
L_PLATE
 10
95.00104301175321
 20
-47.4993774420314
 30
0.0
  0
VERTEX
  5
93B
  8
L_PLATE
 10
95.80133869297674
 20
-47.4993774420314
 30
0.0
  0
SEQEND
  5
93C
  8
L_PLATE
  0
POLYLINE
  5
93D
  8
L_PLATE
 66
     1
 10
0.0
 20
0.0
 30
0.0
  0
VERTEX
  5
93E
  8
L_PLATE
 10
81.0005194692464
 20
-39.00032687992007
 30
0.0
  0
VERTEX
  5
93F
  8
L_PLATE
 10
81.0005194692464
 20
-37.9998711510035
 30
0.0
  0
SEQEND
  5
940
  8
L_PLATE
  0
POLYLINE
  5
941
  8
L_PLATE
 66
     1
 10
0.0
 20
0.0
 30
0.0
  0
VERTEX
  5
942
  8
L_PLATE
 10
81.0005194692464
 20
-52.0000501839618
 30
0.0
  0
VERTEX
  5
943
  8
L_PLATE
 10
81.0005194692464
 20
-50.99924994549673
 30
0.0
  0
SEQEND
  5
944
  8
L_PLATE
  0
POLYLINE
  5
945
  8
L_PLATE
 66
     1
 10
0.0
 20
0.0
 30
0.0
  0
VERTEX
  5
946
  8
L_PLATE
 10
81.0005194692464
 20
-42.5005438929339
 30
0.0
  0
VERTEX
  5
947
  8
L_PLATE
 10
81.0005194692464
 20
-47.4993774420314
 30
0.0
  0
SEQEND
  5
948
  8
L_PLATE
  0
POLYLINE
  5
949
  8
L_PLATE
 66
     1
 10
0.0
 20
0.0
 30
0.0
  0
VERTEX
  5
94A
  8
L_PLATE
 10
81.0005194692464
 20
-52.0000501839618
 30
0.0
  0
VERTEX
  5
94B
  8
L_PLATE
 10
95.00104301175321
 20
-52.0000501839618
 30
0.0
  0
SEQEND
  5
94C
  8
L_PLATE
  0
POLYLINE
  5
94D
  8
L_PLATE
 66
     1
 10
0.0
 20
0.0
 30
0.0
  0
VERTEX
  5
94E
  8
L_PLATE
 10
95.00104301175321
 20
-42.5005438929339
 30
0.0
  0
VERTEX
  5
94F
  8
L_PLATE
 10
95.00104301175321
 20
-47.4993774420314
 30
0.0
  0
SEQEND
  5
950
  8
L_PLATE
  0
POLYLINE
  5
951
  8
L_PLATE
 66
     1
 10
0.0
 20
0.0
 30
0.0
  0
VERTEX
  5
952
  8
L_PLATE
 10
95.00104301175321
 20
-52.0000501839618
 30
0.0
  0
VERTEX
  5
953
  8
L_PLATE
 10
95.00104301175321
 20
-50.99924994549673
 30
0.0
  0
SEQEND
  5
954
  8
L_PLATE
  0
POLYLINE
  5
955
  8
L_PLATE
 66
     1
 10
0.0
 20
0.0
 30
0.0
  0
VERTEX
  5
956
  8
L_PLATE
 10
95.80133869297674
 20
-50.99924994549673
 30
0.0
  0
VERTEX
  5
957
  8
L_PLATE
 10
95.80133869297674
 20
-47.4993774420314
 30
0.0
  0
SEQEND
  5
958
  8
L_PLATE
  0
POLYLINE
  5
959
  8
L_PLATE
 66
     1
 10
0.0
 20
0.0
 30
0.0
  0
VERTEX
  5
95A
  8
L_PLATE
 10
80.20056829757138
 20
-42.5005438929339
 30
0.0
  0
VERTEX
  5
95B
  8
L_PLATE
 10
80.20056829757138
 20
-39.00032687992007
 30
0.0
  0
SEQEND
  5
95C
  8
L_PLATE
  0
POLYLINE
  5
95D
  8
L_PLATE
 66
     1
 10
0.0
 20
0.0
 30
0.0
  0
VERTEX
  5
95E
  8
L_PLATE
 10
95.00104301175321
 20
-39.00032687992007
 30
0.0
  0
VERTEX
  5
95F
  8
L_PLATE
 10
95.00104301175321
 20
-37.9998711510035
 30
0.0
  0
SEQEND
  5
960
  8
L_PLATE
  0
POLYLINE
  5
961
  8
L_PLATE
 66
     1
 10
0.0
 20
0.0
 30
0.0
  0
VERTEX
  5
962
  8
L_PLATE
 10
81.0005194692464
 20
-37.9998711510035
 30
0.0
  0
VERTEX
  5
963
  8
L_PLATE
 10
95.00104301175321
 20
-37.9998711510035
 30
0.0
  0
SEQEND
  5
964
  8
L_PLATE
  0
POLYLINE
  5
965
  8
L_PLATE
 66
     1
 10
0.0
 20
0.0
 30
0.0
  0
VERTEX
  5
966
  8
L_PLATE
 10
76.79957003453275
 20
-47.4993774420314
 30
0.0
  0
VERTEX
  5
967
  8
L_PLATE
 10
76.79957003453275
 20
-43.99916042901756
 30
0.0
  0
SEQEND
  5
968
  8
L_PLATE
  0
POLYLINE
  5
969
  8
L_PLATE
 66
     1
 10
0.0
 20
0.0
 30
0.0
  0
VERTEX
  5
96A
  8
L_PLATE
 10
61.20155571551558
 20
-56.0004950614339
 30
0.0
  0
VERTEX
  5
96B
  8
L_PLATE
 10
61.20155571551558
 20
-52.5006225579686
 30
0.0
  0
SEQEND
  5
96C
  8
L_PLATE
  0
POLYLINE
  5
96D
  8
L_PLATE
 66
     1
 10
0.0
 20
0.0
 30
0.0
  0
VERTEX
  5
96E
  8
L_PLATE
 10
61.20155571551558
 20
-52.5006225579686
 30
0.0
  0
VERTEX
  5
96F
  8
L_PLATE
 10
61.99909532035092
 20
-52.5006225579686
 30
0.0
  0
SEQEND
  5
970
  8
L_PLATE
  0
POLYLINE
  5
971
  8
L_PLATE
 66
     1
 10
0.0
 20
0.0
 30
0.0
  0
VERTEX
  5
972
  8
L_PLATE
 10
61.20155571551558
 20
-56.0004950614339
 30
0.0
  0
VERTEX
  5
973
  8
L_PLATE
 10
61.99909532035092
 20
-56.0004950614339
 30
0.0
  0
SEQEND
  5
974
  8
L_PLATE
  0
POLYLINE
  5
975
  8
L_PLATE
 66
     1
 10
0.0
 20
0.0
 30
0.0
  0
VERTEX
  5
976
  8
L_PLATE
 10
61.20155571551558
 20
-47.4993774420314
 30
0.0
  0
VERTEX
  5
977
  8
L_PLATE
 10
61.99909532035092
 20
-47.4993774420314
 30
0.0
  0
SEQEND
  5
978
  8
L_PLATE
  0
POLYLINE
  5
979
  8
L_PLATE
 66
     1
 10
0.0
 20
0.0
 30
0.0
  0
VERTEX
  5
97A
  8
L_PLATE
 10
61.20155571551558
 20
-43.99916042901756
 30
0.0
  0
VERTEX
  5
97B
  8
L_PLATE
 10
61.99909532035092
 20
-43.99916042901756
 30
0.0
  0
SEQEND
  5
97C
  8
L_PLATE
  0
POLYLINE
  5
97D
  8
L_PLATE
 66
     1
 10
0.0
 20
0.0
 30
0.0
  0
VERTEX
  5
97E
  8
L_PLATE
 10
75.9992743533092
 20
-43.99916042901756
 30
0.0
  0
VERTEX
  5
97F
  8
L_PLATE
 10
76.79957003453275
 20
-43.99916042901756
 30
0.0
  0
SEQEND
  5
980
  8
L_PLATE
  0
POLYLINE
  5
981
  8
L_PLATE
 66
     1
 10
0.0
 20
0.0
 30
0.0
  0
VERTEX
  5
982
  8
L_PLATE
 10
75.9992743533092
 20
-47.4993774420314
 30
0.0
  0
VERTEX
  5
983
  8
L_PLATE
 10
76.79957003453275
 20
-47.4993774420314
 30
0.0
  0
SEQEND
  5
984
  8
L_PLATE
  0
POLYLINE
  5
985
  8
L_PLATE
 66
     1
 10
0.0
 20
0.0
 30
0.0
  0
VERTEX
  5
986
  8
L_PLATE
 10
75.9992743533092
 20
-56.0004950614339
 30
0.0
  0
VERTEX
  5
987
  8
L_PLATE
 10
76.79957003453275
 20
-56.0004950614339
 30
0.0
  0
SEQEND
  5
988
  8
L_PLATE
  0
POLYLINE
  5
989
  8
L_PLATE
 66
     1
 10
0.0
 20
0.0
 30
0.0
  0
VERTEX
  5
98A
  8
L_PLATE
 10
75.9992743533092
 20
-52.5006225579686
 30
0.0
  0
VERTEX
  5
98B
  8
L_PLATE
 10
76.79957003453275
 20
-52.5006225579686
 30
0.0
  0
SEQEND
  5
98C
  8
L_PLATE
  0
POLYLINE
  5
98D
  8
L_PLATE
 66
     1
 10
0.0
 20
0.0
 30
0.0
  0
VERTEX
  5
98E
  8
L_PLATE
 10
61.99909532035092
 20
-43.99916042901756
 30
0.0
  0
VERTEX
  5
98F
  8
L_PLATE
 10
61.99909532035092
 20
-43.0011162669407
 30
0.0
  0
SEQEND
  5
990
  8
L_PLATE
  0
POLYLINE
  5
991
  8
L_PLATE
 66
     1
 10
0.0
 20
0.0
 30
0.0
  0
VERTEX
  5
992
  8
L_PLATE
 10
61.99909532035092
 20
-56.9988837330593
 30
0.0
  0
VERTEX
  5
993
  8
L_PLATE
 10
61.99909532035092
 20
-56.0004950614339
 30
0.0
  0
SEQEND
  5
994
  8
L_PLATE
  0
POLYLINE
  5
995
  8
L_PLATE
 66
     1
 10
0.0
 20
0.0
 30
0.0
  0
VERTEX
  5
996
  8
L_PLATE
 10
61.99909532035092
 20
-47.4993774420314
 30
0.0
  0
VERTEX
  5
997
  8
L_PLATE
 10
61.99909532035092
 20
-52.5006225579686
 30
0.0
  0
SEQEND
  5
998
  8
L_PLATE
  0
POLYLINE
  5
999
  8
L_PLATE
 66
     1
 10
0.0
 20
0.0
 30
0.0
  0
VERTEX
  5
99A
  8
L_PLATE
 10
61.99909532035092
 20
-56.9988837330593
 30
0.0
  0
VERTEX
  5
99B
  8
L_PLATE
 10
75.9992743533092
 20
-56.9988837330593
 30
0.0
  0
SEQEND
  5
99C
  8
L_PLATE
  0
POLYLINE
  5
99D
  8
L_PLATE
 66
     1
 10
0.0
 20
0.0
 30
0.0
  0
VERTEX
  5
99E
  8
L_PLATE
 10
75.9992743533092
 20
-47.4993774420314
 30
0.0
  0
VERTEX
  5
99F
  8
L_PLATE
 10
75.9992743533092
 20
-52.5006225579686
 30
0.0
  0
SEQEND
  5
9A0
  8
L_PLATE
  0
POLYLINE
  5
9A1
  8
L_PLATE
 66
     1
 10
0.0
 20
0.0
 30
0.0
  0
VERTEX
  5
9A2
  8
L_PLATE
 10
75.9992743533092
 20
-56.9988837330593
 30
0.0
  0
VERTEX
  5
9A3
  8
L_PLATE
 10
75.9992743533092
 20
-56.0004950614339
 30
0.0
  0
SEQEND
  5
9A4
  8
L_PLATE
  0
POLYLINE
  5
9A5
  8
L_PLATE
 66
     1
 10
0.0
 20
0.0
 30
0.0
  0
VERTEX
  5
9A6
  8
L_PLATE
 10
76.79957003453275
 20
-56.0004950614339
 30
0.0
  0
VERTEX
  5
9A7
  8
L_PLATE
 10
76.79957003453275
 20
-52.5006225579686
 30
0.0
  0
SEQEND
  5
9A8
  8
L_PLATE
  0
POLYLINE
  5
9A9
  8
L_PLATE
 66
     1
 10
0.0
 20
0.0
 30
0.0
  0
VERTEX
  5
9AA
  8
L_PLATE
 10
61.20155571551558
 20
-47.4993774420314
 30
0.0
  0
VERTEX
  5
9AB
  8
L_PLATE
 10
61.20155571551558
 20
-43.99916042901756
 30
0.0
  0
SEQEND
  5
9AC
  8
L_PLATE
  0
POLYLINE
  5
9AD
  8
L_PLATE
 66
     1
 10
0.0
 20
0.0
 30
0.0
  0
VERTEX
  5
9AE
  8
L_PLATE
 10
75.9992743533092
 20
-43.99916042901756
 30
0.0
  0
VERTEX
  5
9AF
  8
L_PLATE
 10
75.9992743533092
 20
-43.0011162669407
 30
0.0
  0
SEQEND
  5
9B0
  8
L_PLATE
  0
POLYLINE
  5
9B1
  8
L_PLATE
 66
     1
 10
0.0
 20
0.0
 30
0.0
  0
VERTEX
  5
9B2
  8
L_PLATE
 10
61.99909532035092
 20
-43.0011162669407
 30
0.0
  0
VERTEX
  5
9B3
  8
L_PLATE
 10
75.9992743533092
 20
-43.0011162669407
 30
0.0
  0
SEQEND
  5
9B4
  8
L_PLATE
  0
POLYLINE
  5
9B5
  8
L_PLATE
 66
     1
 10
0.0
 20
0.0
 30
0.0
  0
VERTEX
  5
9B6
  8
L_PLATE
 10
57.80021294292843
 20
-47.4993774420314
 30
0.0
  0
VERTEX
  5
9B7
  8
L_PLATE
 10
57.80021294292843
 20
-43.99916042901756
 30
0.0
  0
SEQEND
  5
9B8
  8
L_PLATE
  0
POLYLINE
  5
9B9
  8
L_PLATE
 66
     1
 10
0.0
 20
0.0
 30
0.0
  0
VERTEX
  5
9BA
  8
L_PLATE
 10
42.19978705707157
 20
-56.0004950614339
 30
0.0
  0
VERTEX
  5
9BB
  8
L_PLATE
 10
42.19978705707157
 20
-52.5006225579686
 30
0.0
  0
SEQEND
  5
9BC
  8
L_PLATE
  0
POLYLINE
  5
9BD
  8
L_PLATE
 66
     1
 10
0.0
 20
0.0
 30
0.0
  0
VERTEX
  5
9BE
  8
L_PLATE
 10
42.19978705707157
 20
-52.5006225579686
 30
0.0
  0
VERTEX
  5
9BF
  8
L_PLATE
 10
42.99973822874659
 20
-52.5006225579686
 30
0.0
  0
SEQEND
  5
9C0
  8
L_PLATE
  0
POLYLINE
  5
9C1
  8
L_PLATE
 66
     1
 10
0.0
 20
0.0
 30
0.0
  0
VERTEX
  5
9C2
  8
L_PLATE
 10
42.19978705707157
 20
-56.0004950614339
 30
0.0
  0
VERTEX
  5
9C3
  8
L_PLATE
 10
42.99973822874659
 20
-56.0004950614339
 30
0.0
  0
SEQEND
  5
9C4
  8
L_PLATE
  0
POLYLINE
  5
9C5
  8
L_PLATE
 66
     1
 10
0.0
 20
0.0
 30
0.0
  0
VERTEX
  5
9C6
  8
L_PLATE
 10
42.19978705707157
 20
-47.4993774420314
 30
0.0
  0
VERTEX
  5
9C7
  8
L_PLATE
 10
42.99973822874659
 20
-47.4993774420314
 30
0.0
  0
SEQEND
  5
9C8
  8
L_PLATE
  0
POLYLINE
  5
9C9
  8
L_PLATE
 66
     1
 10
0.0
 20
0.0
 30
0.0
  0
VERTEX
  5
9CA
  8
L_PLATE
 10
42.19978705707157
 20
-43.99916042901756
 30
0.0
  0
VERTEX
  5
9CB
  8
L_PLATE
 10
42.99973822874659
 20
-43.99916042901756
 30
0.0
  0
SEQEND
  5
9CC
  8
L_PLATE
  0
POLYLINE
  5
9CD
  8
L_PLATE
 66
     1
 10
0.0
 20
0.0
 30
0.0
  0
VERTEX
  5
9CE
  8
L_PLATE
 10
57.00026177125341
 20
-43.99916042901756
 30
0.0
  0
VERTEX
  5
9CF
  8
L_PLATE
 10
57.80021294292843
 20
-43.99916042901756
 30
0.0
  0
SEQEND
  5
9D0
  8
L_PLATE
  0
POLYLINE
  5
9D1
  8
L_PLATE
 66
     1
 10
0.0
 20
0.0
 30
0.0
  0
VERTEX
  5
9D2
  8
L_PLATE
 10
57.00026177125341
 20
-47.4993774420314
 30
0.0
  0
VERTEX
  5
9D3
  8
L_PLATE
 10
57.80021294292843
 20
-47.4993774420314
 30
0.0
  0
SEQEND
  5
9D4
  8
L_PLATE
  0
POLYLINE
  5
9D5
  8
L_PLATE
 66
     1
 10
0.0
 20
0.0
 30
0.0
  0
VERTEX
  5
9D6
  8
L_PLATE
 10
57.00026177125341
 20
-56.0004950614339
 30
0.0
  0
VERTEX
  5
9D7
  8
L_PLATE
 10
57.80021294292843
 20
-56.0004950614339
 30
0.0
  0
SEQEND
  5
9D8
  8
L_PLATE
  0
POLYLINE
  5
9D9
  8
L_PLATE
 66
     1
 10
0.0
 20
0.0
 30
0.0
  0
VERTEX
  5
9DA
  8
L_PLATE
 10
57.00026177125341
 20
-52.5006225579686
 30
0.0
  0
VERTEX
  5
9DB
  8
L_PLATE
 10
57.80021294292843
 20
-52.5006225579686
 30
0.0
  0
SEQEND
  5
9DC
  8
L_PLATE
  0
POLYLINE
  5
9DD
  8
L_PLATE
 66
     1
 10
0.0
 20
0.0
 30
0.0
  0
VERTEX
  5
9DE
  8
L_PLATE
 10
42.99973822874659
 20
-43.99916042901756
 30
0.0
  0
VERTEX
  5
9DF
  8
L_PLATE
 10
42.99973822874659
 20
-43.0011162669407
 30
0.0
  0
SEQEND
  5
9E0
  8
L_PLATE
  0
POLYLINE
  5
9E1
  8
L_PLATE
 66
     1
 10
0.0
 20
0.0
 30
0.0
  0
VERTEX
  5
9E2
  8
L_PLATE
 10
42.99973822874659
 20
-56.9988837330593
 30
0.0
  0
VERTEX
  5
9E3
  8
L_PLATE
 10
42.99973822874659
 20
-56.0004950614339
 30
0.0
  0
SEQEND
  5
9E4
  8
L_PLATE
  0
POLYLINE
  5
9E5
  8
L_PLATE
 66
     1
 10
0.0
 20
0.0
 30
0.0
  0
VERTEX
  5
9E6
  8
L_PLATE
 10
42.99973822874659
 20
-47.4993774420314
 30
0.0
  0
VERTEX
  5
9E7
  8
L_PLATE
 10
42.99973822874659
 20
-52.5006225579686
 30
0.0
  0
SEQEND
  5
9E8
  8
L_PLATE
  0
POLYLINE
  5
9E9
  8
L_PLATE
 66
     1
 10
0.0
 20
0.0
 30
0.0
  0
VERTEX
  5
9EA
  8
L_PLATE
 10
42.99973822874659
 20
-56.9988837330593
 30
0.0
  0
VERTEX
  5
9EB
  8
L_PLATE
 10
57.00026177125341
 20
-56.9988837330593
 30
0.0
  0
SEQEND
  5
9EC
  8
L_PLATE
  0
POLYLINE
  5
9ED
  8
L_PLATE
 66
     1
 10
0.0
 20
0.0
 30
0.0
  0
VERTEX
  5
9EE
  8
L_PLATE
 10
57.00026177125341
 20
-47.4993774420314
 30
0.0
  0
VERTEX
  5
9EF
  8
L_PLATE
 10
57.00026177125341
 20
-52.5006225579686
 30
0.0
  0
SEQEND
  5
9F0
  8
L_PLATE
  0
POLYLINE
  5
9F1
  8
L_PLATE
 66
     1
 10
0.0
 20
0.0
 30
0.0
  0
VERTEX
  5
9F2
  8
L_PLATE
 10
57.00026177125341
 20
-56.9988837330593
 30
0.0
  0
VERTEX
  5
9F3
  8
L_PLATE
 10
57.00026177125341
 20
-56.0004950614339
 30
0.0
  0
SEQEND
  5
9F4
  8
L_PLATE
  0
POLYLINE
  5
9F5
  8
L_PLATE
 66
     1
 10
0.0
 20
0.0
 30
0.0
  0
VERTEX
  5
9F6
  8
L_PLATE
 10
57.80021294292843
 20
-56.0004950614339
 30
0.0
  0
VERTEX
  5
9F7
  8
L_PLATE
 10
57.80021294292843
 20
-52.5006225579686
 30
0.0
  0
SEQEND
  5
9F8
  8
L_PLATE
  0
POLYLINE
  5
9F9
  8
L_PLATE
 66
     1
 10
0.0
 20
0.0
 30
0.0
  0
VERTEX
  5
9FA
  8
L_PLATE
 10
42.19978705707157
 20
-47.4993774420314
 30
0.0
  0
VERTEX
  5
9FB
  8
L_PLATE
 10
42.19978705707157
 20
-43.99916042901756
 30
0.0
  0
SEQEND
  5
9FC
  8
L_PLATE
  0
POLYLINE
  5
9FD
  8
L_PLATE
 66
     1
 10
0.0
 20
0.0
 30
0.0
  0
VERTEX
  5
9FE
  8
L_PLATE
 10
57.00026177125341
 20
-43.99916042901756
 30
0.0
  0
VERTEX
  5
9FF
  8
L_PLATE
 10
57.00026177125341
 20
-43.0011162669407
 30
0.0
  0
SEQEND
  5
A00
  8
L_PLATE
  0
POLYLINE
  5
A01
  8
L_PLATE
 66
     1
 10
0.0
 20
0.0
 30
0.0
  0
VERTEX
  5
A02
  8
L_PLATE
 10
42.99973822874659
 20
-43.0011162669407
 30
0.0
  0
VERTEX
  5
A03
  8
L_PLATE
 10
57.00026177125341
 20
-43.0011162669407
 30
0.0
  0
SEQEND
  5
A04
  8
L_PLATE
  0
LINE
  5
A05
  8
L_PLATE
 10
151.2036747861623
 20
-155.1231711137993
 30
0.0
 11
162.8082708251537
 21
-166.7277671527907
 31
0.0
  0
LINE
  5
A06
  8
L_PLATE
 10
167.050911514914
 20
-166.7277671501497
 30
0.0
 11
184.7276539498904
 21
-149.0511071749426
 31
0.0
  0
LINE
  5
A07
  8
L_PLATE
 10
184.7277432718718
 20
-144.8086382790043
 30
0.0
 11
175.1430831896959
 21
-135.2227983527412
 31
0.0
  0
LINE
  5
A08
  8
L_PLATE
 10
160.5005981184062
 20
-99.86963529671428
 30
0.0
 11
160.5005981184061
 21
-26.49920926051755
 31
0.0
  0
LINE
  5
A09
  8
L_PLATE
 10
158.5005981184061
 20
-24.49920926051755
 30
0.0
 11
97.50045978630197
 21
-24.49920926051755
 31
0.0
  0
LINE
  5
A0A
  8
L_PLATE
 10
15.50130887214203
 20
-123.8193940251994
 30
0.0
 11
15.50130887214203
 21
-32.35821320123512
 31
0.0
  0
LINE
  5
A0B
  8
L_PLATE
 10
17.35535609226922
 20
-30.36354586404644
 30
0.0
 11
97.50045978630197
 21
-24.49920926051755
 31
0.0
  0
ARC
  5
A0C
  8
L_PLATE
 10
210.5005981184062
 20
-99.86963529671425
 30
0.0
 40
50.00000000000008
 50
180.0
 51
224.9964737442134
  0
ARC
  5
A0D
  8
L_PLATE
 10
164.9295911687134
 20
-164.606446809231
 30
0.0
 40
3.000000000000002
 50
224.9999999999996
 51
315.0000000713313
  0
ARC
  5
A0E
  8
L_PLATE
 10
182.6062923761491
 20
-146.9298280623659
 30
0.0
 40
3.0
 50
315.0011136169795
 51
44.9964737442124
  0
LINE
  5
A0F
  8
L_PLATE
 10
120.8186623843882
 20
-140.7261649729534
 30
0.0
 11
78.50144720424618
 21
-136.4986178726705
 31
0.0
  0
LINE
  5
A10
  8
L_PLATE
 10
78.50144720424618
 20
-136.4986178726705
 30
0.0
 11
17.1573645264185
 21
-125.7895976408302
 31
0.0
  0
ARC
  5
A11
  8
L_PLATE
 10
115.8483357268351
 20
-190.4785101731268
 30
0.0
 40
49.99999999999997
 50
45.00000000000023
 51
84.29500294779895
  0
CIRCLE
  5
A12
  8
L_PLATE
 10
94.00045978630197
 20
-27.76332985254137
 30
0.0
 40
1.1
  0
CIRCLE
  5
A13
  8
L_PLATE
 10
56.71981349903123
 20
-30.4912102663006
 30
0.0
 40
1.1
  0
CIRCLE
  5
A14
  8
L_PLATE
 10
18.50130887214203
 20
-33.28771517159392
 30
0.0
 40
1.1
  0
CIRCLE
  5
A15
  8
L_PLATE
 10
18.50130887214203
 20
-78.1332793433068
 30
0.0
 40
1.1
  0
CIRCLE
  5
A16
  8
L_PLATE
 10
18.50130887214203
 20
-122.9788435150197
 30
0.0
 40
1.1
  0
CIRCLE
  5
A17
  8
L_PLATE
 10
56.15543025689431
 20
-129.5522362551026
 30
0.0
 40
1.1
  0
CIRCLE
  5
A18
  8
L_PLATE
 10
94.00045978630197
 20
-135.0320569637507
 30
0.0
 40
1.1
  0
CIRCLE
  5
A19
  8
L_PLATE
 10
101.000459786302
 20
-135.7313664427891
 30
0.0
 40
1.1
  0
CIRCLE
  5
A1A
  8
L_PLATE
 10
139.2024872429953
 20
-141.0006632270727
 30
0.0
 40
1.1
  0
CIRCLE
  5
A1B
  8
L_PLATE
 10
164.9295911713544
 20
-164.6064468118721
 30
0.0
 40
1.1
  0
CIRCLE
  5
A1C
  8
L_PLATE
 10
182.606251151042
 20
-146.9297868321845
 30
0.0
 40
1.1
  0
CIRCLE
  5
A1D
  8
L_PLATE
 10
159.0005981184061
 20
-121.1997770997647
 30
0.0
 40
1.1
  0
CIRCLE
  5
A1E
  8
L_PLATE
 10
157.5005981184061
 20
-76.16012631319525
 30
0.0
 40
1.1
  0
CIRCLE
  5
A1F
  8
L_PLATE
 10
157.5005981184061
 20
-27.49920926051757
 30
0.0
 40
1.1
  0
ARC
  5
A20
  8
L_PLATE
 10
17.50130887214203
 20
-32.35821320123512
 30
0.0
 40
2.000000000000001
 50
94.18495930518009
 51
180.0
  0
ARC
  5
A21
  8
L_PLATE
 10
17.50130887214203
 20
-123.8193940251994
 30
0.0
 40
2.000000000000001
 50
180.0
 51
260.0974948094255
  0
ARC
  5
A22
  8
L_PLATE
 10
158.5005981184061
 20
-26.49920926051755
 30
0.0
 40
2.0
 50
0.0
 51
90.0
  0
ENDSEC
  0
EOF
